MonaSans-Black.ufo
<glyph name="exclam" format="2">
  <advance width="288"/>
  <unicode hex="0021"/>
  <outline>
    <contour>
      <point x="95" y="231" type="line"/>
      <point x="194" y="231" type="line"/>
      <point x="241" y="487" type="line"/>
      <point x="241" y="729" type="line"/>
      <point x="47" y="729" type="line"/>
      <point x="47" y="487" type="line"/>
    </contour>
    <contour>
      <point x="144" y="-8" type="curve" smooth="yes"/>
      <point x="200" y="-8"/>
      <point x="238" y="27"/>
      <point x="238" y="80" type="curve" smooth="yes"/>
      <point x="238" y="133"/>
      <point x="200" y="168"/>
      <point x="144" y="168" type="curve" smooth="yes"/>
      <point x="88" y="168"/>
      <point x="50" y="133"/>
      <point x="50" y="80" type="curve" smooth="yes"/>
      <point x="50" y="27"/>
      <point x="88" y="-8"/>
    </contour>
  </outline>
</glyph>
<glyph name="numbersign" format="2">
  <advance width="695"/>
  <unicode hex="0023"/>
  <outline>
    <contour>
      <point x="150" y="0" type="line"/>
      <point x="292" y="0" type="line"/>
      <point x="292" y="182" type="line"/>
      <point x="406" y="182" type="line"/>
      <point x="406" y="0" type="line"/>
      <point x="546" y="0" type="line"/>
      <point x="546" y="182" type="line"/>
      <point x="669" y="182" type="line"/>
      <point x="669" y="309" type="line"/>
      <point x="546" y="309" type="line"/>
      <point x="546" y="423" type="line"/>
      <point x="669" y="423" type="line"/>
      <point x="669" y="551" type="line"/>
      <point x="546" y="551" type="line"/>
      <point x="546" y="729" type="line"/>
      <point x="406" y="729" type="line"/>
      <point x="406" y="551" type="line"/>
      <point x="292" y="551" type="line"/>
      <point x="292" y="729" type="line"/>
      <point x="150" y="729" type="line"/>
      <point x="150" y="551" type="line"/>
      <point x="26" y="551" type="line"/>
      <point x="26" y="423" type="line"/>
      <point x="150" y="423" type="line"/>
      <point x="150" y="309" type="line"/>
      <point x="26" y="309" type="line"/>
      <point x="26" y="182" type="line"/>
      <point x="150" y="182" type="line"/>
    </contour>
    <contour>
      <point x="292" y="309" type="line"/>
      <point x="292" y="423" type="line"/>
      <point x="406" y="423" type="line"/>
      <point x="406" y="309" type="line"/>
    </contour>
  </outline>
</glyph>
<glyph name="dollar" format="2">
  <advance width="677"/>
  <unicode hex="0024"/>
  <outline>
    <contour>
      <point x="337" y="8" type="curve" smooth="yes"/>
      <point x="542" y="8"/>
      <point x="642" y="101"/>
      <point x="642" y="232" type="curve" smooth="yes"/>
      <point x="642" y="409"/>
      <point x="514" y="440"/>
      <point x="402" y="456" type="curve" smooth="yes"/>
      <point x="276" y="475"/>
      <point x="257" y="481"/>
      <point x="257" y="521" type="curve" smooth="yes"/>
      <point x="257" y="553"/>
      <point x="288" y="573"/>
      <point x="336" y="573" type="curve" smooth="yes"/>
      <point x="374" y="573"/>
      <point x="417" y="561"/>
      <point x="420" y="511" type="curve"/>
      <point x="622" y="511" type="line"/>
      <point x="622" y="638"/>
      <point x="508" y="722"/>
      <point x="340" y="722" type="curve" smooth="yes"/>
      <point x="161" y="722"/>
      <point x="49" y="637"/>
      <point x="49" y="495" type="curve" smooth="yes"/>
      <point x="49" y="362"/>
      <point x="147" y="304"/>
      <point x="296" y="282" type="curve" smooth="yes"/>
      <point x="425" y="264"/>
      <point x="433" y="253"/>
      <point x="433" y="212" type="curve" smooth="yes"/>
      <point x="433" y="177"/>
      <point x="398" y="160"/>
      <point x="347" y="160" type="curve" smooth="yes"/>
      <point x="269" y="160"/>
      <point x="239" y="192"/>
      <point x="239" y="239" type="curve"/>
      <point x="35" y="239" type="line"/>
      <point x="35" y="100"/>
      <point x="143" y="8"/>
    </contour>
    <contour>
      <point x="273" y="-85" type="line"/>
      <point x="405" y="-85" type="line"/>
      <point x="405" y="82" type="line"/>
      <point x="273" y="82" type="line"/>
    </contour>
    <contour>
      <point x="273" y="632" type="line"/>
      <point x="405" y="632" type="line"/>
      <point x="405" y="814" type="line"/>
      <point x="273" y="814" type="line"/>
    </contour>
  </outline>
</glyph>
<glyph name="ampersand" format="2">
  <advance width="762"/>
  <unicode hex="0026"/>
  <outline>
    <contour>
      <point x="652" y="-8" type="curve" smooth="yes"/>
      <point x="674" y="-8"/>
      <point x="697" y="-6"/>
      <point x="721" y="-1" type="curve"/>
      <point x="728" y="152" type="line"/>
      <point x="714" y="147"/>
      <point x="701" y="145"/>
      <point x="688" y="145" type="curve" smooth="yes"/>
      <point x="654" y="145"/>
      <point x="609" y="156"/>
      <point x="563" y="205" type="curve" smooth="yes"/>
      <point x="368" y="411" type="line" smooth="yes"/>
      <point x="290" y="493"/>
      <point x="287" y="509"/>
      <point x="287" y="538" type="curve" smooth="yes"/>
      <point x="287" y="569"/>
      <point x="310" y="587"/>
      <point x="337" y="587" type="curve" smooth="yes"/>
      <point x="366" y="587"/>
      <point x="384" y="568"/>
      <point x="384" y="538" type="curve" smooth="yes"/>
      <point x="384" y="502"/>
      <point x="357" y="466"/>
      <point x="318" y="446" type="curve"/>
      <point x="391" y="361" type="line"/>
      <point x="486" y="398"/>
      <point x="549" y="470"/>
      <point x="549" y="558" type="curve" smooth="yes"/>
      <point x="549" y="667"/>
      <point x="461" y="739"/>
      <point x="341" y="739" type="curve" smooth="yes"/>
      <point x="205" y="739"/>
      <point x="106" y="659"/>
      <point x="106" y="536" type="curve" smooth="yes"/>
      <point x="106" y="480"/>
      <point x="125" y="423"/>
      <point x="202" y="342" type="curve" smooth="yes"/>
      <point x="455" y="76" type="line" smooth="yes"/>
      <point x="517" y="11"/>
      <point x="581" y="-8"/>
    </contour>
    <contour>
      <point x="242" y="-10" type="curve" smooth="yes"/>
      <point x="350" y="-10"/>
      <point x="445" y="30"/>
      <point x="489" y="97" type="curve"/>
      <point x="388" y="193" type="line"/>
      <point x="369" y="164"/>
      <point x="335" y="144"/>
      <point x="291" y="144" type="curve" smooth="yes"/>
      <point x="248" y="144"/>
      <point x="220" y="171"/>
      <point x="220" y="211" type="curve" smooth="yes"/>
      <point x="220" y="244"/>
      <point x="243" y="276"/>
      <point x="273" y="287" type="curve"/>
      <point x="186" y="390" type="line"/>
      <point x="99" y="361"/>
      <point x="29" y="281"/>
      <point x="29" y="187" type="curve" smooth="yes"/>
      <point x="29" y="65"/>
      <point x="120" y="-10"/>
    </contour>
    <contour>
      <point x="568" y="166" type="line"/>
      <point x="594" y="196"/>
      <point x="617" y="230"/>
      <point x="633" y="256" type="curve"/>
      <point x="705" y="253" type="line"/>
      <point x="690" y="398" type="line"/>
      <point x="512" y="398" type="line"/>
      <point x="510" y="366" type="line"/>
      <point x="504" y="346"/>
      <point x="490" y="315"/>
      <point x="456" y="265" type="curve"/>
    </contour>
  </outline>
</glyph>
<glyph name="quotesingle" format="2">
  <advance width="229"/>
  <unicode hex="0027"/>
  <anchor x="-35" y="0" name="#entry"/>
  <anchor x="212" y="0" name="#exit"/>
  <outline>
    <contour>
      <point x="73" y="410" type="line"/>
      <point x="156" y="410" type="line"/>
      <point x="200" y="608" type="line"/>
      <point x="200" y="729" type="line"/>
      <point x="30" y="729" type="line"/>
      <point x="30" y="608" type="line"/>
    </contour>
  </outline>
</glyph>
<glyph name="parenleft" format="2">
  <advance width="383"/>
  <unicode hex="0028"/>
  <outline>
    <contour>
      <point x="207" y="-167" type="curve"/>
      <point x="369" y="-167" type="line"/>
      <point x="278" y="-48"/>
      <point x="217" y="144"/>
      <point x="217" y="313" type="curve" smooth="yes"/>
      <point x="217" y="482"/>
      <point x="278" y="674"/>
      <point x="369" y="793" type="curve"/>
      <point x="207" y="793" type="line"/>
      <point x="102" y="681"/>
      <point x="32" y="489"/>
      <point x="32" y="313" type="curve" smooth="yes"/>
      <point x="32" y="137"/>
      <point x="102" y="-55"/>
    </contour>
  </outline>
</glyph>
<glyph name="asterisk" format="2">
  <advance width="306"/>
  <unicode hex="002A"/>
  <outline>
    <contour>
      <point x="116" y="444" type="line"/>
      <point x="190" y="444" type="line"/>
      <point x="190" y="487" type="line"/>
      <point x="174" y="548" type="line"/>
      <point x="221" y="504" type="line"/>
      <point x="259" y="483" type="line"/>
      <point x="295" y="546" type="line"/>
      <point x="258" y="567" type="line"/>
      <point x="196" y="586" type="line"/>
      <point x="258" y="605" type="line"/>
      <point x="295" y="626" type="line"/>
      <point x="259" y="689" type="line"/>
      <point x="221" y="668" type="line"/>
      <point x="174" y="624" type="line"/>
      <point x="190" y="686" type="line"/>
      <point x="190" y="729" type="line"/>
      <point x="116" y="729" type="line"/>
      <point x="116" y="686" type="line"/>
      <point x="132" y="624" type="line"/>
      <point x="85" y="668" type="line"/>
      <point x="47" y="689" type="line"/>
      <point x="11" y="626" type="line"/>
      <point x="48" y="605" type="line"/>
      <point x="110" y="586" type="line"/>
      <point x="48" y="567" type="line"/>
      <point x="11" y="546" type="line"/>
      <point x="47" y="483" type="line"/>
      <point x="85" y="504" type="line"/>
      <point x="132" y="548" type="line"/>
      <point x="116" y="487" type="line"/>
    </contour>
  </outline>
</glyph>
<glyph name="plus" format="2">
  <advance width="600"/>
  <unicode hex="002B"/>
  <outline>
    <contour>
      <point x="224" y="124" type="line"/>
      <point x="377" y="124" type="line"/>
      <point x="377" y="286" type="line"/>
      <point x="537" y="286" type="line"/>
      <point x="537" y="435" type="line"/>
      <point x="377" y="435" type="line"/>
      <point x="377" y="597" type="line"/>
      <point x="224" y="597" type="line"/>
      <point x="224" y="435" type="line"/>
      <point x="64" y="435" type="line"/>
      <point x="64" y="286" type="line"/>
      <point x="224" y="286" type="line"/>
    </contour>
  </outline>
</glyph>
<glyph name="comma" format="2">
  <advance width="241"/>
  <unicode hex="002C"/>
  <anchor x="-14" y="0" name="#entry"/>
  <anchor x="240" y="0" name="#exit"/>
  <anchor x="116" y="552" name="top"/>
  <outline>
    <contour>
      <point x="2" y="-167" type="curve"/>
      <point x="105" y="-167" type="line"/>
      <point x="158" y="-119"/>
      <point x="215" y="-18"/>
      <point x="215" y="62" type="curve" smooth="yes"/>
      <point x="215" y="128"/>
      <point x="173" y="168"/>
      <point x="117" y="168" type="curve" smooth="yes"/>
      <point x="60" y="168"/>
      <point x="22" y="132"/>
      <point x="22" y="79" type="curve" smooth="yes"/>
      <point x="22" y="31"/>
      <point x="54" y="-3"/>
      <point x="108" y="-3" type="curve" smooth="yes"/>
      <point x="117" y="-3"/>
      <point x="125" y="-2"/>
      <point x="133" y="-1" type="curve"/>
      <point x="119" y="11" type="line"/>
      <point x="107" y="-38"/>
      <point x="58" y="-109"/>
    </contour>
  </outline>
</glyph>
<glyph name="hyphen" format="2">
  <advance width="430"/>
  <unicode hex="002D"/>
  <outline>
    <contour>
      <point x="38" y="192" type="line"/>
      <point x="392" y="192" type="line"/>
      <point x="392" y="352" type="line"/>
      <point x="38" y="352" type="line"/>
    </contour>
  </outline>
</glyph>
<glyph name="period" format="2">
  <advance width="232"/>
  <unicode hex="002E"/>
  <anchor x="-23" y="0" name="#entry"/>
  <anchor x="255" y="0" name="#exit"/>
  <anchor x="116" y="168" name="_top"/>
  <anchor x="116" y="552" name="top"/>
  <outline>
    <contour>
      <point x="116" y="-8" type="curve" smooth="yes"/>
      <point x="172" y="-8"/>
      <point x="210" y="27"/>
      <point x="210" y="80" type="curve" smooth="yes"/>
      <point x="210" y="133"/>
      <point x="172" y="168"/>
      <point x="116" y="168" type="curve" smooth="yes"/>
      <point x="60" y="168"/>
      <point x="22" y="133"/>
      <point x="22" y="80" type="curve" smooth="yes"/>
      <point x="22" y="27"/>
      <point x="60" y="-8"/>
    </contour>
  </outline>
</glyph>
<glyph name="slash" format="2">
  <advance width="478"/>
  <unicode hex="002F"/>
  <outline>
    <contour>
      <point x="-8" y="-82" type="line"/>
      <point x="173" y="-82" type="line"/>
      <point x="462" y="729" type="line"/>
      <point x="279" y="729" type="line"/>
    </contour>
  </outline>
</glyph>
<glyph name="zero" format="2">
  <advance width="620"/>
  <unicode hex="0030"/>
  <outline>
    <contour>
      <point x="310" y="-10" type="curve" smooth="yes"/>
      <point x="477" y="-10"/>
      <point x="589" y="108"/>
      <point x="589" y="359" type="curve" smooth="yes"/>
      <point x="589" y="581"/>
      <point x="500" y="729"/>
      <point x="310" y="729" type="curve" smooth="yes"/>
      <point x="143" y="729"/>
      <point x="31" y="611"/>
      <point x="31" y="359" type="curve" smooth="yes"/>
      <point x="31" y="138"/>
      <point x="120" y="-10"/>
    </contour>
    <contour>
      <point x="310" y="149" type="curve" smooth="yes"/>
      <point x="265" y="149"/>
      <point x="223" y="177"/>
      <point x="223" y="359" type="curve" smooth="yes"/>
      <point x="223" y="542"/>
      <point x="265" y="570"/>
      <point x="310" y="570" type="curve" smooth="yes"/>
      <point x="355" y="570"/>
      <point x="397" y="542"/>
      <point x="397" y="359" type="curve" smooth="yes"/>
      <point x="397" y="177"/>
      <point x="355" y="149"/>
    </contour>
  </outline>
</glyph>
<glyph name="one" format="2">
  <advance width="458"/>
  <unicode hex="0031"/>
  <outline>
    <contour>
      <point x="208" y="0" type="line"/>
      <point x="399" y="0" type="line"/>
      <point x="399" y="721" type="line"/>
      <point x="220" y="721" type="line"/>
      <point x="212" y="643"/>
      <point x="144" y="591"/>
      <point x="51" y="591" type="curve" smooth="yes"/>
      <point x="19" y="591" type="line"/>
      <point x="19" y="446" type="line"/>
      <point x="208" y="446" type="line"/>
    </contour>
  </outline>
</glyph>
<glyph name="two" format="2">
  <advance width="591"/>
  <unicode hex="0032"/>
  <outline>
    <contour>
      <point x="27" y="0" type="line"/>
      <point x="555" y="0" type="line"/>
      <point x="555" y="165" type="line"/>
      <point x="242" y="165" type="line"/>
      <point x="301" y="243"/>
      <point x="558" y="312"/>
      <point x="558" y="511" type="curve" smooth="yes"/>
      <point x="558" y="639"/>
      <point x="460" y="729"/>
      <point x="307" y="729" type="curve" smooth="yes"/>
      <point x="143" y="729"/>
      <point x="36" y="639"/>
      <point x="26" y="487" type="curve"/>
      <point x="215" y="487" type="line"/>
      <point x="216" y="532"/>
      <point x="242" y="568"/>
      <point x="297" y="568" type="curve" smooth="yes"/>
      <point x="337" y="568"/>
      <point x="367" y="544"/>
      <point x="367" y="503" type="curve" smooth="yes"/>
      <point x="367" y="367"/>
      <point x="27" y="322"/>
      <point x="27" y="35" type="curve" smooth="yes"/>
    </contour>
  </outline>
</glyph>
<glyph name="three" format="2">
  <advance width="603"/>
  <unicode hex="0033"/>
  <outline>
    <contour>
      <point x="298" y="-10" type="curve" smooth="yes"/>
      <point x="459" y="-10"/>
      <point x="576" y="69"/>
      <point x="576" y="210" type="curve" smooth="yes"/>
      <point x="576" y="287"/>
      <point x="532" y="350"/>
      <point x="458" y="371" type="curve"/>
      <point x="458" y="378" type="line"/>
      <point x="517" y="401"/>
      <point x="560" y="459"/>
      <point x="560" y="529" type="curve" smooth="yes"/>
      <point x="560" y="655"/>
      <point x="457" y="730"/>
      <point x="305" y="730" type="curve" smooth="yes"/>
      <point x="138" y="730"/>
      <point x="34" y="640"/>
      <point x="29" y="499" type="curve"/>
      <point x="214" y="499" type="line"/>
      <point x="217" y="546"/>
      <point x="250" y="572"/>
      <point x="298" y="572" type="curve" smooth="yes"/>
      <point x="345" y="572"/>
      <point x="373" y="549"/>
      <point x="373" y="506" type="curve" smooth="yes"/>
      <point x="373" y="464"/>
      <point x="344" y="435"/>
      <point x="293" y="435" type="curve" smooth="yes"/>
      <point x="216" y="435" type="line"/>
      <point x="216" y="297" type="line"/>
      <point x="301" y="297" type="line" smooth="yes"/>
      <point x="355" y="297"/>
      <point x="383" y="271"/>
      <point x="383" y="226" type="curve" smooth="yes"/>
      <point x="383" y="180"/>
      <point x="352" y="148"/>
      <point x="297" y="148" type="curve" smooth="yes"/>
      <point x="246" y="148"/>
      <point x="208" y="176"/>
      <point x="208" y="225" type="curve"/>
      <point x="22" y="225" type="line"/>
      <point x="28" y="84"/>
      <point x="127" y="-10"/>
    </contour>
  </outline>
</glyph>
<glyph name="four" format="2">
  <advance width="662"/>
  <unicode hex="0034"/>
  <outline>
    <contour>
      <point x="343" y="0" type="line"/>
      <point x="534" y="0" type="line"/>
      <point x="534" y="721" type="line"/>
      <point x="303" y="721" type="line"/>
      <point x="20" y="293" type="line"/>
      <point x="20" y="152" type="line"/>
      <point x="642" y="152" type="line"/>
      <point x="642" y="307" type="line"/>
      <point x="207" y="307" type="line"/>
      <point x="394" y="589" type="line"/>
      <point x="343" y="589" type="line"/>
    </contour>
  </outline>
</glyph>
<glyph name="five" format="2">
  <advance width="614"/>
  <unicode hex="0035"/>
  <outline>
    <contour>
      <point x="300" y="-10" type="curve" smooth="yes"/>
      <point x="471" y="-10"/>
      <point x="584" y="92"/>
      <point x="584" y="244" type="curve" smooth="yes"/>
      <point x="584" y="382"/>
      <point x="495" y="472"/>
      <point x="358" y="472" type="curve" smooth="yes"/>
      <point x="308" y="472"/>
      <point x="255" y="454"/>
      <point x="237" y="433" type="curve"/>
      <point x="229" y="436" type="line"/>
      <point x="244" y="555" type="line"/>
      <point x="565" y="555" type="line"/>
      <point x="565" y="721" type="line"/>
      <point x="76" y="721" type="line"/>
      <point x="44" y="271" type="line"/>
      <point x="226" y="271" type="line"/>
      <point x="236" y="302"/>
      <point x="268" y="322"/>
      <point x="306" y="322" type="curve" smooth="yes"/>
      <point x="357" y="322"/>
      <point x="392" y="288"/>
      <point x="392" y="237" type="curve" smooth="yes"/>
      <point x="392" y="192"/>
      <point x="359" y="152"/>
      <point x="304" y="152" type="curve" smooth="yes"/>
      <point x="260" y="152"/>
      <point x="228" y="174"/>
      <point x="220" y="207" type="curve"/>
      <point x="29" y="207" type="line"/>
      <point x="41" y="77"/>
      <point x="139" y="-10"/>
    </contour>
  </outline>
</glyph>
<glyph name="six" format="2">
  <advance width="642"/>
  <unicode hex="0036"/>
  <outline>
    <contour>
      <point x="323" y="-9" type="curve" smooth="yes"/>
      <point x="495" y="-9"/>
      <point x="609" y="93"/>
      <point x="609" y="245" type="curve" smooth="yes"/>
      <point x="609" y="380"/>
      <point x="518" y="470"/>
      <point x="382" y="470" type="curve" smooth="yes"/>
      <point x="306" y="470"/>
      <point x="252" y="443"/>
      <point x="226" y="407" type="curve"/>
      <point x="218" y="407" type="line"/>
      <point x="218" y="514"/>
      <point x="263" y="569"/>
      <point x="336" y="569" type="curve" smooth="yes"/>
      <point x="377" y="569"/>
      <point x="414" y="552"/>
      <point x="423" y="520" type="curve"/>
      <point x="615" y="520" type="line"/>
      <point x="598" y="647"/>
      <point x="497" y="731"/>
      <point x="338" y="731" type="curve" smooth="yes"/>
      <point x="142" y="731"/>
      <point x="31" y="599"/>
      <point x="31" y="350" type="curve" smooth="yes"/>
      <point x="31" y="97"/>
      <point x="146" y="-9"/>
    </contour>
    <contour>
      <point x="329" y="156" type="curve" smooth="yes"/>
      <point x="275" y="156"/>
      <point x="239" y="191"/>
      <point x="239" y="243" type="curve" smooth="yes"/>
      <point x="239" y="295"/>
      <point x="275" y="329"/>
      <point x="329" y="329" type="curve" smooth="yes"/>
      <point x="382" y="329"/>
      <point x="418" y="295"/>
      <point x="418" y="243" type="curve" smooth="yes"/>
      <point x="418" y="191"/>
      <point x="382" y="156"/>
    </contour>
  </outline>
</glyph>
<glyph name="seven" format="2">
  <advance width="602"/>
  <unicode hex="0037"/>
  <outline>
    <contour>
      <point x="184" y="0" type="curve"/>
      <point x="389" y="0" type="line"/>
      <point x="389" y="284"/>
      <point x="469" y="422"/>
      <point x="583" y="582" type="curve"/>
      <point x="583" y="721" type="line"/>
      <point x="28" y="721" type="line"/>
      <point x="28" y="445" type="line"/>
      <point x="179" y="445" type="line"/>
      <point x="179" y="555" type="line"/>
      <point x="357" y="555" type="line"/>
      <point x="273" y="438"/>
      <point x="184" y="265"/>
    </contour>
  </outline>
</glyph>
<glyph name="eight" format="2">
  <advance width="614"/>
  <unicode hex="0038"/>
  <outline>
    <contour>
      <point x="307" y="-10" type="curve" smooth="yes"/>
      <point x="477" y="-10"/>
      <point x="590" y="65"/>
      <point x="590" y="198" type="curve" smooth="yes"/>
      <point x="590" y="284"/>
      <point x="530" y="350"/>
      <point x="452" y="370" type="curve"/>
      <point x="452" y="378" type="line"/>
      <point x="519" y="399"/>
      <point x="564" y="461"/>
      <point x="564" y="533" type="curve" smooth="yes"/>
      <point x="564" y="651"/>
      <point x="471" y="729"/>
      <point x="307" y="729" type="curve" smooth="yes"/>
      <point x="153" y="729"/>
      <point x="50" y="658"/>
      <point x="50" y="533" type="curve" smooth="yes"/>
      <point x="50" y="461"/>
      <point x="95" y="399"/>
      <point x="162" y="378" type="curve"/>
      <point x="162" y="370" type="line"/>
      <point x="84" y="350"/>
      <point x="24" y="284"/>
      <point x="24" y="198" type="curve" smooth="yes"/>
      <point x="24" y="73"/>
      <point x="126" y="-10"/>
    </contour>
    <contour>
      <point x="307" y="152" type="curve" smooth="yes"/>
      <point x="252" y="152"/>
      <point x="219" y="179"/>
      <point x="219" y="227" type="curve" smooth="yes"/>
      <point x="219" y="272"/>
      <point x="250" y="301"/>
      <point x="307" y="301" type="curve" smooth="yes"/>
      <point x="364" y="301"/>
      <point x="395" y="272"/>
      <point x="395" y="227" type="curve" smooth="yes"/>
      <point x="395" y="179"/>
      <point x="362" y="152"/>
    </contour>
    <contour>
      <point x="307" y="441" type="curve" smooth="yes"/>
      <point x="261" y="441"/>
      <point x="230" y="465"/>
      <point x="230" y="508" type="curve" smooth="yes"/>
      <point x="230" y="548"/>
      <point x="258" y="574"/>
      <point x="307" y="574" type="curve" smooth="yes"/>
      <point x="356" y="574"/>
      <point x="384" y="548"/>
      <point x="384" y="508" type="curve" smooth="yes"/>
      <point x="384" y="465"/>
      <point x="353" y="441"/>
    </contour>
  </outline>
</glyph>
<glyph name="equal" format="2">
  <advance width="600"/>
  <unicode hex="003D"/>
  <anchor x="301" y="366" name="center"/>
  <outline>
    <contour>
      <point x="64" y="406" type="line"/>
      <point x="537" y="406" type="line"/>
      <point x="537" y="555" type="line"/>
      <point x="64" y="555" type="line"/>
    </contour>
    <contour>
      <point x="64" y="166" type="line"/>
      <point x="537" y="166" type="line"/>
      <point x="537" y="315" type="line"/>
      <point x="64" y="315" type="line"/>
    </contour>
  </outline>
</glyph>
<glyph name="question" format="2">
  <advance width="578"/>
  <unicode hex="003F"/>
  <outline>
    <contour>
      <point x="210" y="228" type="line"/>
      <point x="380" y="228" type="line"/>
      <point x="380" y="234" type="line" smooth="yes"/>
      <point x="380" y="322"/>
      <point x="553" y="378"/>
      <point x="553" y="533" type="curve" smooth="yes"/>
      <point x="553" y="656"/>
      <point x="470" y="738"/>
      <point x="295" y="738" type="curve" smooth="yes"/>
      <point x="129" y="738"/>
      <point x="19" y="646"/>
      <point x="20" y="508" type="curve"/>
      <point x="206" y="508" type="line"/>
      <point x="206" y="550"/>
      <point x="238" y="578"/>
      <point x="286" y="578" type="curve" smooth="yes"/>
      <point x="329" y="578"/>
      <point x="357" y="554"/>
      <point x="357" y="512" type="curve" smooth="yes"/>
      <point x="357" y="426"/>
      <point x="210" y="372"/>
      <point x="210" y="247" type="curve" smooth="yes"/>
    </contour>
    <contour>
      <point x="291" y="-8" type="curve" smooth="yes"/>
      <point x="347" y="-8"/>
      <point x="385" y="27"/>
      <point x="385" y="80" type="curve" smooth="yes"/>
      <point x="385" y="133"/>
      <point x="347" y="168"/>
      <point x="291" y="168" type="curve" smooth="yes"/>
      <point x="235" y="168"/>
      <point x="197" y="133"/>
      <point x="197" y="80" type="curve" smooth="yes"/>
      <point x="197" y="27"/>
      <point x="235" y="-8"/>
    </contour>
  </outline>
</glyph>
<glyph name="at" format="2">
  <advance width="887"/>
  <unicode hex="0040"/>
  <outline>
    <contour>
      <point x="458" y="-101" type="curve" smooth="yes"/>
      <point x="567" y="-101"/>
      <point x="667" y="-63"/>
      <point x="714" y="-18" type="curve"/>
      <point x="666" y="77" type="line"/>
      <point x="619" y="41"/>
      <point x="554" y="16"/>
      <point x="469" y="16" type="curve" smooth="yes"/>
      <point x="289" y="16"/>
      <point x="169" y="115"/>
      <point x="169" y="325" type="curve" smooth="yes"/>
      <point x="169" y="487"/>
      <point x="263" y="621"/>
      <point x="458" y="621" type="curve" smooth="yes"/>
      <point x="608" y="621"/>
      <point x="729" y="538"/>
      <point x="729" y="357" type="curve" smooth="yes"/>
      <point x="729" y="271"/>
      <point x="704" y="218"/>
      <point x="657" y="218" type="curve" smooth="yes"/>
      <point x="625" y="218"/>
      <point x="605" y="244"/>
      <point x="611" y="318" type="curve" smooth="yes"/>
      <point x="626" y="504" type="line"/>
      <point x="547" y="504" type="line"/>
      <point x="533" y="464" type="line"/>
      <point x="525" y="464" type="line"/>
      <point x="510" y="490"/>
      <point x="474" y="513"/>
      <point x="432" y="513" type="curve" smooth="yes"/>
      <point x="327" y="513"/>
      <point x="257" y="439"/>
      <point x="257" y="298" type="curve" smooth="yes"/>
      <point x="257" y="185"/>
      <point x="313" y="109"/>
      <point x="413" y="109" type="curve" smooth="yes"/>
      <point x="471" y="109"/>
      <point x="507" y="137"/>
      <point x="522" y="169" type="curve"/>
      <point x="531" y="169" type="line"/>
      <point x="552" y="130"/>
      <point x="598" y="102"/>
      <point x="658" y="102" type="curve" smooth="yes"/>
      <point x="766" y="102"/>
      <point x="854" y="201"/>
      <point x="854" y="366" type="curve" smooth="yes"/>
      <point x="854" y="589"/>
      <point x="686" y="738"/>
      <point x="454" y="738" type="curve" smooth="yes"/>
      <point x="208" y="738"/>
      <point x="36" y="565"/>
      <point x="36" y="319" type="curve" smooth="yes"/>
      <point x="36" y="67"/>
      <point x="188" y="-101"/>
    </contour>
    <contour>
      <point x="436" y="218" type="curve" smooth="yes"/>
      <point x="402" y="218"/>
      <point x="379" y="250"/>
      <point x="379" y="304" type="curve" smooth="yes"/>
      <point x="379" y="363"/>
      <point x="397" y="403"/>
      <point x="443" y="403" type="curve" smooth="yes"/>
      <point x="478" y="403"/>
      <point x="499" y="377"/>
      <point x="503" y="313" type="curve"/>
      <point x="499" y="255"/>
      <point x="480" y="218"/>
    </contour>
  </outline>
</glyph>
<glyph name="A" format="2">
  <advance width="766"/>
  <unicode hex="0041"/>
  <anchor x="383" y="0" name="bottom"/>
  <anchor x="754" y="0" name="ogonek"/>
  <anchor x="383" y="729" name="top"/>
  <outline>
    <contour>
      <point x="11" y="0" type="line"/>
      <point x="222" y="0" type="line"/>
      <point x="354" y="482" type="line"/>
      <point x="379" y="577" type="line"/>
      <point x="386" y="577" type="line"/>
      <point x="411" y="482" type="line"/>
      <point x="543" y="0" type="line"/>
      <point x="754" y="0" type="line"/>
      <point x="527" y="729" type="line"/>
      <point x="238" y="729" type="line"/>
    </contour>
    <contour>
      <point x="244" y="130" type="line"/>
      <point x="521" y="130" type="line"/>
      <point x="476" y="284" type="line"/>
      <point x="289" y="284" type="line"/>
    </contour>
  </outline>
</glyph>
<glyph name="B" format="2">
  <advance width="711"/>
  <unicode hex="0042"/>
  <anchor x="352" y="0" name="bottom"/>
  <anchor x="352" y="729" name="top"/>
  <outline>
    <contour>
      <point x="59" y="0" type="line"/>
      <point x="412" y="0" type="line" smooth="yes"/>
      <point x="587" y="0"/>
      <point x="685" y="68"/>
      <point x="685" y="212" type="curve" smooth="yes"/>
      <point x="685" y="294"/>
      <point x="640" y="360"/>
      <point x="539" y="376" type="curve"/>
      <point x="540" y="384" type="line"/>
      <point x="615" y="402"/>
      <point x="665" y="459"/>
      <point x="665" y="541" type="curve" smooth="yes"/>
      <point x="665" y="654"/>
      <point x="592" y="729"/>
      <point x="439" y="729" type="curve" smooth="yes"/>
      <point x="59" y="729" type="line"/>
    </contour>
    <contour>
      <point x="256" y="153" type="line"/>
      <point x="256" y="576" type="line"/>
      <point x="380" y="576" type="line" smooth="yes"/>
      <point x="429" y="576"/>
      <point x="461" y="558"/>
      <point x="461" y="513" type="curve" smooth="yes"/>
      <point x="461" y="473"/>
      <point x="439" y="446"/>
      <point x="381" y="446" type="curve" smooth="yes"/>
      <point x="240" y="446" type="line"/>
      <point x="240" y="299" type="line"/>
      <point x="390" y="299" type="line" smooth="yes"/>
      <point x="443" y="299"/>
      <point x="479" y="278"/>
      <point x="479" y="224" type="curve" smooth="yes"/>
      <point x="479" y="181"/>
      <point x="454" y="153"/>
      <point x="388" y="153" type="curve" smooth="yes"/>
    </contour>
  </outline>
</glyph>
<glyph name="C" format="2">
  <advance width="770"/>
  <unicode hex="0043"/>
  <anchor x="387" y="0" name="bottom"/>
  <anchor x="387" y="729" name="top"/>
  <outline>
    <contour>
      <point x="400" y="-10" type="curve" smooth="yes"/>
      <point x="589" y="-10"/>
      <point x="731" y="98"/>
      <point x="748" y="258" type="curve"/>
      <point x="543" y="258" type="line"/>
      <point x="529" y="200"/>
      <point x="469" y="162"/>
      <point x="400" y="162" type="curve" smooth="yes"/>
      <point x="302" y="162"/>
      <point x="236" y="220"/>
      <point x="236" y="365" type="curve" smooth="yes"/>
      <point x="236" y="509"/>
      <point x="302" y="567"/>
      <point x="400" y="567" type="curve" smooth="yes"/>
      <point x="473" y="567"/>
      <point x="527" y="528"/>
      <point x="543" y="472" type="curve"/>
      <point x="748" y="472" type="line"/>
      <point x="731" y="631"/>
      <point x="594" y="739"/>
      <point x="400" y="739" type="curve" smooth="yes"/>
      <point x="177" y="739"/>
      <point x="28" y="607"/>
      <point x="28" y="365" type="curve" smooth="yes"/>
      <point x="28" y="122"/>
      <point x="177" y="-10"/>
    </contour>
  </outline>
</glyph>
<glyph name="D" format="2">
  <advance width="756"/>
  <unicode hex="0044"/>
  <anchor x="375" y="0" name="bottom"/>
  <anchor x="190" y="365" name="center"/>
  <anchor x="375" y="729" name="top"/>
  <outline>
    <contour>
      <point x="59" y="0" type="line"/>
      <point x="386" y="0" type="line" smooth="yes"/>
      <point x="609" y="0"/>
      <point x="728" y="147"/>
      <point x="728" y="364" type="curve" smooth="yes"/>
      <point x="728" y="581"/>
      <point x="610" y="729"/>
      <point x="386" y="729" type="curve" smooth="yes"/>
      <point x="59" y="729" type="line"/>
    </contour>
    <contour>
      <point x="262" y="171" type="line"/>
      <point x="262" y="558" type="line"/>
      <point x="351" y="558" type="line" smooth="yes"/>
      <point x="448" y="558"/>
      <point x="521" y="526"/>
      <point x="521" y="368" type="curve" smooth="yes"/>
      <point x="521" y="200"/>
      <point x="444" y="171"/>
      <point x="351" y="171" type="curve" smooth="yes"/>
    </contour>
  </outline>
</glyph>
<glyph name="E" format="2">
  <advance width="646"/>
  <unicode hex="0045"/>
  <anchor x="324" y="0" name="bottom"/>
  <anchor x="612" y="0" name="ogonek"/>
  <anchor x="324" y="729" name="top"/>
  <anchor x="10" y="729" name="topleft"/>
  <outline>
    <contour>
      <point x="59" y="0" type="line"/>
      <point x="612" y="0" type="line"/>
      <point x="612" y="172" type="line"/>
      <point x="220" y="172" type="line"/>
      <point x="262" y="130" type="line"/>
      <point x="262" y="599" type="line"/>
      <point x="220" y="557" type="line"/>
      <point x="609" y="557" type="line"/>
      <point x="609" y="729" type="line"/>
      <point x="59" y="729" type="line"/>
    </contour>
    <contour>
      <point x="220" y="288" type="line"/>
      <point x="559" y="288" type="line"/>
      <point x="559" y="449" type="line"/>
      <point x="220" y="449" type="line"/>
    </contour>
  </outline>
</glyph>
<glyph name="F" format="2">
  <advance width="631"/>
  <unicode hex="0046"/>
  <anchor x="310" y="0" name="bottom"/>
  <anchor x="310" y="729" name="top"/>
  <outline>
    <contour>
      <point x="59" y="0" type="line"/>
      <point x="262" y="0" type="line"/>
      <point x="262" y="589" type="line"/>
      <point x="230" y="557" type="line"/>
      <point x="608" y="557" type="line"/>
      <point x="608" y="729" type="line"/>
      <point x="59" y="729" type="line"/>
    </contour>
    <contour>
      <point x="214" y="261" type="line"/>
      <point x="568" y="261" type="line"/>
      <point x="568" y="424" type="line"/>
      <point x="214" y="424" type="line"/>
    </contour>
  </outline>
</glyph>
<glyph name="G" format="2">
  <advance width="820"/>
  <unicode hex="0047"/>
  <anchor x="409" y="0" name="bottom"/>
  <anchor x="412" y="729" name="top"/>
  <outline>
    <contour>
      <point x="368" y="-10" type="curve" smooth="yes"/>
      <point x="474" y="-10"/>
      <point x="569" y="31"/>
      <point x="601" y="92" type="curve"/>
      <point x="608" y="92" type="line"/>
      <point x="616" y="0" type="line"/>
      <point x="777" y="0" type="line"/>
      <point x="777" y="408" type="line"/>
      <point x="399" y="408" type="line"/>
      <point x="399" y="264" type="line"/>
      <point x="599" y="264" type="line"/>
      <point x="562" y="297" type="line"/>
      <point x="562" y="279" type="line" smooth="yes"/>
      <point x="562" y="205"/>
      <point x="499" y="156"/>
      <point x="405" y="156" type="curve" smooth="yes"/>
      <point x="303" y="156"/>
      <point x="235" y="221"/>
      <point x="235" y="358" type="curve" smooth="yes"/>
      <point x="235" y="483"/>
      <point x="291" y="567"/>
      <point x="411" y="567" type="curve" smooth="yes"/>
      <point x="484" y="567"/>
      <point x="545" y="531"/>
      <point x="563" y="477" type="curve"/>
      <point x="769" y="477" type="line"/>
      <point x="750" y="636"/>
      <point x="611" y="739"/>
      <point x="412" y="739" type="curve" smooth="yes"/>
      <point x="181" y="739"/>
      <point x="27" y="600"/>
      <point x="27" y="352" type="curve" smooth="yes"/>
      <point x="27" y="126"/>
      <point x="163" y="-10"/>
    </contour>
  </outline>
</glyph>
<glyph name="H" format="2">
  <advance width="802"/>
  <unicode hex="0048"/>
  <anchor x="401" y="0" name="bottom"/>
  <anchor x="401" y="591" name="center"/>
  <anchor x="401" y="729" name="top"/>
  <anchor x="10" y="729" name="topleft"/>
  <outline>
    <contour>
      <point x="59" y="0" type="line"/>
      <point x="262" y="0" type="line"/>
      <point x="262" y="729" type="line"/>
      <point x="59" y="729" type="line"/>
    </contour>
    <contour>
      <point x="540" y="0" type="line"/>
      <point x="743" y="0" type="line"/>
      <point x="743" y="729" type="line"/>
      <point x="540" y="729" type="line"/>
    </contour>
    <contour>
      <point x="224" y="283" type="line"/>
      <point x="578" y="283" type="line"/>
      <point x="578" y="455" type="line"/>
      <point x="224" y="455" type="line"/>
    </contour>
  </outline>
</glyph>
<glyph name="I" format="2">
  <advance width="321"/>
  <unicode hex="0049"/>
  <anchor x="161" y="0" name="bottom"/>
  <anchor x="262" y="0" name="ogonek"/>
  <anchor x="161" y="729" name="top"/>
  <anchor x="10" y="729" name="topleft"/>
  <outline>
    <contour>
      <point x="59" y="0" type="line"/>
      <point x="262" y="0" type="line"/>
      <point x="262" y="729" type="line"/>
      <point x="59" y="729" type="line"/>
    </contour>
  </outline>
</glyph>
<glyph name="J" format="2">
  <advance width="439"/>
  <unicode hex="004A"/>
  <anchor x="227" y="0" name="bottom"/>
  <anchor x="279" y="729" name="top"/>
  <outline>
    <contour>
      <point x="20" y="0" type="line"/>
      <point x="159" y="0" type="line" smooth="yes"/>
      <point x="306" y="0"/>
      <point x="380" y="74"/>
      <point x="380" y="221" type="curve" smooth="yes"/>
      <point x="380" y="729" type="line"/>
      <point x="178" y="729" type="line"/>
      <point x="178" y="234" type="line" smooth="yes"/>
      <point x="178" y="178"/>
      <point x="154" y="156"/>
      <point x="98" y="156" type="curve" smooth="yes"/>
      <point x="20" y="156" type="line"/>
    </contour>
  </outline>
</glyph>
<glyph name="K" format="2">
  <advance width="753"/>
  <unicode hex="004B"/>
  <anchor x="370" y="0" name="bottom"/>
  <anchor x="370" y="729" name="top"/>
  <outline>
    <contour>
      <point x="503" y="0" type="line"/>
      <point x="742" y="0" type="line"/>
      <point x="482" y="427" type="line"/>
      <point x="740" y="729" type="line"/>
      <point x="500" y="729" type="line"/>
      <point x="252" y="408" type="line"/>
      <point x="252" y="174" type="line"/>
      <point x="343" y="280" type="line"/>
    </contour>
    <contour>
      <point x="59" y="0" type="line"/>
      <point x="262" y="0" type="line"/>
      <point x="262" y="729" type="line"/>
      <point x="59" y="729" type="line"/>
    </contour>
  </outline>
</glyph>
<glyph name="L" format="2">
  <advance width="584"/>
  <unicode hex="004C"/>
  <anchor x="281" y="0" name="bottom"/>
  <anchor x="381" y="365" name="center"/>
  <anchor x="161" y="729" name="top"/>
  <anchor x="312" y="729" name="topright"/>
  <outline>
    <contour>
      <point x="59" y="0" type="line"/>
      <point x="564" y="0" type="line"/>
      <point x="564" y="179" type="line"/>
      <point x="237" y="179" type="line"/>
      <point x="262" y="151" type="line"/>
      <point x="262" y="729" type="line"/>
      <point x="59" y="729" type="line"/>
    </contour>
  </outline>
</glyph>
<glyph name="M" format="2">
  <advance width="929"/>
  <unicode hex="004D"/>
  <anchor x="465" y="0" name="bottom"/>
  <anchor x="465" y="729" name="top"/>
  <outline>
    <contour>
      <point x="59" y="0" type="line"/>
      <point x="257" y="0" type="line"/>
      <point x="257" y="312" type="line"/>
      <point x="252" y="538" type="line"/>
      <point x="261" y="538" type="line"/>
      <point x="306" y="331" type="line"/>
      <point x="383" y="0" type="line"/>
      <point x="549" y="0" type="line"/>
      <point x="625" y="326" type="line"/>
      <point x="671" y="538" type="line"/>
      <point x="679" y="538" type="line"/>
      <point x="674" y="312" type="line"/>
      <point x="674" y="0" type="line"/>
      <point x="870" y="0" type="line"/>
      <point x="870" y="729" type="line"/>
      <point x="554" y="729" type="line"/>
      <point x="500" y="473" type="line"/>
      <point x="470" y="293" type="line"/>
      <point x="462" y="293" type="line"/>
      <point x="431" y="473" type="line"/>
      <point x="375" y="729" type="line"/>
      <point x="59" y="729" type="line"/>
    </contour>
  </outline>
</glyph>
<glyph name="N" format="2">
  <advance width="790"/>
  <unicode hex="004E"/>
  <anchor x="395" y="0" name="bottom"/>
  <anchor x="395" y="729" name="top"/>
  <outline>
    <contour>
      <point x="59" y="0" type="line"/>
      <point x="266" y="0" type="line"/>
      <point x="266" y="236" type="line"/>
      <point x="259" y="431" type="line"/>
      <point x="265" y="431" type="line"/>
      <point x="500" y="0" type="line"/>
      <point x="731" y="0" type="line"/>
      <point x="731" y="729" type="line"/>
      <point x="536" y="729" type="line"/>
      <point x="536" y="504" type="line"/>
      <point x="543" y="289" type="line"/>
      <point x="537" y="289" type="line"/>
      <point x="304" y="729" type="line"/>
      <point x="59" y="729" type="line"/>
    </contour>
  </outline>
</glyph>
<glyph name="O" format="2">
  <advance width="801"/>
  <unicode hex="004F"/>
  <anchor x="401" y="0" name="bottom"/>
  <anchor x="401" y="365" name="center"/>
  <anchor x="723" y="10" name="ogonek"/>
  <anchor x="401" y="729" name="top"/>
  <anchor x="17" y="729" name="topleft"/>
  <anchor x="559" y="709" name="topright"/>
  <outline>
    <contour>
      <point x="400" y="-10" type="curve" smooth="yes"/>
      <point x="624" y="-10"/>
      <point x="773" y="122"/>
      <point x="773" y="365" type="curve" smooth="yes"/>
      <point x="773" y="607"/>
      <point x="624" y="739"/>
      <point x="400" y="739" type="curve" smooth="yes"/>
      <point x="177" y="739"/>
      <point x="28" y="607"/>
      <point x="28" y="365" type="curve" smooth="yes"/>
      <point x="28" y="122"/>
      <point x="177" y="-10"/>
    </contour>
    <contour>
      <point x="400" y="162" type="curve" smooth="yes"/>
      <point x="302" y="162"/>
      <point x="236" y="220"/>
      <point x="236" y="365" type="curve" smooth="yes"/>
      <point x="236" y="509"/>
      <point x="302" y="567"/>
      <point x="400" y="567" type="curve" smooth="yes"/>
      <point x="499" y="567"/>
      <point x="565" y="508"/>
      <point x="565" y="365" type="curve" smooth="yes"/>
      <point x="565" y="221"/>
      <point x="499" y="162"/>
    </contour>
  </outline>
</glyph>
<glyph name="P" format="2">
  <advance width="679"/>
  <unicode hex="0050"/>
  <anchor x="334" y="0" name="bottom"/>
  <anchor x="334" y="729" name="top"/>
  <outline>
    <contour>
      <point x="59" y="0" type="line"/>
      <point x="262" y="0" type="line"/>
      <point x="262" y="581" type="line"/>
      <point x="240" y="559" type="line"/>
      <point x="353" y="559" type="line" smooth="yes"/>
      <point x="409" y="559"/>
      <point x="451" y="538"/>
      <point x="451" y="475" type="curve" smooth="yes"/>
      <point x="451" y="425"/>
      <point x="423" y="387"/>
      <point x="353" y="387" type="curve" smooth="yes"/>
      <point x="246" y="387" type="line"/>
      <point x="246" y="232" type="line"/>
      <point x="370" y="232" type="line" smooth="yes"/>
      <point x="542" y="232"/>
      <point x="657" y="322"/>
      <point x="657" y="482" type="curve" smooth="yes"/>
      <point x="657" y="630"/>
      <point x="565" y="729"/>
      <point x="370" y="729" type="curve" smooth="yes"/>
      <point x="59" y="729" type="line"/>
    </contour>
  </outline>
</glyph>
<glyph name="R" format="2">
  <advance width="738"/>
  <unicode hex="0052"/>
  <anchor x="364" y="0" name="bottom"/>
  <anchor x="350" y="729" name="top"/>
  <outline>
    <contour>
      <point x="59" y="0" type="line"/>
      <point x="262" y="0" type="line"/>
      <point x="262" y="563" type="line"/>
      <point x="405" y="563" type="line" smooth="yes"/>
      <point x="457" y="563"/>
      <point x="495" y="544"/>
      <point x="495" y="486" type="curve" smooth="yes"/>
      <point x="495" y="440"/>
      <point x="470" y="405"/>
      <point x="405" y="405" type="curve" smooth="yes"/>
      <point x="246" y="405" type="line"/>
      <point x="246" y="246" type="line"/>
      <point x="392" y="246" type="line" smooth="yes"/>
      <point x="465" y="246"/>
      <point x="485" y="215"/>
      <point x="485" y="166" type="curve" smooth="yes"/>
      <point x="485" y="86" type="line" smooth="yes"/>
      <point x="485" y="48"/>
      <point x="489" y="16"/>
      <point x="497" y="0" type="curve"/>
      <point x="701" y="0" type="line"/>
      <point x="688" y="29"/>
      <point x="688" y="59"/>
      <point x="688" y="87" type="curve" smooth="yes"/>
      <point x="688" y="201" type="line" smooth="yes"/>
      <point x="688" y="282"/>
      <point x="651" y="326"/>
      <point x="568" y="341" type="curve"/>
      <point x="568" y="348" type="line"/>
      <point x="649" y="369"/>
      <point x="703" y="434"/>
      <point x="703" y="524" type="curve" smooth="yes"/>
      <point x="703" y="663"/>
      <point x="604" y="729"/>
      <point x="455" y="729" type="curve" smooth="yes"/>
      <point x="59" y="729" type="line"/>
    </contour>
  </outline>
</glyph>
<glyph name="S" format="2">
  <advance width="678"/>
  <unicode hex="0053"/>
  <anchor x="341" y="0" name="bottom"/>
  <anchor x="341" y="729" name="top"/>
  <outline>
    <contour>
      <point x="338" y="-10" type="curve" smooth="yes"/>
      <point x="549" y="-10"/>
      <point x="653" y="86"/>
      <point x="653" y="223" type="curve" smooth="yes"/>
      <point x="653" y="407"/>
      <point x="521" y="439"/>
      <point x="405" y="456" type="curve" smooth="yes"/>
      <point x="276" y="475"/>
      <point x="249" y="488"/>
      <point x="249" y="528" type="curve" smooth="yes"/>
      <point x="249" y="571"/>
      <point x="283" y="587"/>
      <point x="335" y="587" type="curve" smooth="yes"/>
      <point x="379" y="587"/>
      <point x="425" y="572"/>
      <point x="428" y="518" type="curve"/>
      <point x="632" y="518" type="line"/>
      <point x="632" y="650"/>
      <point x="515" y="738"/>
      <point x="340" y="738" type="curve" smooth="yes"/>
      <point x="154" y="738"/>
      <point x="39" y="650"/>
      <point x="39" y="502" type="curve" smooth="yes"/>
      <point x="39" y="374"/>
      <point x="125" y="306"/>
      <point x="294" y="281" type="curve" smooth="yes"/>
      <point x="415" y="263"/>
      <point x="442" y="254"/>
      <point x="442" y="210" type="curve" smooth="yes"/>
      <point x="442" y="161"/>
      <point x="405" y="144"/>
      <point x="347" y="144" type="curve" smooth="yes"/>
      <point x="263" y="144"/>
      <point x="230" y="179"/>
      <point x="230" y="231" type="curve"/>
      <point x="24" y="231" type="line"/>
      <point x="24" y="86"/>
      <point x="136" y="-10"/>
    </contour>
  </outline>
</glyph>
<glyph name="T" format="2">
  <advance width="651"/>
  <unicode hex="0054"/>
  <anchor x="326" y="0" name="bottom"/>
  <anchor x="323" y="324" name="center"/>
  <anchor x="326" y="729" name="top"/>
  <outline>
    <contour>
      <point x="221" y="0" type="line"/>
      <point x="424" y="0" type="line"/>
      <point x="424" y="571" type="line"/>
      <point x="221" y="571" type="line"/>
    </contour>
    <contour>
      <point x="20" y="555" type="line"/>
      <point x="631" y="555" type="line"/>
      <point x="631" y="729" type="line"/>
      <point x="20" y="729" type="line"/>
    </contour>
  </outline>
</glyph>
<glyph name="U" format="2">
  <advance width="741"/>
  <unicode hex="0055"/>
  <anchor x="371" y="0" name="bottom"/>
  <anchor x="499" y="0" name="ogonek"/>
  <anchor x="371" y="729" name="top"/>
  <anchor x="528" y="729" name="topright"/>
  <outline>
    <contour>
      <point x="369" y="-10" type="curve" smooth="yes"/>
      <point x="564" y="-10"/>
      <point x="694" y="96"/>
      <point x="694" y="284" type="curve" smooth="yes"/>
      <point x="694" y="729" type="line"/>
      <point x="492" y="729" type="line"/>
      <point x="492" y="283" type="line" smooth="yes"/>
      <point x="492" y="209"/>
      <point x="448" y="169"/>
      <point x="371" y="169" type="curve" smooth="yes"/>
      <point x="293" y="169"/>
      <point x="249" y="209"/>
      <point x="249" y="283" type="curve" smooth="yes"/>
      <point x="249" y="729" type="line"/>
      <point x="47" y="729" type="line"/>
      <point x="47" y="284" type="line" smooth="yes"/>
      <point x="47" y="108"/>
      <point x="163" y="-10"/>
    </contour>
  </outline>
</glyph>
<glyph name="V" format="2">
  <advance width="780"/>
  <unicode hex="0056"/>
  <anchor x="390" y="0" name="bottom"/>
  <anchor x="390" y="729" name="top"/>
  <outline>
    <contour>
      <point x="254" y="0" type="line"/>
      <point x="527" y="0" type="line"/>
      <point x="769" y="729" type="line"/>
      <point x="542" y="729" type="line"/>
      <point x="420" y="267" type="line"/>
      <point x="394" y="159" type="line"/>
      <point x="386" y="159" type="line"/>
      <point x="360" y="267" type="line"/>
      <point x="238" y="729" type="line"/>
      <point x="11" y="729" type="line"/>
    </contour>
  </outline>
</glyph>
<glyph name="W" format="2">
  <advance width="1041"/>
  <unicode hex="0057"/>
  <anchor x="521" y="0" name="bottom"/>
  <anchor x="521" y="729" name="top"/>
  <outline>
    <contour>
      <point x="172" y="0" type="line"/>
      <point x="448" y="0" type="line"/>
      <point x="490" y="285" type="line"/>
      <point x="518" y="500" type="line"/>
      <point x="526" y="500" type="line"/>
      <point x="552" y="285" type="line"/>
      <point x="593" y="0" type="line"/>
      <point x="869" y="0" type="line"/>
      <point x="1027" y="729" type="line"/>
      <point x="803" y="729" type="line"/>
      <point x="758" y="404" type="line"/>
      <point x="734" y="189" type="line"/>
      <point x="726" y="189" type="line"/>
      <point x="696" y="404" type="line"/>
      <point x="645" y="729" type="line"/>
      <point x="399" y="729" type="line"/>
      <point x="347" y="385" type="line"/>
      <point x="322" y="191" type="line"/>
      <point x="313" y="191" type="line"/>
      <point x="289" y="385" type="line"/>
      <point x="238" y="729" type="line"/>
      <point x="14" y="729" type="line"/>
    </contour>
  </outline>
</glyph>
<glyph name="X" format="2">
  <advance width="806"/>
  <unicode hex="0058"/>
  <anchor x="404" y="0" name="bottom"/>
  <anchor x="404" y="729" name="top"/>
  <outline>
    <contour>
      <point x="9" y="0" type="line"/>
      <point x="244" y="0" type="line"/>
      <point x="363" y="197" type="line"/>
      <point x="397" y="258" type="line"/>
      <point x="404" y="258" type="line"/>
      <point x="438" y="197" type="line"/>
      <point x="557" y="0" type="line"/>
      <point x="797" y="0" type="line"/>
      <point x="536" y="389" type="line"/>
      <point x="770" y="729" type="line"/>
      <point x="531" y="729" type="line"/>
      <point x="440" y="570" type="line"/>
      <point x="404" y="503" type="line"/>
      <point x="397" y="503" type="line"/>
      <point x="361" y="570" type="line"/>
      <point x="270" y="729" type="line"/>
      <point x="31" y="729" type="line"/>
      <point x="270" y="388" type="line"/>
    </contour>
  </outline>
</glyph>
<glyph name="Y" format="2">
  <advance width="760"/>
  <unicode hex="0059"/>
  <anchor x="381" y="0" name="bottom"/>
  <anchor x="381" y="729" name="top"/>
  <anchor x="28" y="729" name="topleft"/>
  <outline>
    <contour>
      <point x="278" y="0" type="line"/>
      <point x="481" y="0" type="line"/>
      <point x="481" y="269" type="line"/>
      <point x="752" y="729" type="line"/>
      <point x="522" y="729" type="line"/>
      <point x="433" y="551" type="line"/>
      <point x="382" y="444" type="line"/>
      <point x="375" y="444" type="line"/>
      <point x="326" y="551" type="line"/>
      <point x="239" y="729" type="line"/>
      <point x="8" y="729" type="line"/>
      <point x="278" y="269" type="line"/>
    </contour>
  </outline>
</glyph>
<glyph name="Z" format="2">
  <advance width="642"/>
  <unicode hex="005A"/>
  <anchor x="321" y="0" name="bottom"/>
  <anchor x="321" y="365" name="center"/>
  <anchor x="321" y="729" name="top"/>
  <outline>
    <contour>
      <point x="30" y="0" type="line"/>
      <point x="610" y="0" type="line"/>
      <point x="610" y="172" type="line"/>
      <point x="276" y="172" type="line"/>
      <point x="601" y="554" type="line"/>
      <point x="601" y="729" type="line"/>
      <point x="48" y="729" type="line"/>
      <point x="48" y="556" type="line"/>
      <point x="352" y="556" type="line"/>
      <point x="30" y="173" type="line"/>
    </contour>
  </outline>
</glyph>
<glyph name="bracketleft" format="2">
  <advance width="391"/>
  <unicode hex="005B"/>
  <outline>
    <contour>
      <point x="64" y="-167" type="line"/>
      <point x="362" y="-167" type="line"/>
      <point x="362" y="-24" type="line"/>
      <point x="242" y="-24" type="line"/>
      <point x="242" y="649" type="line"/>
      <point x="362" y="649" type="line"/>
      <point x="362" y="793" type="line"/>
      <point x="64" y="793" type="line"/>
    </contour>
  </outline>
</glyph>
<glyph name="backslash" format="2">
  <advance width="448"/>
  <unicode hex="005C"/>
  <outline>
    <contour>
      <point x="278" y="-82" type="line"/>
      <point x="459" y="-82" type="line"/>
      <point x="172" y="729" type="line"/>
      <point x="-11" y="729" type="line"/>
    </contour>
  </outline>
</glyph>
<glyph name="asciicircum" format="2">
  <advance width="600"/>
  <unicode hex="005E"/>
  <outline>
    <contour>
      <point x="55" y="468" type="line"/>
      <point x="229" y="468" type="line"/>
      <point x="302" y="586" type="line"/>
      <point x="373" y="468" type="line"/>
      <point x="547" y="468" type="line"/>
      <point x="401" y="729" type="line"/>
      <point x="202" y="729" type="line"/>
    </contour>
  </outline>
</glyph>
<glyph name="underscore" format="2">
  <advance width="480"/>
  <unicode hex="005F"/>
  <outline>
    <contour>
      <point x="38" y="-160" type="line"/>
      <point x="442" y="-160" type="line"/>
      <point x="442" y="0" type="line"/>
      <point x="38" y="0" type="line"/>
    </contour>
  </outline>
</glyph>
<glyph name="b" format="2">
  <advance width="654"/>
  <unicode hex="0062"/>
  <anchor x="326" y="0" name="bottom"/>
  <anchor x="326" y="729" name="top"/>
  <outline>
    <contour>
      <point x="407" y="-10" type="curve" smooth="yes"/>
      <point x="539" y="-10"/>
      <point x="626" y="93"/>
      <point x="626" y="272" type="curve" smooth="yes"/>
      <point x="626" y="451"/>
      <point x="539" y="554"/>
      <point x="407" y="554" type="curve" smooth="yes"/>
      <point x="334" y="554"/>
      <point x="273" y="518"/>
      <point x="253" y="465" type="curve"/>
      <point x="245" y="465" type="line"/>
      <point x="245" y="729" type="line"/>
      <point x="54" y="729" type="line"/>
      <point x="54" y="0" type="line"/>
      <point x="236" y="0" type="line"/>
      <point x="243" y="79" type="line"/>
      <point x="253" y="79" type="line"/>
      <point x="273" y="26"/>
      <point x="334" y="-10"/>
    </contour>
    <contour>
      <point x="331" y="143" type="curve" smooth="yes"/>
      <point x="279" y="143"/>
      <point x="245" y="181"/>
      <point x="245" y="249" type="curve" smooth="yes"/>
      <point x="245" y="295" type="line" smooth="yes"/>
      <point x="245" y="359"/>
      <point x="273" y="401"/>
      <point x="336" y="401" type="curve" smooth="yes"/>
      <point x="406" y="401"/>
      <point x="431" y="349"/>
      <point x="431" y="272" type="curve" smooth="yes"/>
      <point x="431" y="195"/>
      <point x="403" y="143"/>
    </contour>
  </outline>
</glyph>
<glyph name="c" format="2">
  <advance width="586"/>
  <unicode hex="0063"/>
  <anchor x="302" y="0" name="bottom"/>
  <anchor x="303" y="544" name="top"/>
  <outline>
    <contour>
      <point x="302" y="-10" type="curve" smooth="yes"/>
      <point x="451" y="-10"/>
      <point x="559" y="76"/>
      <point x="563" y="208" type="curve"/>
      <point x="378" y="208" type="line"/>
      <point x="373" y="171"/>
      <point x="349" y="144"/>
      <point x="302" y="144" type="curve" smooth="yes"/>
      <point x="252" y="144"/>
      <point x="219" y="182"/>
      <point x="219" y="272" type="curve" smooth="yes"/>
      <point x="219" y="351"/>
      <point x="244" y="400"/>
      <point x="303" y="400" type="curve" smooth="yes"/>
      <point x="341" y="400"/>
      <point x="369" y="380"/>
      <point x="376" y="336" type="curve"/>
      <point x="562" y="336" type="line"/>
      <point x="560" y="465"/>
      <point x="455" y="554"/>
      <point x="307" y="554" type="curve" smooth="yes"/>
      <point x="135" y="554"/>
      <point x="25" y="444"/>
      <point x="25" y="273" type="curve" smooth="yes"/>
      <point x="25" y="102"/>
      <point x="134" y="-10"/>
    </contour>
  </outline>
</glyph>
<glyph name="d" format="2">
  <advance width="654"/>
  <unicode hex="0064"/>
  <anchor x="329" y="0" name="bottom"/>
  <anchor x="475" y="631" name="center"/>
  <anchor x="329" y="729" name="top"/>
  <anchor x="600" y="729" name="topright"/>
  <outline>
    <contour>
      <point x="247" y="-10" type="curve" smooth="yes"/>
      <point x="320" y="-10"/>
      <point x="381" y="26"/>
      <point x="401" y="79" type="curve"/>
      <point x="411" y="79" type="line"/>
      <point x="418" y="0" type="line"/>
      <point x="600" y="0" type="line"/>
      <point x="600" y="729" type="line"/>
      <point x="409" y="729" type="line"/>
      <point x="409" y="465" type="line"/>
      <point x="401" y="465" type="line"/>
      <point x="381" y="518"/>
      <point x="320" y="554"/>
      <point x="247" y="554" type="curve" smooth="yes"/>
      <point x="115" y="554"/>
      <point x="28" y="451"/>
      <point x="28" y="272" type="curve" smooth="yes"/>
      <point x="28" y="93"/>
      <point x="115" y="-10"/>
    </contour>
    <contour>
      <point x="318" y="143" type="curve" smooth="yes"/>
      <point x="248" y="143"/>
      <point x="223" y="195"/>
      <point x="223" y="272" type="curve" smooth="yes"/>
      <point x="223" y="349"/>
      <point x="251" y="401"/>
      <point x="323" y="401" type="curve" smooth="yes"/>
      <point x="375" y="401"/>
      <point x="409" y="363"/>
      <point x="409" y="295" type="curve" smooth="yes"/>
      <point x="409" y="249" type="line" smooth="yes"/>
      <point x="409" y="185"/>
      <point x="381" y="143"/>
    </contour>
  </outline>
</glyph>
<glyph name="e" format="2">
  <advance width="597"/>
  <unicode hex="0065"/>
  <anchor x="305" y="0" name="bottom"/>
  <anchor x="436" y="0" name="ogonek"/>
  <anchor x="298" y="544" name="top"/>
  <outline>
    <contour>
      <point x="305" y="-10" type="curve" smooth="yes"/>
      <point x="446" y="-10"/>
      <point x="549" y="63"/>
      <point x="563" y="172" type="curve"/>
      <point x="383" y="172" type="line"/>
      <point x="373" y="148"/>
      <point x="349" y="132"/>
      <point x="305" y="132" type="curve" smooth="yes"/>
      <point x="249" y="132"/>
      <point x="211" y="166"/>
      <point x="213" y="227" type="curve"/>
      <point x="568" y="227" type="line"/>
      <point x="588" y="415"/>
      <point x="495" y="554"/>
      <point x="298" y="554" type="curve" smooth="yes"/>
      <point x="134" y="554"/>
      <point x="25" y="445"/>
      <point x="25" y="267" type="curve" smooth="yes"/>
      <point x="25" y="101"/>
      <point x="127" y="-10"/>
    </contour>
    <contour>
      <point x="213" y="325" type="line"/>
      <point x="211" y="377"/>
      <point x="244" y="413"/>
      <point x="298" y="413" type="curve" smooth="yes"/>
      <point x="349" y="413"/>
      <point x="384" y="381"/>
      <point x="380" y="326" type="curve"/>
      <point x="397" y="341" type="line"/>
      <point x="197" y="341" type="line"/>
    </contour>
  </outline>
</glyph>
<glyph name="f" format="2">
  <advance width="407"/>
  <unicode hex="0066"/>
  <anchor x="205" y="0" name="bottom"/>
  <anchor x="205" y="729" name="top"/>
  <outline>
    <contour>
      <point x="97" y="0" type="line"/>
      <point x="288" y="0" type="line"/>
      <point x="288" y="391" type="line"/>
      <point x="390" y="391" type="line"/>
      <point x="390" y="544" type="line"/>
      <point x="288" y="544" type="line"/>
      <point x="288" y="571" type="line" smooth="yes"/>
      <point x="288" y="599"/>
      <point x="304" y="606"/>
      <point x="327" y="606" type="curve" smooth="yes"/>
      <point x="398" y="606" type="line"/>
      <point x="398" y="729" type="line"/>
      <point x="275" y="729" type="line" smooth="yes"/>
      <point x="161" y="729"/>
      <point x="97" y="675"/>
      <point x="97" y="580" type="curve" smooth="yes"/>
      <point x="97" y="544" type="line"/>
      <point x="17" y="544" type="line"/>
      <point x="17" y="391" type="line"/>
      <point x="97" y="391" type="line"/>
    </contour>
  </outline>
</glyph>
<glyph name="g" format="2">
  <advance width="633"/>
  <unicode hex="0067"/>
  <anchor x="318" y="-154" name="bottom"/>
  <anchor x="318" y="544" name="top"/>
  <outline>
    <contour>
      <point x="289" y="-177" type="curve" smooth="yes"/>
      <point x="465" y="-177"/>
      <point x="580" y="-113"/>
      <point x="580" y="80" type="curve" smooth="yes"/>
      <point x="580" y="544" type="line"/>
      <point x="395" y="544" type="line"/>
      <point x="390" y="475" type="line"/>
      <point x="380" y="475" type="line"/>
      <point x="359" y="526"/>
      <point x="299" y="554"/>
      <point x="235" y="554" type="curve" smooth="yes"/>
      <point x="110" y="554"/>
      <point x="27" y="457"/>
      <point x="27" y="291" type="curve" smooth="yes"/>
      <point x="27" y="124"/>
      <point x="110" y="29"/>
      <point x="235" y="29" type="curve" smooth="yes"/>
      <point x="304" y="29"/>
      <point x="361" y="61"/>
      <point x="380" y="108" type="curve"/>
      <point x="389" y="108" type="line"/>
      <point x="389" y="40" type="line" smooth="yes"/>
      <point x="389" y="-10"/>
      <point x="370" y="-44"/>
      <point x="294" y="-44" type="curve" smooth="yes"/>
      <point x="252" y="-44"/>
      <point x="225" y="-27"/>
      <point x="221" y="-2" type="curve"/>
      <point x="37" y="-2" type="line"/>
      <point x="43" y="-107"/>
      <point x="133" y="-177"/>
    </contour>
    <contour>
      <point x="308" y="182" type="curve" smooth="yes"/>
      <point x="243" y="182"/>
      <point x="222" y="227"/>
      <point x="222" y="291" type="curve" smooth="yes"/>
      <point x="222" y="355"/>
      <point x="246" y="401"/>
      <point x="313" y="401" type="curve" smooth="yes"/>
      <point x="357" y="401"/>
      <point x="388" y="371"/>
      <point x="388" y="311" type="curve" smooth="yes"/>
      <point x="388" y="271" type="line" smooth="yes"/>
      <point x="388" y="217"/>
      <point x="364" y="182"/>
    </contour>
  </outline>
</glyph>
<glyph name="k" format="2">
  <advance width="653"/>
  <unicode hex="006B"/>
  <anchor x="333" y="0" name="bottom"/>
  <anchor x="333" y="729" name="top"/>
  <outline>
    <contour>
      <point x="54" y="0" type="line"/>
      <point x="248" y="0" type="line"/>
      <point x="248" y="144" type="line"/>
      <point x="303" y="199" type="line"/>
      <point x="335" y="141" type="line"/>
      <point x="421" y="0" type="line"/>
      <point x="646" y="0" type="line"/>
      <point x="437" y="326" type="line"/>
      <point x="645" y="544" type="line"/>
      <point x="411" y="544" type="line"/>
      <point x="290" y="403" type="line"/>
      <point x="248" y="351" type="line"/>
      <point x="248" y="729" type="line"/>
      <point x="54" y="729" type="line"/>
    </contour>
  </outline>
</glyph>
<glyph name="l" format="2">
  <advance width="299"/>
  <unicode hex="006C"/>
  <anchor x="150" y="0" name="bottom"/>
  <anchor x="150" y="365" name="center"/>
  <anchor x="150" y="729" name="top"/>
  <anchor x="245" y="729" name="topright"/>
  <outline>
    <contour>
      <point x="54" y="0" type="line"/>
      <point x="245" y="0" type="line"/>
      <point x="245" y="729" type="line"/>
      <point x="54" y="729" type="line"/>
    </contour>
  </outline>
</glyph>
<glyph name="m" format="2">
  <advance width="978"/>
  <unicode hex="006D"/>
  <anchor x="491" y="0" name="bottom"/>
  <anchor x="491" y="544" name="top"/>
  <outline>
    <contour>
      <point x="54" y="0" type="line"/>
      <point x="245" y="0" type="line"/>
      <point x="245" y="308" type="line" smooth="yes"/>
      <point x="245" y="352"/>
      <point x="271" y="400"/>
      <point x="326" y="400" type="curve" smooth="yes"/>
      <point x="378" y="400"/>
      <point x="398" y="363"/>
      <point x="398" y="291" type="curve" smooth="yes"/>
      <point x="398" y="0" type="line"/>
      <point x="589" y="0" type="line"/>
      <point x="589" y="308" type="line" smooth="yes"/>
      <point x="589" y="352"/>
      <point x="616" y="400"/>
      <point x="670" y="400" type="curve" smooth="yes"/>
      <point x="722" y="400"/>
      <point x="742" y="363"/>
      <point x="742" y="291" type="curve" smooth="yes"/>
      <point x="742" y="0" type="line"/>
      <point x="933" y="0" type="line"/>
      <point x="933" y="333" type="line" smooth="yes"/>
      <point x="933" y="494"/>
      <point x="852" y="554"/>
      <point x="751" y="554" type="curve" smooth="yes"/>
      <point x="672" y="554"/>
      <point x="604" y="516"/>
      <point x="582" y="439" type="curve"/>
      <point x="574" y="439" type="line"/>
      <point x="544" y="525"/>
      <point x="477" y="554"/>
      <point x="406" y="554" type="curve" smooth="yes"/>
      <point x="338" y="554"/>
      <point x="277" y="521"/>
      <point x="253" y="455" type="curve"/>
      <point x="245" y="455" type="line"/>
      <point x="239" y="544" type="line"/>
      <point x="54" y="544" type="line"/>
    </contour>
  </outline>
</glyph>
<glyph name="n" format="2">
  <advance width="649"/>
  <unicode hex="006E"/>
  <anchor x="327" y="0" name="bottom"/>
  <anchor x="327" y="544" name="top"/>
  <outline>
    <contour>
      <point x="54" y="0" type="line"/>
      <point x="245" y="0" type="line"/>
      <point x="245" y="308" type="line" smooth="yes"/>
      <point x="245" y="352"/>
      <point x="274" y="400"/>
      <point x="334" y="400" type="curve" smooth="yes"/>
      <point x="391" y="400"/>
      <point x="413" y="363"/>
      <point x="413" y="291" type="curve" smooth="yes"/>
      <point x="413" y="0" type="line"/>
      <point x="604" y="0" type="line"/>
      <point x="604" y="333" type="line" smooth="yes"/>
      <point x="604" y="494"/>
      <point x="521" y="554"/>
      <point x="414" y="554" type="curve" smooth="yes"/>
      <point x="342" y="554"/>
      <point x="279" y="521"/>
      <point x="253" y="455" type="curve"/>
      <point x="245" y="455" type="line"/>
      <point x="238" y="544" type="line"/>
      <point x="54" y="544" type="line"/>
    </contour>
  </outline>
</glyph>
<glyph name="o" format="2">
  <advance width="608"/>
  <unicode hex="006F"/>
  <anchor x="304" y="0" name="bottom"/>
  <anchor x="304" y="272" name="center"/>
  <anchor x="547" y="10" name="ogonek"/>
  <anchor x="304" y="544" name="top"/>
  <anchor x="380" y="524" name="topright"/>
  <outline>
    <contour>
      <point x="304" y="-10" type="curve" smooth="yes"/>
      <point x="483" y="-10"/>
      <point x="583" y="103"/>
      <point x="583" y="272" type="curve" smooth="yes"/>
      <point x="583" y="452"/>
      <point x="471" y="554"/>
      <point x="304" y="554" type="curve" smooth="yes"/>
      <point x="125" y="554"/>
      <point x="25" y="441"/>
      <point x="25" y="272" type="curve" smooth="yes"/>
      <point x="25" y="92"/>
      <point x="137" y="-10"/>
    </contour>
    <contour>
      <point x="304" y="143" type="curve" smooth="yes"/>
      <point x="252" y="143"/>
      <point x="218" y="179"/>
      <point x="218" y="272" type="curve" smooth="yes"/>
      <point x="218" y="365"/>
      <point x="252" y="401"/>
      <point x="304" y="401" type="curve" smooth="yes"/>
      <point x="356" y="401"/>
      <point x="390" y="365"/>
      <point x="390" y="272" type="curve" smooth="yes"/>
      <point x="390" y="179"/>
      <point x="356" y="143"/>
    </contour>
  </outline>
</glyph>
<glyph name="p" format="2">
  <advance width="654"/>
  <unicode hex="0070"/>
  <anchor x="326" y="0" name="bottom"/>
  <anchor x="326" y="544" name="top"/>
  <outline>
    <contour>
      <point x="54" y="-167" type="line"/>
      <point x="245" y="-167" type="line"/>
      <point x="245" y="79" type="line"/>
      <point x="253" y="79" type="line"/>
      <point x="273" y="26"/>
      <point x="334" y="-10"/>
      <point x="407" y="-10" type="curve" smooth="yes"/>
      <point x="539" y="-10"/>
      <point x="626" y="93"/>
      <point x="626" y="272" type="curve" smooth="yes"/>
      <point x="626" y="451"/>
      <point x="539" y="554"/>
      <point x="407" y="554" type="curve" smooth="yes"/>
      <point x="334" y="554"/>
      <point x="273" y="518"/>
      <point x="253" y="465" type="curve"/>
      <point x="243" y="465" type="line"/>
      <point x="236" y="544" type="line"/>
      <point x="54" y="544" type="line"/>
    </contour>
    <contour>
      <point x="331" y="143" type="curve" smooth="yes"/>
      <point x="279" y="143"/>
      <point x="245" y="181"/>
      <point x="245" y="249" type="curve" smooth="yes"/>
      <point x="245" y="295" type="line" smooth="yes"/>
      <point x="245" y="359"/>
      <point x="273" y="401"/>
      <point x="336" y="401" type="curve" smooth="yes"/>
      <point x="406" y="401"/>
      <point x="431" y="349"/>
      <point x="431" y="272" type="curve" smooth="yes"/>
      <point x="431" y="195"/>
      <point x="403" y="143"/>
    </contour>
  </outline>
</glyph>
<glyph name="q" format="2">
  <advance width="654"/>
  <unicode hex="0071"/>
  <anchor x="329" y="0" name="bottom"/>
  <anchor x="329" y="544" name="top"/>
  <outline>
    <contour>
      <point x="409" y="-167" type="line"/>
      <point x="600" y="-167" type="line"/>
      <point x="600" y="544" type="line"/>
      <point x="416" y="544" type="line"/>
      <point x="410" y="465" type="line"/>
      <point x="401" y="465" type="line"/>
      <point x="381" y="518"/>
      <point x="320" y="554"/>
      <point x="247" y="554" type="curve" smooth="yes"/>
      <point x="115" y="554"/>
      <point x="28" y="451"/>
      <point x="28" y="272" type="curve" smooth="yes"/>
      <point x="28" y="93"/>
      <point x="115" y="-10"/>
      <point x="247" y="-10" type="curve" smooth="yes"/>
      <point x="320" y="-10"/>
      <point x="381" y="26"/>
      <point x="401" y="79" type="curve"/>
      <point x="409" y="79" type="line"/>
    </contour>
    <contour>
      <point x="318" y="143" type="curve" smooth="yes"/>
      <point x="248" y="143"/>
      <point x="223" y="195"/>
      <point x="223" y="272" type="curve" smooth="yes"/>
      <point x="223" y="349"/>
      <point x="251" y="401"/>
      <point x="323" y="401" type="curve" smooth="yes"/>
      <point x="375" y="401"/>
      <point x="409" y="363"/>
      <point x="409" y="295" type="curve" smooth="yes"/>
      <point x="409" y="249" type="line" smooth="yes"/>
      <point x="409" y="185"/>
      <point x="381" y="143"/>
    </contour>
  </outline>
</glyph>
<glyph name="r" format="2">
  <advance width="431"/>
  <unicode hex="0072"/>
  <anchor x="211" y="0" name="bottom"/>
  <anchor x="211" y="544" name="top"/>
  <outline>
    <contour>
      <point x="54" y="0" type="line"/>
      <point x="245" y="0" type="line"/>
      <point x="245" y="257" type="line" smooth="yes"/>
      <point x="245" y="331"/>
      <point x="274" y="372"/>
      <point x="378" y="372" type="curve" smooth="yes"/>
      <point x="392" y="372"/>
      <point x="405" y="372"/>
      <point x="412" y="372" type="curve"/>
      <point x="412" y="551" type="line"/>
      <point x="403" y="551"/>
      <point x="394" y="551"/>
      <point x="382" y="551" type="curve" smooth="yes"/>
      <point x="318" y="551"/>
      <point x="265" y="534"/>
      <point x="241" y="465" type="curve"/>
      <point x="234" y="465" type="line"/>
      <point x="227" y="544" type="line"/>
      <point x="54" y="544" type="line"/>
    </contour>
  </outline>
</glyph>
<glyph name="s" format="2">
  <advance width="548"/>
  <unicode hex="0073"/>
  <anchor x="274" y="0" name="bottom"/>
  <anchor x="274" y="544" name="top"/>
  <outline>
    <contour>
      <point x="271" y="-10" type="curve" smooth="yes"/>
      <point x="423" y="-10"/>
      <point x="524" y="56"/>
      <point x="524" y="174" type="curve" smooth="yes"/>
      <point x="524" y="279"/>
      <point x="469" y="326"/>
      <point x="327" y="344" type="curve" smooth="yes"/>
      <point x="252" y="354"/>
      <point x="226" y="360"/>
      <point x="226" y="388" type="curve" smooth="yes"/>
      <point x="226" y="411"/>
      <point x="245" y="422"/>
      <point x="273" y="422" type="curve" smooth="yes"/>
      <point x="305" y="422"/>
      <point x="324" y="409"/>
      <point x="325" y="383" type="curve"/>
      <point x="513" y="383" type="line"/>
      <point x="507" y="485"/>
      <point x="414" y="554"/>
      <point x="279" y="554" type="curve" smooth="yes"/>
      <point x="133" y="554"/>
      <point x="35" y="481"/>
      <point x="35" y="371" type="curve" smooth="yes"/>
      <point x="35" y="262"/>
      <point x="101" y="220"/>
      <point x="247" y="199" type="curve" smooth="yes"/>
      <point x="309" y="190"/>
      <point x="330" y="186"/>
      <point x="330" y="157" type="curve" smooth="yes"/>
      <point x="330" y="136"/>
      <point x="313" y="122"/>
      <point x="276" y="122" type="curve" smooth="yes"/>
      <point x="239" y="122"/>
      <point x="213" y="136"/>
      <point x="210" y="171" type="curve"/>
      <point x="22" y="171" type="line"/>
      <point x="23" y="63"/>
      <point x="120" y="-10"/>
    </contour>
  </outline>
</glyph>
<glyph name="t" format="2">
  <advance width="433"/>
  <unicode hex="0074"/>
  <anchor x="277" y="0" name="bottom"/>
  <anchor x="208" y="272" name="center"/>
  <anchor x="218" y="544" name="top"/>
  <anchor x="311" y="739" name="topright"/>
  <outline>
    <contour>
      <point x="259" y="0" type="curve" smooth="yes"/>
      <point x="398" y="0" type="line"/>
      <point x="398" y="153" type="line"/>
      <point x="338" y="153" type="line" smooth="yes"/>
      <point x="315" y="153"/>
      <point x="299" y="160"/>
      <point x="299" y="188" type="curve" smooth="yes"/>
      <point x="299" y="391" type="line"/>
      <point x="398" y="391" type="line"/>
      <point x="398" y="544" type="line"/>
      <point x="299" y="544" type="line"/>
      <point x="299" y="699" type="line"/>
      <point x="108" y="683" type="line"/>
      <point x="108" y="544" type="line"/>
      <point x="17" y="544" type="line"/>
      <point x="17" y="391" type="line"/>
      <point x="108" y="391" type="line"/>
      <point x="108" y="152" type="line" smooth="yes"/>
      <point x="108" y="47"/>
      <point x="153" y="0"/>
    </contour>
  </outline>
</glyph>
<glyph name="u" format="2">
  <advance width="650"/>
  <unicode hex="0075"/>
  <anchor x="321" y="0" name="bottom"/>
  <anchor x="596" y="0" name="ogonek"/>
  <anchor x="321" y="544" name="top"/>
  <anchor x="434" y="544" name="topright"/>
  <outline>
    <contour>
      <point x="238" y="-10" type="curve" smooth="yes"/>
      <point x="310" y="-10"/>
      <point x="372" y="23"/>
      <point x="397" y="89" type="curve"/>
      <point x="405" y="89" type="line"/>
      <point x="412" y="0" type="line"/>
      <point x="596" y="0" type="line"/>
      <point x="596" y="544" type="line"/>
      <point x="405" y="544" type="line"/>
      <point x="405" y="236" type="line" smooth="yes"/>
      <point x="405" y="192"/>
      <point x="376" y="144"/>
      <point x="316" y="144" type="curve" smooth="yes"/>
      <point x="259" y="144"/>
      <point x="237" y="181"/>
      <point x="237" y="253" type="curve" smooth="yes"/>
      <point x="237" y="544" type="line"/>
      <point x="46" y="544" type="line"/>
      <point x="46" y="201" type="line" smooth="yes"/>
      <point x="46" y="66"/>
      <point x="109" y="-10"/>
    </contour>
  </outline>
</glyph>
<glyph name="v" format="2">
  <advance width="609"/>
  <unicode hex="0076"/>
  <anchor x="305" y="0" name="bottom"/>
  <anchor x="305" y="544" name="top"/>
  <outline>
    <contour>
      <point x="185" y="0" type="line"/>
      <point x="424" y="0" type="line"/>
      <point x="601" y="544" type="line"/>
      <point x="395" y="544" type="line"/>
      <point x="325" y="238" type="line"/>
      <point x="307" y="145" type="line"/>
      <point x="301" y="145" type="line"/>
      <point x="283" y="238" type="line"/>
      <point x="213" y="544" type="line"/>
      <point x="8" y="544" type="line"/>
    </contour>
  </outline>
</glyph>
<glyph name="w" format="2">
  <advance width="861"/>
  <unicode hex="0077"/>
  <anchor x="432" y="0" name="bottom"/>
  <anchor x="432" y="544" name="top"/>
  <outline>
    <contour>
      <point x="132" y="0" type="line"/>
      <point x="378" y="0" type="line"/>
      <point x="407" y="180" type="line"/>
      <point x="424" y="320" type="line"/>
      <point x="430" y="320" type="line"/>
      <point x="447" y="180" type="line"/>
      <point x="476" y="0" type="line"/>
      <point x="727" y="0" type="line"/>
      <point x="849" y="544" type="line"/>
      <point x="660" y="544" type="line"/>
      <point x="614" y="302" type="line"/>
      <point x="596" y="168" type="line"/>
      <point x="589" y="168" type="line"/>
      <point x="574" y="302" type="line"/>
      <point x="539" y="544" type="line"/>
      <point x="333" y="544" type="line"/>
      <point x="296" y="302" type="line"/>
      <point x="280" y="171" type="line"/>
      <point x="273" y="171" type="line"/>
      <point x="254" y="302" type="line"/>
      <point x="210" y="544" type="line"/>
      <point x="12" y="544" type="line"/>
    </contour>
  </outline>
</glyph>
<glyph name="x" format="2">
  <advance width="662"/>
  <unicode hex="0078"/>
  <anchor x="331" y="0" name="bottom"/>
  <anchor x="331" y="544" name="top"/>
  <outline>
    <contour>
      <point x="5" y="0" type="line"/>
      <point x="220" y="0" type="line"/>
      <point x="312" y="146" type="line"/>
      <point x="325" y="170" type="line"/>
      <point x="331" y="170" type="line"/>
      <point x="344" y="146" type="line"/>
      <point x="431" y="0" type="line"/>
      <point x="656" y="0" type="line"/>
      <point x="464" y="282" type="line"/>
      <point x="639" y="544" type="line"/>
      <point x="422" y="544" type="line"/>
      <point x="349" y="416" type="line"/>
      <point x="338" y="395" type="line"/>
      <point x="332" y="395" type="line"/>
      <point x="321" y="416" type="line"/>
      <point x="249" y="544" type="line"/>
      <point x="22" y="544" type="line"/>
      <point x="203" y="277" type="line"/>
    </contour>
  </outline>
</glyph>
<glyph name="y" format="2">
  <advance width="601"/>
  <unicode hex="0079"/>
  <anchor x="502" y="0" name="bottom"/>
  <anchor x="300" y="544" name="top"/>
  <outline>
    <contour>
      <point x="62" y="-167" type="line"/>
      <point x="169" y="-167" type="line" smooth="yes"/>
      <point x="270" y="-167"/>
      <point x="349" y="-137"/>
      <point x="397" y="-4" type="curve" smooth="yes"/>
      <point x="594" y="544" type="line"/>
      <point x="389" y="544" type="line"/>
      <point x="321" y="280" type="line"/>
      <point x="309" y="220" type="line"/>
      <point x="302" y="220" type="line"/>
      <point x="289" y="280" type="line"/>
      <point x="216" y="544" type="line"/>
      <point x="6" y="544" type="line"/>
      <point x="226" y="8" type="line"/>
      <point x="226" y="88" type="line"/>
      <point x="207" y="38" type="line" smooth="yes"/>
      <point x="194" y="4"/>
      <point x="172" y="-11"/>
      <point x="131" y="-11" type="curve" smooth="yes"/>
      <point x="62" y="-11" type="line"/>
    </contour>
  </outline>
</glyph>
<glyph name="z" format="2">
  <advance width="549"/>
  <unicode hex="007A"/>
  <anchor x="273" y="0" name="bottom"/>
  <anchor x="273" y="272" name="center"/>
  <anchor x="273" y="544" name="top"/>
  <outline>
    <contour>
      <point x="27" y="0" type="line"/>
      <point x="519" y="0" type="line"/>
      <point x="519" y="153" type="line"/>
      <point x="272" y="153" type="line"/>
      <point x="508" y="411" type="line"/>
      <point x="508" y="544" type="line"/>
      <point x="45" y="544" type="line"/>
      <point x="45" y="391" type="line"/>
      <point x="263" y="391" type="line"/>
      <point x="27" y="136" type="line"/>
    </contour>
  </outline>
</glyph>
<glyph name="braceleft" format="2">
  <advance width="434"/>
  <unicode hex="007B"/>
  <outline>
    <contour>
      <point x="235" y="-167" type="curve" smooth="yes"/>
      <point x="405" y="-167" type="line"/>
      <point x="405" y="-24" type="line"/>
      <point x="285" y="-24" type="line"/>
      <point x="285" y="171" type="line" smooth="yes"/>
      <point x="285" y="234"/>
      <point x="264" y="284"/>
      <point x="196" y="309" type="curve"/>
      <point x="196" y="312" type="line"/>
      <point x="249" y="324"/>
      <point x="285" y="359"/>
      <point x="285" y="445" type="curve" smooth="yes"/>
      <point x="285" y="649" type="line"/>
      <point x="405" y="649" type="line"/>
      <point x="405" y="793" type="line"/>
      <point x="235" y="793" type="line" smooth="yes"/>
      <point x="148" y="793"/>
      <point x="107" y="738"/>
      <point x="107" y="667" type="curve" smooth="yes"/>
      <point x="107" y="452" type="line" smooth="yes"/>
      <point x="107" y="405"/>
      <point x="84" y="374"/>
      <point x="44" y="374" type="curve" smooth="yes"/>
      <point x="21" y="374" type="line"/>
      <point x="21" y="235" type="line"/>
      <point x="44" y="235" type="line" smooth="yes"/>
      <point x="82" y="235"/>
      <point x="107" y="207"/>
      <point x="107" y="159" type="curve" smooth="yes"/>
      <point x="107" y="-41" type="line" smooth="yes"/>
      <point x="107" y="-112"/>
      <point x="148" y="-167"/>
    </contour>
  </outline>
</glyph>
<glyph name="bar" format="2">
  <advance width="311"/>
  <unicode hex="007C"/>
  <outline>
    <contour>
      <point x="70" y="-67" type="line"/>
      <point x="241" y="-67" type="line"/>
      <point x="241" y="729" type="line"/>
      <point x="70" y="729" type="line"/>
    </contour>
  </outline>
</glyph>
<glyph name="asciitilde" format="2">
  <advance width="600"/>
  <unicode hex="007E"/>
  <outline>
    <contour>
      <point x="95" y="269" type="curve"/>
      <point x="186" y="269" type="line"/>
      <point x="183" y="292"/>
      <point x="197" y="328"/>
      <point x="235" y="328" type="curve" smooth="yes"/>
      <point x="290" y="328"/>
      <point x="331" y="261"/>
      <point x="430" y="261" type="curve" smooth="yes"/>
      <point x="496" y="261"/>
      <point x="579" y="307"/>
      <point x="569" y="465" type="curve"/>
      <point x="478" y="465" type="line"/>
      <point x="477" y="433"/>
      <point x="458" y="406"/>
      <point x="418" y="406" type="curve" smooth="yes"/>
      <point x="351" y="406"/>
      <point x="314" y="469"/>
      <point x="229" y="469" type="curve" smooth="yes"/>
      <point x="150" y="469"/>
      <point x="85" y="407"/>
    </contour>
  </outline>
</glyph>
<glyph name="cent" format="2">
  <advance width="605"/>
  <unicode hex="00A2"/>
  <outline>
    <contour>
      <point x="311" y="83" type="curve" smooth="yes"/>
      <point x="460" y="83"/>
      <point x="568" y="169"/>
      <point x="572" y="301" type="curve"/>
      <point x="387" y="301" type="line"/>
      <point x="382" y="264"/>
      <point x="358" y="237"/>
      <point x="311" y="237" type="curve" smooth="yes"/>
      <point x="261" y="237"/>
      <point x="228" y="275"/>
      <point x="228" y="365" type="curve" smooth="yes"/>
      <point x="228" y="444"/>
      <point x="253" y="493"/>
      <point x="312" y="493" type="curve" smooth="yes"/>
      <point x="350" y="493"/>
      <point x="378" y="473"/>
      <point x="385" y="429" type="curve"/>
      <point x="571" y="429" type="line"/>
      <point x="569" y="558"/>
      <point x="464" y="647"/>
      <point x="316" y="647" type="curve" smooth="yes"/>
      <point x="144" y="647"/>
      <point x="34" y="537"/>
      <point x="34" y="366" type="curve" smooth="yes"/>
      <point x="34" y="195"/>
      <point x="143" y="83"/>
    </contour>
    <contour>
      <point x="242" y="0" type="line"/>
      <point x="365" y="0" type="line"/>
      <point x="365" y="167" type="line"/>
      <point x="242" y="167" type="line"/>
    </contour>
    <contour>
      <point x="242" y="554" type="line"/>
      <point x="365" y="554" type="line"/>
      <point x="365" y="729" type="line"/>
      <point x="242" y="729" type="line"/>
    </contour>
  </outline>
</glyph>
<glyph name="sterling" format="2">
  <advance width="660"/>
  <unicode hex="00A3"/>
  <outline>
    <contour>
      <point x="94" y="146" type="curve"/>
      <point x="245" y="146" type="line"/>
      <point x="316" y="193"/>
      <point x="334" y="242"/>
      <point x="334" y="308" type="curve" smooth="yes"/>
      <point x="334" y="375"/>
      <point x="298" y="458"/>
      <point x="298" y="498" type="curve" smooth="yes"/>
      <point x="298" y="543"/>
      <point x="321" y="573"/>
      <point x="371" y="573" type="curve" smooth="yes"/>
      <point x="408" y="573"/>
      <point x="439" y="553"/>
      <point x="440" y="500" type="curve"/>
      <point x="618" y="500" type="line"/>
      <point x="621" y="643"/>
      <point x="530" y="738"/>
      <point x="365" y="738" type="curve" smooth="yes"/>
      <point x="211" y="738"/>
      <point x="109" y="646"/>
      <point x="109" y="507" type="curve" smooth="yes"/>
      <point x="109" y="439"/>
      <point x="142" y="365"/>
      <point x="142" y="297" type="curve" smooth="yes"/>
      <point x="142" y="244"/>
      <point x="131" y="208"/>
    </contour>
    <contour>
      <point x="40" y="0" type="line"/>
      <point x="611" y="0" type="line"/>
      <point x="611" y="228" type="line"/>
      <point x="453" y="228" type="line"/>
      <point x="453" y="149" type="line"/>
      <point x="40" y="149" type="line"/>
    </contour>
    <contour>
      <point x="50" y="288" type="line"/>
      <point x="468" y="288" type="line"/>
      <point x="468" y="425" type="line"/>
      <point x="50" y="425" type="line"/>
    </contour>
  </outline>
</glyph>
<glyph name="currency" format="2">
  <advance width="632"/>
  <unicode hex="00A4"/>
  <outline>
    <contour>
      <point x="129" y="60" type="line"/>
      <point x="228" y="158" type="line"/>
      <point x="254" y="151"/>
      <point x="280" y="146"/>
      <point x="316" y="146" type="curve" smooth="yes"/>
      <point x="344" y="146"/>
      <point x="377" y="150"/>
      <point x="404" y="158" type="curve"/>
      <point x="503" y="60" type="line"/>
      <point x="608" y="166" type="line"/>
      <point x="516" y="257" type="line"/>
      <point x="530" y="286"/>
      <point x="536" y="318"/>
      <point x="536" y="348" type="curve" smooth="yes"/>
      <point x="536" y="382"/>
      <point x="530" y="412"/>
      <point x="515" y="442" type="curve"/>
      <point x="607" y="532" type="line"/>
      <point x="502" y="639" type="line"/>
      <point x="402" y="538" type="line"/>
      <point x="372" y="548"/>
      <point x="340" y="552"/>
      <point x="316" y="552" type="curve" smooth="yes"/>
      <point x="290" y="552"/>
      <point x="256" y="547"/>
      <point x="230" y="538" type="curve"/>
      <point x="130" y="639" type="line"/>
      <point x="25" y="532" type="line"/>
      <point x="117" y="442" type="line"/>
      <point x="104" y="416"/>
      <point x="97" y="384"/>
      <point x="97" y="348" type="curve" smooth="yes"/>
      <point x="97" y="321"/>
      <point x="101" y="288"/>
      <point x="116" y="257" type="curve"/>
      <point x="24" y="166" type="line"/>
    </contour>
    <contour>
      <point x="316" y="290" type="curve" smooth="yes"/>
      <point x="282" y="290"/>
      <point x="254" y="312"/>
      <point x="254" y="348" type="curve" smooth="yes"/>
      <point x="254" y="383"/>
      <point x="282" y="408"/>
      <point x="316" y="408" type="curve" smooth="yes"/>
      <point x="351" y="408"/>
      <point x="379" y="383"/>
      <point x="379" y="348" type="curve" smooth="yes"/>
      <point x="379" y="313"/>
      <point x="350" y="290"/>
    </contour>
  </outline>
</glyph>
<glyph name="yen" format="2">
  <advance width="728"/>
  <unicode hex="00A5"/>
  <outline>
    <contour>
      <point x="267" y="0" type="line"/>
      <point x="462" y="0" type="line"/>
      <point x="462" y="83" type="line"/>
      <point x="635" y="83" type="line"/>
      <point x="635" y="214" type="line"/>
      <point x="462" y="214" type="line"/>
      <point x="462" y="276" type="line"/>
      <point x="635" y="276" type="line"/>
      <point x="635" y="408" type="line"/>
      <point x="543" y="408" type="line"/>
      <point x="709" y="729" type="line"/>
      <point x="502" y="729" type="line"/>
      <point x="367" y="435" type="line"/>
      <point x="358" y="435" type="line"/>
      <point x="228" y="729" type="line"/>
      <point x="19" y="729" type="line"/>
      <point x="188" y="408" type="line"/>
      <point x="94" y="408" type="line"/>
      <point x="94" y="276" type="line"/>
      <point x="267" y="276" type="line"/>
      <point x="267" y="214" type="line"/>
      <point x="94" y="214" type="line"/>
      <point x="94" y="83" type="line"/>
      <point x="267" y="83" type="line"/>
    </contour>
  </outline>
</glyph>
<glyph name="section" format="2">
  <advance width="584"/>
  <unicode hex="00A7"/>
  <outline>
    <contour>
      <point x="280" y="-10" type="curve" smooth="yes"/>
      <point x="432" y="-10"/>
      <point x="533" y="56"/>
      <point x="533" y="165" type="curve" smooth="yes"/>
      <point x="533" y="207"/>
      <point x="517" y="244"/>
      <point x="485" y="276" type="curve"/>
      <point x="519" y="297"/>
      <point x="542" y="333"/>
      <point x="542" y="373" type="curve" smooth="yes"/>
      <point x="542" y="465"/>
      <point x="486" y="503"/>
      <point x="355" y="529" type="curve" smooth="yes"/>
      <point x="288" y="542"/>
      <point x="254" y="550"/>
      <point x="254" y="576" type="curve" smooth="yes"/>
      <point x="254" y="599"/>
      <point x="273" y="607"/>
      <point x="301" y="607" type="curve" smooth="yes"/>
      <point x="333" y="607"/>
      <point x="352" y="594"/>
      <point x="353" y="568" type="curve"/>
      <point x="541" y="568" type="line"/>
      <point x="531" y="670"/>
      <point x="442" y="739"/>
      <point x="307" y="739" type="curve" smooth="yes"/>
      <point x="161" y="739"/>
      <point x="63" y="670"/>
      <point x="63" y="565" type="curve" smooth="yes"/>
      <point x="63" y="521"/>
      <point x="77" y="485"/>
      <point x="115" y="457" type="curve"/>
      <point x="75" y="429"/>
      <point x="54" y="392"/>
      <point x="54" y="348" type="curve" smooth="yes"/>
      <point x="54" y="254"/>
      <point x="130" y="225"/>
      <point x="235" y="202" type="curve" smooth="yes"/>
      <point x="320" y="184"/>
      <point x="339" y="177"/>
      <point x="339" y="152" type="curve" smooth="yes"/>
      <point x="339" y="131"/>
      <point x="322" y="122"/>
      <point x="285" y="122" type="curve" smooth="yes"/>
      <point x="248" y="122"/>
      <point x="222" y="136"/>
      <point x="219" y="171" type="curve"/>
      <point x="31" y="171" type="line"/>
      <point x="33" y="63"/>
      <point x="129" y="-10"/>
    </contour>
    <contour>
      <point x="345" y="330" type="curve"/>
      <point x="325" y="337"/>
      <point x="301" y="343"/>
      <point x="279" y="348" type="curve" smooth="yes"/>
      <point x="244" y="357"/>
      <point x="232" y="367"/>
      <point x="232" y="385" type="curve" smooth="yes"/>
      <point x="232" y="391"/>
      <point x="234" y="399"/>
      <point x="238" y="407" type="curve"/>
      <point x="257" y="401"/>
      <point x="275" y="396"/>
      <point x="294" y="391" type="curve" smooth="yes"/>
      <point x="331" y="382"/>
      <point x="350" y="373"/>
      <point x="350" y="350" type="curve" smooth="yes"/>
      <point x="350" y="342"/>
      <point x="349" y="336"/>
    </contour>
  </outline>
</glyph>
<glyph name="ordfeminine" format="2">
  <advance width="463"/>
  <unicode hex="00AA"/>
  <outline>
    <contour>
      <point x="171" y="370" type="curve" smooth="yes"/>
      <point x="223" y="370"/>
      <point x="260" y="396"/>
      <point x="275" y="430" type="curve"/>
      <point x="281" y="430" type="line"/>
      <point x="281" y="377" type="line"/>
      <point x="409" y="377" type="line"/>
      <point x="409" y="731" type="line"/>
      <point x="286" y="731" type="line"/>
      <point x="281" y="678" type="line"/>
      <point x="275" y="678" type="line"/>
      <point x="259" y="714"/>
      <point x="221" y="738"/>
      <point x="171" y="738" type="curve" smooth="yes"/>
      <point x="88" y="738"/>
      <point x="33" y="679"/>
      <point x="33" y="554" type="curve" smooth="yes"/>
      <point x="33" y="429"/>
      <point x="88" y="370"/>
    </contour>
    <contour>
      <point x="222" y="472" type="curve" smooth="yes"/>
      <point x="186" y="472"/>
      <point x="163" y="496"/>
      <point x="163" y="554" type="curve" smooth="yes"/>
      <point x="163" y="613"/>
      <point x="186" y="636"/>
      <point x="222" y="636" type="curve" smooth="yes"/>
      <point x="264" y="636"/>
      <point x="280" y="602"/>
      <point x="280" y="568" type="curve" smooth="yes"/>
      <point x="280" y="540" type="line" smooth="yes"/>
      <point x="280" y="506"/>
      <point x="264" y="472"/>
    </contour>
  </outline>
</glyph>
<glyph name="guillemetleft" format="2">
  <advance width="597"/>
  <unicode hex="00AB"/>
  <outline>
    <contour>
      <point x="151" y="64" type="line"/>
      <point x="315" y="64" type="line"/>
      <point x="208" y="305" type="line"/>
      <point x="315" y="544" type="line"/>
      <point x="151" y="544" type="line"/>
      <point x="22" y="305" type="line"/>
    </contour>
    <contour>
      <point x="410" y="64" type="line"/>
      <point x="574" y="64" type="line"/>
      <point x="467" y="305" type="line"/>
      <point x="574" y="544" type="line"/>
      <point x="410" y="544" type="line"/>
      <point x="281" y="305" type="line"/>
    </contour>
  </outline>
</glyph>
<glyph name="logicalnot" format="2">
  <advance width="600"/>
  <unicode hex="00AC"/>
  <outline>
    <contour>
      <point x="383" y="139" type="line"/>
      <point x="527" y="139" type="line"/>
      <point x="527" y="428" type="line"/>
      <point x="52" y="428" type="line"/>
      <point x="52" y="281" type="line"/>
      <point x="383" y="281" type="line"/>
    </contour>
  </outline>
</glyph>
<glyph name="registered" format="2">
  <advance width="615"/>
  <unicode hex="00AE"/>
  <outline>
    <contour>
      <point x="307" y="207" type="curve" smooth="yes"/>
      <point x="457" y="207"/>
      <point x="576" y="315"/>
      <point x="576" y="473" type="curve" smooth="yes"/>
      <point x="576" y="632"/>
      <point x="457" y="738"/>
      <point x="307" y="738" type="curve" smooth="yes"/>
      <point x="157" y="738"/>
      <point x="39" y="632"/>
      <point x="39" y="473" type="curve" smooth="yes"/>
      <point x="39" y="315"/>
      <point x="157" y="207"/>
    </contour>
    <contour>
      <point x="307" y="258" type="curve" smooth="yes"/>
      <point x="190" y="258"/>
      <point x="93" y="343"/>
      <point x="93" y="471" type="curve" smooth="yes"/>
      <point x="93" y="600"/>
      <point x="190" y="687"/>
      <point x="308" y="687" type="curve" smooth="yes"/>
      <point x="427" y="687"/>
      <point x="523" y="600"/>
      <point x="523" y="472" type="curve" smooth="yes"/>
      <point x="523" y="344"/>
      <point x="427" y="258"/>
    </contour>
    <contour>
      <point x="192" y="343" type="line"/>
      <point x="280" y="343" type="line"/>
      <point x="280" y="541" type="line"/>
      <point x="319" y="541" type="line" smooth="yes"/>
      <point x="338" y="541"/>
      <point x="350" y="534"/>
      <point x="350" y="516" type="curve" smooth="yes"/>
      <point x="350" y="502"/>
      <point x="341" y="492"/>
      <point x="319" y="492" type="curve" smooth="yes"/>
      <point x="266" y="492" type="line"/>
      <point x="266" y="436" type="line"/>
      <point x="318" y="436" type="line" smooth="yes"/>
      <point x="341" y="436"/>
      <point x="348" y="425"/>
      <point x="348" y="407" type="curve" smooth="yes"/>
      <point x="348" y="373" type="line" smooth="yes"/>
      <point x="348" y="358"/>
      <point x="349" y="349"/>
      <point x="352" y="343" type="curve"/>
      <point x="441" y="343" type="line"/>
      <point x="437" y="352"/>
      <point x="437" y="363"/>
      <point x="437" y="374" type="curve" smooth="yes"/>
      <point x="437" y="417" type="line" smooth="yes"/>
      <point x="437" y="446"/>
      <point x="428" y="461"/>
      <point x="398" y="468" type="curve"/>
      <point x="398" y="469" type="line"/>
      <point x="424" y="478"/>
      <point x="442" y="502"/>
      <point x="442" y="533" type="curve" smooth="yes"/>
      <point x="442" y="576"/>
      <point x="410" y="607"/>
      <point x="341" y="607" type="curve" smooth="yes"/>
      <point x="192" y="607" type="line"/>
    </contour>
  </outline>
</glyph>
<glyph name="degree" format="2">
  <advance width="470"/>
  <unicode hex="00B0"/>
  <outline>
    <contour>
      <point x="235" y="386" type="curve" smooth="yes"/>
      <point x="346" y="386"/>
      <point x="427" y="457"/>
      <point x="427" y="563" type="curve" smooth="yes"/>
      <point x="427" y="669"/>
      <point x="346" y="739"/>
      <point x="235" y="739" type="curve" smooth="yes"/>
      <point x="124" y="739"/>
      <point x="43" y="669"/>
      <point x="43" y="563" type="curve" smooth="yes"/>
      <point x="43" y="457"/>
      <point x="124" y="386"/>
    </contour>
    <contour>
      <point x="235" y="506" type="curve" smooth="yes"/>
      <point x="203" y="506"/>
      <point x="177" y="527"/>
      <point x="177" y="563" type="curve" smooth="yes"/>
      <point x="177" y="599"/>
      <point x="203" y="619"/>
      <point x="235" y="619" type="curve" smooth="yes"/>
      <point x="267" y="619"/>
      <point x="293" y="599"/>
      <point x="293" y="563" type="curve" smooth="yes"/>
      <point x="293" y="527"/>
      <point x="267" y="506"/>
    </contour>
  </outline>
</glyph>
<glyph name="plusminus" format="2">
  <advance width="600"/>
  <unicode hex="00B1"/>
  <outline>
    <contour>
      <point x="223" y="194" type="line"/>
      <point x="376" y="194" type="line"/>
      <point x="376" y="326" type="line"/>
      <point x="556" y="326" type="line"/>
      <point x="556" y="475" type="line"/>
      <point x="376" y="475" type="line"/>
      <point x="376" y="607" type="line"/>
      <point x="223" y="607" type="line"/>
      <point x="223" y="475" type="line"/>
      <point x="43" y="475" type="line"/>
      <point x="43" y="326" type="line"/>
      <point x="223" y="326" type="line"/>
    </contour>
    <contour>
      <point x="43" y="0" type="line"/>
      <point x="556" y="0" type="line"/>
      <point x="556" y="132" type="line"/>
      <point x="43" y="132" type="line"/>
    </contour>
  </outline>
</glyph>
<glyph name="paragraph" format="2">
  <advance width="746"/>
  <unicode hex="00B6"/>
  <outline>
    <contour>
      <point x="254" y="0" type="line"/>
      <point x="382" y="0" type="line"/>
      <point x="382" y="569" type="line"/>
      <point x="465" y="569" type="line"/>
      <point x="465" y="0" type="line"/>
      <point x="644" y="0" type="line"/>
      <point x="644" y="569" type="line"/>
      <point x="717" y="569" type="line"/>
      <point x="717" y="729" type="line"/>
      <point x="254" y="729" type="line" smooth="yes"/>
      <point x="112" y="729"/>
      <point x="30" y="657"/>
      <point x="30" y="528" type="curve" smooth="yes"/>
      <point x="30" y="409"/>
      <point x="113" y="332"/>
      <point x="254" y="337" type="curve"/>
    </contour>
  </outline>
</glyph>
<glyph name="periodcentered" format="2">
  <advance width="234"/>
  <unicode hex="00B7"/>
  <outline>
    <contour>
      <point x="117" y="181" type="curve" smooth="yes"/>
      <point x="175" y="181"/>
      <point x="214" y="222"/>
      <point x="214" y="277" type="curve" smooth="yes"/>
      <point x="214" y="332"/>
      <point x="175" y="373"/>
      <point x="117" y="373" type="curve" smooth="yes"/>
      <point x="61" y="373"/>
      <point x="20" y="332"/>
      <point x="20" y="277" type="curve" smooth="yes"/>
      <point x="20" y="222"/>
      <point x="61" y="181"/>
    </contour>
  </outline>
</glyph>
<glyph name="ordmasculine" format="2">
  <advance width="422"/>
  <unicode hex="00BA"/>
  <anchor x="211" y="377" name="bottom"/>
  <anchor x="211" y="554" name="center"/>
  <anchor x="369" y="384" name="ogonek"/>
  <anchor x="211" y="731" name="top"/>
  <anchor x="396" y="731" name="topright"/>
  <outline>
    <contour>
      <point x="211" y="370" type="curve" smooth="yes"/>
      <point x="328" y="370"/>
      <point x="393" y="444"/>
      <point x="393" y="554" type="curve" smooth="yes"/>
      <point x="393" y="671"/>
      <point x="320" y="738"/>
      <point x="211" y="738" type="curve" smooth="yes"/>
      <point x="94" y="738"/>
      <point x="29" y="664"/>
      <point x="29" y="554" type="curve" smooth="yes"/>
      <point x="29" y="437"/>
      <point x="102" y="370"/>
    </contour>
    <contour>
      <point x="211" y="472" type="curve" smooth="yes"/>
      <point x="179" y="472"/>
      <point x="158" y="495"/>
      <point x="158" y="554" type="curve" smooth="yes"/>
      <point x="158" y="613"/>
      <point x="179" y="636"/>
      <point x="211" y="636" type="curve" smooth="yes"/>
      <point x="243" y="636"/>
      <point x="264" y="614"/>
      <point x="264" y="554" type="curve" smooth="yes"/>
      <point x="264" y="494"/>
      <point x="243" y="472"/>
    </contour>
  </outline>
</glyph>
<glyph name="AE" format="2">
  <advance width="982"/>
  <unicode hex="00C6"/>
  <anchor x="491" y="0" name="bottom"/>
  <anchor x="491" y="729" name="top"/>
  <outline>
    <contour>
      <point x="11" y="0" type="line"/>
      <point x="222" y="0" type="line"/>
      <point x="258" y="130" type="line"/>
      <point x="507" y="130" type="line"/>
      <point x="543" y="0" type="line"/>
      <point x="948" y="0" type="line"/>
      <point x="948" y="172" type="line"/>
      <point x="700" y="172" type="line"/>
      <point x="664" y="288" type="line"/>
      <point x="895" y="288" type="line"/>
      <point x="895" y="449" type="line"/>
      <point x="614" y="449" type="line"/>
      <point x="581" y="557" type="line"/>
      <point x="945" y="557" type="line"/>
      <point x="945" y="729" type="line"/>
      <point x="238" y="729" type="line"/>
    </contour>
    <contour>
      <point x="300" y="284" type="line"/>
      <point x="354" y="482" type="line"/>
      <point x="379" y="577" type="line"/>
      <point x="386" y="577" type="line"/>
      <point x="411" y="482" type="line"/>
      <point x="465" y="284" type="line"/>
    </contour>
  </outline>
</glyph>
<glyph name="multiply" format="2">
  <advance width="600"/>
  <unicode hex="00D7"/>
  <outline>
    <contour>
      <point x="171" y="129" type="line"/>
      <point x="302" y="260" type="line"/>
      <point x="432" y="129" type="line"/>
      <point x="533" y="230" type="line"/>
      <point x="403" y="361" type="line"/>
      <point x="533" y="491" type="line"/>
      <point x="432" y="592" type="line"/>
      <point x="302" y="462" type="line"/>
      <point x="171" y="592" type="line"/>
      <point x="70" y="491" type="line"/>
      <point x="201" y="361" type="line"/>
      <point x="70" y="230" type="line"/>
    </contour>
  </outline>
</glyph>
<glyph name="germandbls" format="2">
  <advance width="699"/>
  <unicode hex="00DF"/>
  <outline>
    <contour>
      <point x="114" y="0" type="line"/>
      <point x="305" y="0" type="line"/>
      <point x="305" y="492" type="line" smooth="yes"/>
      <point x="305" y="545"/>
      <point x="336" y="572"/>
      <point x="384" y="572" type="curve" smooth="yes"/>
      <point x="431" y="572"/>
      <point x="455" y="542"/>
      <point x="455" y="505" type="curve" smooth="yes"/>
      <point x="455" y="465"/>
      <point x="424" y="435"/>
      <point x="374" y="435" type="curve" smooth="yes"/>
      <point x="358" y="435" type="line"/>
      <point x="358" y="316" type="line"/>
      <point x="396" y="316" type="line" smooth="yes"/>
      <point x="453" y="316"/>
      <point x="484" y="294"/>
      <point x="484" y="238" type="curve" smooth="yes"/>
      <point x="484" y="180"/>
      <point x="452" y="152"/>
      <point x="394" y="152" type="curve" smooth="yes"/>
      <point x="358" y="152" type="line"/>
      <point x="358" y="0" type="line"/>
      <point x="415" y="0" type="line" smooth="yes"/>
      <point x="594" y="0"/>
      <point x="679" y="89"/>
      <point x="679" y="216" type="curve" smooth="yes"/>
      <point x="679" y="315"/>
      <point x="618" y="380"/>
      <point x="541" y="391" type="curve"/>
      <point x="541" y="399" type="line"/>
      <point x="595" y="416"/>
      <point x="630" y="473"/>
      <point x="630" y="541" type="curve" smooth="yes"/>
      <point x="630" y="659"/>
      <point x="536" y="739"/>
      <point x="386" y="739" type="curve" smooth="yes"/>
      <point x="236" y="739"/>
      <point x="114" y="666"/>
      <point x="114" y="467" type="curve" smooth="yes"/>
    </contour>
    <contour>
      <point x="17" y="394" type="line"/>
      <point x="238" y="394" type="line"/>
      <point x="238" y="544" type="line"/>
      <point x="17" y="544" type="line"/>
    </contour>
  </outline>
</glyph>
<glyph name="ae" format="2">
  <advance width="916"/>
  <unicode hex="00E6"/>
  <outline>
    <contour>
      <point x="206" y="-10" type="curve" smooth="yes"/>
      <point x="294" y="-10"/>
      <point x="373" y="27"/>
      <point x="404" y="75" type="curve"/>
      <point x="410" y="75" type="line"/>
      <point x="447" y="24"/>
      <point x="518" y="-10"/>
      <point x="616" y="-10" type="curve" smooth="yes"/>
      <point x="761" y="-10"/>
      <point x="869" y="58"/>
      <point x="882" y="172" type="curve"/>
      <point x="702" y="172" type="line"/>
      <point x="692" y="148"/>
      <point x="668" y="132"/>
      <point x="624" y="132" type="curve" smooth="yes"/>
      <point x="570" y="132"/>
      <point x="532" y="164"/>
      <point x="532" y="222" type="curve" smooth="yes"/>
      <point x="532" y="332" type="line"/>
      <point x="537" y="379"/>
      <point x="573" y="410"/>
      <point x="621" y="410" type="curve" smooth="yes"/>
      <point x="668" y="410"/>
      <point x="701" y="385"/>
      <point x="704" y="331" type="curve"/>
      <point x="517" y="331" type="line"/>
      <point x="517" y="221" type="line"/>
      <point x="886" y="221" type="line"/>
      <point x="911" y="421"/>
      <point x="814" y="554"/>
      <point x="629" y="554" type="curve" smooth="yes"/>
      <point x="570" y="554"/>
      <point x="507" y="536"/>
      <point x="472" y="505" type="curve"/>
      <point x="463" y="505" type="line"/>
      <point x="432" y="534"/>
      <point x="368" y="554"/>
      <point x="299" y="554" type="curve" smooth="yes"/>
      <point x="139" y="554"/>
      <point x="38" y="475"/>
      <point x="38" y="357" type="curve"/>
      <point x="224" y="357" type="line"/>
      <point x="224" y="388"/>
      <point x="247" y="408"/>
      <point x="287" y="408" type="curve" smooth="yes"/>
      <point x="319" y="408"/>
      <point x="348" y="398"/>
      <point x="348" y="346" type="curve" smooth="yes"/>
      <point x="348" y="183" type="line" smooth="yes"/>
      <point x="348" y="145"/>
      <point x="315" y="120"/>
      <point x="271" y="120" type="curve" smooth="yes"/>
      <point x="239" y="120"/>
      <point x="218" y="136"/>
      <point x="218" y="165" type="curve" smooth="yes"/>
      <point x="218" y="199"/>
      <point x="243" y="221"/>
      <point x="305" y="221" type="curve" smooth="yes"/>
      <point x="444" y="221" type="line"/>
      <point x="444" y="331" type="line"/>
      <point x="259" y="331" type="line" smooth="yes"/>
      <point x="115" y="331"/>
      <point x="24" y="264"/>
      <point x="24" y="147" type="curve" smooth="yes"/>
      <point x="24" y="53"/>
      <point x="95" y="-10"/>
    </contour>
  </outline>
</glyph>
<glyph name="eth" format="2">
  <advance width="575"/>
  <unicode hex="00F0"/>
  <outline>
    <contour>
      <point x="274" y="-9" type="curve" smooth="yes"/>
      <point x="450" y="-9"/>
      <point x="550" y="101"/>
      <point x="550" y="282" type="curve" smooth="yes"/>
      <point x="550" y="433"/>
      <point x="481" y="605"/>
      <point x="370" y="729" type="curve"/>
      <point x="148" y="729" type="line"/>
      <point x="240" y="639"/>
      <point x="319" y="534"/>
      <point x="360" y="432" type="curve"/>
      <point x="350" y="429" type="line"/>
      <point x="329" y="454"/>
      <point x="286" y="470"/>
      <point x="242" y="470" type="curve" smooth="yes"/>
      <point x="110" y="470"/>
      <point x="25" y="375"/>
      <point x="25" y="233" type="curve" smooth="yes"/>
      <point x="25" y="82"/>
      <point x="123" y="-9"/>
    </contour>
    <contour>
      <point x="288" y="148" type="curve" smooth="yes"/>
      <point x="244" y="148"/>
      <point x="214" y="178"/>
      <point x="214" y="242" type="curve" smooth="yes"/>
      <point x="214" y="299"/>
      <point x="238" y="337"/>
      <point x="288" y="337" type="curve" smooth="yes"/>
      <point x="333" y="337"/>
      <point x="363" y="307"/>
      <point x="363" y="243" type="curve" smooth="yes"/>
      <point x="363" y="186"/>
      <point x="339" y="148"/>
    </contour>
    <contour>
      <point x="129" y="496" type="line"/>
      <point x="534" y="587" type="line"/>
      <point x="534" y="707" type="line"/>
      <point x="129" y="616" type="line"/>
    </contour>
  </outline>
</glyph>
<glyph name="divide" format="2">
  <advance width="600"/>
  <unicode hex="00F7"/>
  <outline>
    <contour>
      <point x="44" y="286" type="line"/>
      <point x="557" y="286" type="line"/>
      <point x="557" y="435" type="line"/>
      <point x="44" y="435" type="line"/>
    </contour>
    <contour>
      <point x="218" y="99" type="line"/>
      <point x="383" y="99" type="line"/>
      <point x="383" y="231" type="line"/>
      <point x="218" y="231" type="line"/>
    </contour>
    <contour>
      <point x="218" y="490" type="line"/>
      <point x="383" y="490" type="line"/>
      <point x="383" y="623" type="line"/>
      <point x="218" y="623" type="line"/>
    </contour>
  </outline>
</glyph>
<glyph name="idotless" format="2">
  <advance width="299"/>
  <unicode hex="0131"/>
  <anchor x="150" y="0" name="bottom"/>
  <anchor x="245" y="0" name="ogonek"/>
  <anchor x="150" y="544" name="top"/>
  <outline>
    <contour>
      <point x="54" y="0" type="line"/>
      <point x="245" y="0" type="line"/>
      <point x="245" y="544" type="line"/>
      <point x="54" y="544" type="line"/>
    </contour>
  </outline>
</glyph>
<glyph name="Eng" format="2">
  <advance width="790"/>
  <unicode hex="014A"/>
  <outline>
    <contour>
      <point x="59" y="0" type="line"/>
      <point x="266" y="0" type="line"/>
      <point x="266" y="236" type="line"/>
      <point x="259" y="431" type="line"/>
      <point x="265" y="431" type="line"/>
      <point x="500" y="0" type="line"/>
      <point x="731" y="0" type="line"/>
      <point x="731" y="729" type="line"/>
      <point x="536" y="729" type="line"/>
      <point x="536" y="504" type="line"/>
      <point x="543" y="289" type="line"/>
      <point x="537" y="289" type="line"/>
      <point x="304" y="729" type="line"/>
      <point x="59" y="729" type="line"/>
    </contour>
    <contour>
      <point x="450" y="-167" type="line"/>
      <point x="546" y="-167" type="line" smooth="yes"/>
      <point x="681" y="-167"/>
      <point x="731" y="-107"/>
      <point x="731" y="-4" type="curve" smooth="yes"/>
      <point x="731" y="19" type="line"/>
      <point x="540" y="19" type="line"/>
      <point x="540" y="-7" type="line" smooth="yes"/>
      <point x="540" y="-41"/>
      <point x="525" y="-54"/>
      <point x="489" y="-54" type="curve" smooth="yes"/>
      <point x="450" y="-54" type="line"/>
    </contour>
  </outline>
</glyph>
<glyph name="eng" format="2">
  <advance width="649"/>
  <unicode hex="014B"/>
  <outline>
    <contour>
      <point x="323" y="-167" type="line"/>
      <point x="419" y="-167" type="line" smooth="yes"/>
      <point x="554" y="-167"/>
      <point x="604" y="-97"/>
      <point x="604" y="25" type="curve" smooth="yes"/>
      <point x="604" y="333" type="line" smooth="yes"/>
      <point x="604" y="494"/>
      <point x="521" y="554"/>
      <point x="414" y="554" type="curve" smooth="yes"/>
      <point x="342" y="554"/>
      <point x="279" y="521"/>
      <point x="253" y="455" type="curve"/>
      <point x="245" y="455" type="line"/>
      <point x="238" y="544" type="line"/>
      <point x="54" y="544" type="line"/>
      <point x="54" y="0" type="line"/>
      <point x="245" y="0" type="line"/>
      <point x="245" y="308" type="line" smooth="yes"/>
      <point x="245" y="352"/>
      <point x="274" y="400"/>
      <point x="334" y="400" type="curve" smooth="yes"/>
      <point x="391" y="400"/>
      <point x="413" y="363"/>
      <point x="413" y="291" type="curve" smooth="yes"/>
      <point x="413" y="21" type="line" smooth="yes"/>
      <point x="413" y="-19"/>
      <point x="398" y="-34"/>
      <point x="362" y="-34" type="curve" smooth="yes"/>
      <point x="323" y="-34" type="line"/>
    </contour>
  </outline>
</glyph>
<glyph name="OE" format="2">
  <advance width="1106"/>
  <unicode hex="0152"/>
  <anchor x="553" y="0" name="bottom"/>
  <anchor x="553" y="729" name="top"/>
  <outline>
    <contour>
      <point x="408" y="-10" type="curve" smooth="yes"/>
      <point x="445" y="-10"/>
      <point x="492" y="-6"/>
      <point x="526" y="0" type="curve"/>
      <point x="1072" y="0" type="line"/>
      <point x="1072" y="172" type="line"/>
      <point x="722" y="172" type="line"/>
      <point x="722" y="288" type="line"/>
      <point x="1019" y="288" type="line"/>
      <point x="1019" y="449" type="line"/>
      <point x="722" y="449" type="line"/>
      <point x="722" y="557" type="line"/>
      <point x="1072" y="557" type="line"/>
      <point x="1072" y="729" type="line"/>
      <point x="526" y="729" type="line"/>
      <point x="492" y="735"/>
      <point x="445" y="739"/>
      <point x="408" y="739" type="curve" smooth="yes"/>
      <point x="175" y="739"/>
      <point x="28" y="595"/>
      <point x="28" y="365" type="curve" smooth="yes"/>
      <point x="28" y="129"/>
      <point x="169" y="-10"/>
    </contour>
    <contour>
      <point x="430" y="162" type="curve" smooth="yes"/>
      <point x="305" y="162"/>
      <point x="236" y="234"/>
      <point x="236" y="365" type="curve" smooth="yes"/>
      <point x="236" y="495"/>
      <point x="305" y="567"/>
      <point x="430" y="567" type="curve" smooth="yes"/>
      <point x="465" y="567"/>
      <point x="492" y="563"/>
      <point x="519" y="554" type="curve"/>
      <point x="519" y="175" type="line"/>
      <point x="492" y="166"/>
      <point x="465" y="162"/>
    </contour>
  </outline>
</glyph>
<glyph name="oe" format="2">
  <advance width="967"/>
  <unicode hex="0153"/>
  <anchor x="483" y="0" name="bottom"/>
  <anchor x="483" y="544" name="top"/>
  <outline>
    <contour>
      <point x="304" y="-10" type="curve" smooth="yes"/>
      <point x="405" y="-10"/>
      <point x="480" y="26"/>
      <point x="527" y="87" type="curve"/>
      <point x="451" y="87" type="line"/>
      <point x="497" y="26"/>
      <point x="574" y="-10"/>
      <point x="675" y="-10" type="curve" smooth="yes"/>
      <point x="818" y="-10"/>
      <point x="922" y="65"/>
      <point x="934" y="177" type="curve"/>
      <point x="755" y="177" type="line"/>
      <point x="747" y="150"/>
      <point x="715" y="132"/>
      <point x="675" y="132" type="curve" smooth="yes"/>
      <point x="621" y="132"/>
      <point x="584" y="164"/>
      <point x="584" y="222" type="curve" smooth="yes"/>
      <point x="584" y="332" type="line" smooth="yes"/>
      <point x="584" y="380"/>
      <point x="616" y="413"/>
      <point x="668" y="413" type="curve" smooth="yes"/>
      <point x="716" y="413"/>
      <point x="750" y="384"/>
      <point x="750" y="334" type="curve"/>
      <point x="776" y="341" type="line"/>
      <point x="568" y="341" type="line"/>
      <point x="568" y="227" type="line"/>
      <point x="938" y="227" type="line"/>
      <point x="958" y="415"/>
      <point x="865" y="554"/>
      <point x="668" y="554" type="curve" smooth="yes"/>
      <point x="574" y="554"/>
      <point x="498" y="517"/>
      <point x="450" y="453" type="curve"/>
      <point x="530" y="453" type="line"/>
      <point x="481" y="520"/>
      <point x="401" y="554"/>
      <point x="304" y="554" type="curve" smooth="yes"/>
      <point x="125" y="554"/>
      <point x="25" y="441"/>
      <point x="25" y="272" type="curve" smooth="yes"/>
      <point x="25" y="92"/>
      <point x="137" y="-10"/>
    </contour>
    <contour>
      <point x="304" y="143" type="curve" smooth="yes"/>
      <point x="252" y="143"/>
      <point x="218" y="179"/>
      <point x="218" y="272" type="curve" smooth="yes"/>
      <point x="218" y="365"/>
      <point x="252" y="401"/>
      <point x="304" y="401" type="curve" smooth="yes"/>
      <point x="356" y="401"/>
      <point x="390" y="365"/>
      <point x="390" y="272" type="curve" smooth="yes"/>
      <point x="390" y="179"/>
      <point x="356" y="143"/>
    </contour>
  </outline>
</glyph>
<glyph name="florin" format="2">
  <advance width="471"/>
  <unicode hex="0192"/>
  <outline>
    <contour>
      <point x="30" y="-167" type="line"/>
      <point x="116" y="-167" type="line" smooth="yes"/>
      <point x="254" y="-167"/>
      <point x="331" y="-102"/>
      <point x="331" y="33" type="curve" smooth="yes"/>
      <point x="331" y="529" type="line" smooth="yes"/>
      <point x="331" y="575"/>
      <point x="357" y="586"/>
      <point x="395" y="586" type="curve" smooth="yes"/>
      <point x="441" y="586" type="line"/>
      <point x="441" y="729" type="line"/>
      <point x="355" y="729" type="line" smooth="yes"/>
      <point x="217" y="729"/>
      <point x="140" y="664"/>
      <point x="140" y="529" type="curve" smooth="yes"/>
      <point x="140" y="33" type="line" smooth="yes"/>
      <point x="140" y="-13"/>
      <point x="114" y="-24"/>
      <point x="76" y="-24" type="curve" smooth="yes"/>
      <point x="30" y="-24" type="line"/>
    </contour>
    <contour>
      <point x="56" y="320" type="line"/>
      <point x="426" y="320" type="line"/>
      <point x="426" y="460" type="line"/>
      <point x="56" y="460" type="line"/>
    </contour>
  </outline>
</glyph>
<glyph name="jdotless" format="2">
  <advance width="299"/>
  <unicode hex="0237"/>
  <anchor x="149" y="-250" name="bottom"/>
  <anchor x="149" y="544" name="top"/>
  <outline>
    <contour>
      <point x="-36" y="-167" type="line"/>
      <point x="60" y="-167" type="line" smooth="yes"/>
      <point x="195" y="-167"/>
      <point x="245" y="-97"/>
      <point x="245" y="25" type="curve" smooth="yes"/>
      <point x="245" y="544" type="line"/>
      <point x="54" y="544" type="line"/>
      <point x="54" y="21" type="line" smooth="yes"/>
      <point x="54" y="-19"/>
      <point x="39" y="-34"/>
      <point x="3" y="-34" type="curve" smooth="yes"/>
      <point x="-36" y="-34" type="line"/>
    </contour>
  </outline>
</glyph>
<glyph name="circumflexcomb" format="2">
  <unicode hex="0302"/>
  <anchor x="247" y="678" name="_top"/>
  <outline>
    <contour>
      <point x="40" y="735" type="line"/>
      <point x="198" y="735" type="line"/>
      <point x="247" y="801" type="line"/>
      <point x="296" y="735" type="line"/>
      <point x="454" y="735" type="line"/>
      <point x="339" y="884" type="line"/>
      <point x="155" y="884" type="line"/>
    </contour>
  </outline>
</glyph>
<glyph name="tildecomb" format="2">
  <unicode hex="0303"/>
  <anchor x="258" y="678" name="_top"/>
  <outline>
    <contour>
      <point x="335" y="736" type="curve" smooth="yes"/>
      <point x="389" y="736"/>
      <point x="439" y="759"/>
      <point x="474" y="846" type="curve"/>
      <point x="390" y="894" type="line"/>
      <point x="372" y="868"/>
      <point x="349" y="857"/>
      <point x="324" y="857" type="curve" smooth="yes"/>
      <point x="280" y="857"/>
      <point x="235" y="892"/>
      <point x="176" y="892" type="curve" smooth="yes"/>
      <point x="128" y="892"/>
      <point x="82" y="869"/>
      <point x="40" y="782" type="curve"/>
      <point x="123" y="734" type="line"/>
      <point x="138" y="755"/>
      <point x="158" y="771"/>
      <point x="188" y="771" type="curve" smooth="yes"/>
      <point x="233" y="771"/>
      <point x="269" y="736"/>
    </contour>
  </outline>
</glyph>
<glyph name="macroncomb" format="2">
  <unicode hex="0304"/>
  <anchor x="242" y="678" name="_top"/>
  <outline>
    <contour>
      <point x="40" y="735" type="line"/>
      <point x="443" y="735" type="line"/>
      <point x="443" y="874" type="line"/>
      <point x="40" y="874" type="line"/>
    </contour>
  </outline>
</glyph>
<glyph name="brevecomb" format="2">
  <unicode hex="0306"/>
  <anchor x="219" y="678" name="_top"/>
  <outline>
    <contour>
      <point x="219" y="729" type="curve" smooth="yes"/>
      <point x="326" y="729"/>
      <point x="398" y="791"/>
      <point x="398" y="884" type="curve"/>
      <point x="278" y="884" type="line"/>
      <point x="278" y="846"/>
      <point x="253" y="828"/>
      <point x="219" y="828" type="curve" smooth="yes"/>
      <point x="185" y="828"/>
      <point x="160" y="846"/>
      <point x="160" y="884" type="curve"/>
      <point x="40" y="884" type="line"/>
      <point x="40" y="791"/>
      <point x="112" y="729"/>
    </contour>
  </outline>
</glyph>
<glyph name="dotaccentcomb" format="2">
  <unicode hex="0307"/>
  <anchor x="137" y="678" name="_top"/>
  <outline>
    <contour>
      <point x="137" y="723" type="curve" smooth="yes"/>
      <point x="193" y="723"/>
      <point x="234" y="753"/>
      <point x="234" y="806" type="curve" smooth="yes"/>
      <point x="234" y="859"/>
      <point x="193" y="889"/>
      <point x="137" y="889" type="curve" smooth="yes"/>
      <point x="81" y="889"/>
      <point x="40" y="859"/>
      <point x="40" y="806" type="curve" smooth="yes"/>
      <point x="40" y="753"/>
      <point x="81" y="723"/>
    </contour>
  </outline>
</glyph>
<glyph name="dieresiscomb" format="2">
  <unicode hex="0308"/>
  <anchor x="243" y="678" name="_top"/>
  <outline>
    <contour>
      <point x="358" y="731" type="curve" smooth="yes"/>
      <point x="409" y="731"/>
      <point x="446" y="758"/>
      <point x="446" y="806" type="curve" smooth="yes"/>
      <point x="446" y="854"/>
      <point x="409" y="881"/>
      <point x="358" y="881" type="curve" smooth="yes"/>
      <point x="307" y="881"/>
      <point x="270" y="854"/>
      <point x="270" y="806" type="curve" smooth="yes"/>
      <point x="270" y="758"/>
      <point x="307" y="731"/>
    </contour>
    <contour>
      <point x="128" y="731" type="curve" smooth="yes"/>
      <point x="179" y="731"/>
      <point x="216" y="758"/>
      <point x="216" y="806" type="curve" smooth="yes"/>
      <point x="216" y="854"/>
      <point x="179" y="881"/>
      <point x="128" y="881" type="curve" smooth="yes"/>
      <point x="77" y="881"/>
      <point x="40" y="854"/>
      <point x="40" y="806" type="curve" smooth="yes"/>
      <point x="40" y="758"/>
      <point x="77" y="731"/>
    </contour>
  </outline>
</glyph>
<glyph name="hookabovecomb" format="2">
  <unicode hex="0309"/>
  <anchor x="163" y="678" name="_top"/>
  <outline>
    <contour>
      <point x="106" y="721" type="line"/>
      <point x="236" y="754"/>
      <point x="300" y="798"/>
      <point x="300" y="877" type="curve" smooth="yes"/>
      <point x="300" y="941"/>
      <point x="248" y="984"/>
      <point x="140" y="984" type="curve" smooth="yes"/>
      <point x="105" y="984"/>
      <point x="70" y="979"/>
      <point x="40" y="972" type="curve"/>
      <point x="40" y="881" type="line"/>
      <point x="56" y="885"/>
      <point x="75" y="888"/>
      <point x="91" y="888" type="curve" smooth="yes"/>
      <point x="112" y="888"/>
      <point x="132" y="882"/>
      <point x="132" y="861" type="curve" smooth="yes"/>
      <point x="132" y="842"/>
      <point x="119" y="827"/>
      <point x="65" y="810" type="curve"/>
    </contour>
  </outline>
</glyph>
<glyph name="ringcomb" format="2">
  <unicode hex="030A"/>
  <anchor x="169" y="678" name="_top"/>
  <outline>
    <contour>
      <point x="169" y="723" type="curve" smooth="yes"/>
      <point x="247" y="723"/>
      <point x="298" y="771"/>
      <point x="298" y="841" type="curve" smooth="yes"/>
      <point x="298" y="911"/>
      <point x="247" y="959"/>
      <point x="169" y="959" type="curve" smooth="yes"/>
      <point x="91" y="959"/>
      <point x="40" y="911"/>
      <point x="40" y="841" type="curve" smooth="yes"/>
      <point x="40" y="771"/>
      <point x="91" y="723"/>
    </contour>
    <contour>
      <point x="169" y="804" type="curve" smooth="yes"/>
      <point x="147" y="804"/>
      <point x="132" y="818"/>
      <point x="132" y="841" type="curve" smooth="yes"/>
      <point x="132" y="864"/>
      <point x="147" y="878"/>
      <point x="169" y="878" type="curve" smooth="yes"/>
      <point x="191" y="878"/>
      <point x="206" y="864"/>
      <point x="206" y="841" type="curve" smooth="yes"/>
      <point x="206" y="818"/>
      <point x="191" y="804"/>
    </contour>
  </outline>
</glyph>
<glyph name="hungarumlautcomb" format="2">
  <unicode hex="030B"/>
  <anchor x="213" y="678" name="_top"/>
  <outline>
    <contour>
      <point x="40" y="735" type="line"/>
      <point x="177" y="735" type="line"/>
      <point x="273" y="884" type="line"/>
      <point x="95" y="884" type="line"/>
    </contour>
    <contour>
      <point x="249" y="735" type="line"/>
      <point x="401" y="735" type="line"/>
      <point x="533" y="884" type="line"/>
      <point x="343" y="884" type="line"/>
    </contour>
  </outline>
</glyph>
<glyph name="caroncomb" format="2">
  <unicode hex="030C"/>
  <anchor x="247" y="678" name="_top"/>
  <outline>
    <contour>
      <point x="155" y="735" type="line"/>
      <point x="339" y="735" type="line"/>
      <point x="454" y="884" type="line"/>
      <point x="296" y="884" type="line"/>
      <point x="247" y="818" type="line"/>
      <point x="198" y="884" type="line"/>
      <point x="40" y="884" type="line"/>
    </contour>
  </outline>
</glyph>
<glyph name="commaturnedabovecomb" format="2">
  <unicode hex="0312"/>
  <anchor x="114" y="678" name="_top"/>
  <outline>
    <contour>
      <point x="40" y="735" type="line"/>
      <point x="188" y="735" type="line"/>
      <point x="188" y="760" type="line" smooth="yes"/>
      <point x="188" y="823"/>
      <point x="197" y="854"/>
      <point x="231" y="895" type="curve"/>
      <point x="159" y="973" type="line"/>
      <point x="75" y="919"/>
      <point x="40" y="865"/>
      <point x="40" y="778" type="curve" smooth="yes"/>
    </contour>
  </outline>
</glyph>
<glyph name="horncomb" format="2">
  <unicode hex="031B"/>
  <anchor x="40" y="590" name="_topright"/>
  <outline>
    <contour>
      <point x="40" y="486" type="line"/>
      <point x="219" y="472"/>
      <point x="306" y="540"/>
      <point x="285" y="676" type="curve"/>
      <point x="137" y="676" type="line"/>
      <point x="147" y="609"/>
      <point x="118" y="583"/>
      <point x="40" y="590" type="curve"/>
    </contour>
  </outline>
</glyph>
<glyph name="dotbelowcomb" format="2">
  <unicode hex="0323"/>
  <anchor x="125" y="0" name="_bottom"/>
  <outline>
    <contour>
      <point x="125" y="-196" type="curve" smooth="yes"/>
      <point x="171" y="-196"/>
      <point x="210" y="-168"/>
      <point x="210" y="-118" type="curve" smooth="yes"/>
      <point x="210" y="-68"/>
      <point x="171" y="-40"/>
      <point x="125" y="-40" type="curve" smooth="yes"/>
      <point x="79" y="-40"/>
      <point x="40" y="-68"/>
      <point x="40" y="-118" type="curve" smooth="yes"/>
      <point x="40" y="-168"/>
      <point x="79" y="-196"/>
    </contour>
  </outline>
</glyph>
<glyph name="commaaccentcomb" format="2">
  <unicode hex="0326"/>
  <anchor x="170" y="0" name="_bottom"/>
  <outline>
    <contour>
      <point x="40" y="-217" type="line"/>
      <point x="184" y="-217" type="line"/>
      <point x="262" y="-57" type="line"/>
      <point x="78" y="-57" type="line"/>
    </contour>
  </outline>
</glyph>
<glyph name="ogonekcomb" format="2">
  <unicode hex="0328"/>
  <anchor x="281" y="0" name="_ogonek"/>
  <outline>
    <contour>
      <point x="179" y="-221" type="curve" smooth="yes"/>
      <point x="218" y="-221"/>
      <point x="261" y="-214"/>
      <point x="290" y="-201" type="curve"/>
      <point x="290" y="-123" type="line"/>
      <point x="277" y="-129"/>
      <point x="264" y="-132"/>
      <point x="250" y="-132" type="curve" smooth="yes"/>
      <point x="222" y="-132"/>
      <point x="205" y="-117"/>
      <point x="205" y="-92" type="curve" smooth="yes"/>
      <point x="205" y="-58"/>
      <point x="236" y="-28"/>
      <point x="281" y="0" type="curve"/>
      <point x="273" y="11" type="line"/>
      <point x="165" y="11" type="line"/>
      <point x="85" y="-25"/>
      <point x="40" y="-71"/>
      <point x="40" y="-125" type="curve" smooth="yes"/>
      <point x="40" y="-185"/>
      <point x="92" y="-221"/>
    </contour>
  </outline>
</glyph>
<glyph name="strokeshortcomb" format="2">
  <unicode hex="0335"/>
  <anchor x="215" y="306" name="_center"/>
  <outline>
    <contour>
      <point x="40" y="248" type="line"/>
      <point x="389" y="248" type="line"/>
      <point x="389" y="364" type="line"/>
      <point x="40" y="364" type="line"/>
    </contour>
  </outline>
</glyph>
<glyph name="strokelongcomb" format="2">
  <unicode hex="0336"/>
  <anchor x="455" y="365" name="_center"/>
  <outline>
    <contour>
      <point x="40" y="300" type="line"/>
      <point x="870" y="300" type="line"/>
      <point x="870" y="438" type="line"/>
      <point x="40" y="438" type="line"/>
    </contour>
  </outline>
</glyph>
<glyph name="slashshortcomb" format="2">
  <unicode hex="0337"/>
  <anchor x="180" y="302" name="_center"/>
  <outline>
    <contour>
      <point x="40" y="144" type="line"/>
      <point x="319" y="306" type="line"/>
      <point x="319" y="459" type="line"/>
      <point x="40" y="298" type="line"/>
    </contour>
  </outline>
</glyph>
<glyph name="slashlongcomb" format="2">
  <unicode hex="0338"/>
  <anchor x="340" y="272" name="_center"/>
  <outline>
    <contour>
      <point x="40" y="-60" type="line"/>
      <point x="152" y="-60" type="line"/>
      <point x="640" y="604" type="line"/>
      <point x="530" y="604" type="line"/>
    </contour>
  </outline>
</glyph>
<glyph name="mu" format="2">
  <advance width="658"/>
  <unicode hex="03BC"/>
  <outline>
    <contour>
      <point x="54" y="-132" type="line"/>
      <point x="245" y="-132" type="line"/>
      <point x="245" y="48" type="line"/>
      <point x="153" y="17" type="line"/>
      <point x="172" y="1"/>
      <point x="209" y="-10"/>
      <point x="246" y="-10" type="curve" smooth="yes"/>
      <point x="318" y="-10"/>
      <point x="380" y="23"/>
      <point x="405" y="89" type="curve"/>
      <point x="413" y="89" type="line"/>
      <point x="420" y="0" type="line"/>
      <point x="604" y="0" type="line"/>
      <point x="604" y="544" type="line"/>
      <point x="413" y="544" type="line"/>
      <point x="413" y="236" type="line" smooth="yes"/>
      <point x="413" y="181"/>
      <point x="385" y="144"/>
      <point x="324" y="144" type="curve" smooth="yes"/>
      <point x="273" y="144"/>
      <point x="245" y="173"/>
      <point x="245" y="228" type="curve" smooth="yes"/>
      <point x="245" y="544" type="line"/>
      <point x="54" y="544" type="line"/>
    </contour>
  </outline>
</glyph>
<glyph name="pi" format="2">
  <advance width="668"/>
  <unicode hex="03C0"/>
  <outline>
    <contour>
      <point x="543" y="-6" type="curve" smooth="yes"/>
      <point x="567" y="-6"/>
      <point x="607" y="1"/>
      <point x="634" y="8" type="curve"/>
      <point x="634" y="132" type="line"/>
      <point x="625" y="129"/>
      <point x="611" y="129"/>
      <point x="606" y="129" type="curve" smooth="yes"/>
      <point x="579" y="129"/>
      <point x="559" y="141"/>
      <point x="559" y="175" type="curve" smooth="yes"/>
      <point x="559" y="389" type="line"/>
      <point x="635" y="389" type="line"/>
      <point x="635" y="544" type="line"/>
      <point x="18" y="544" type="line"/>
      <point x="18" y="389" type="line"/>
      <point x="95" y="389" type="line"/>
      <point x="95" y="0" type="line"/>
      <point x="281" y="0" type="line"/>
      <point x="281" y="389" type="line"/>
      <point x="373" y="389" type="line"/>
      <point x="373" y="163" type="line" smooth="yes"/>
      <point x="373" y="74"/>
      <point x="400" y="-6"/>
    </contour>
  </outline>
</glyph>
<glyph name="Germandbls" format="2">
  <advance width="736"/>
  <unicode hex="1E9E"/>
  <outline>
    <contour>
      <point x="59" y="0" type="line"/>
      <point x="262" y="0" type="line"/>
      <point x="262" y="561" type="line"/>
      <point x="484" y="561" type="line"/>
      <point x="378" y="411" type="line"/>
      <point x="378" y="321" type="line"/>
      <point x="408" y="321" type="line" smooth="yes"/>
      <point x="464" y="321"/>
      <point x="502" y="299"/>
      <point x="502" y="242" type="curve" smooth="yes"/>
      <point x="502" y="195"/>
      <point x="476" y="163"/>
      <point x="408" y="163" type="curve" smooth="yes"/>
      <point x="321" y="163" type="line"/>
      <point x="321" y="0" type="line"/>
      <point x="446" y="0" type="line" smooth="yes"/>
      <point x="606" y="0"/>
      <point x="712" y="78"/>
      <point x="712" y="217" type="curve" smooth="yes"/>
      <point x="712" y="325"/>
      <point x="640" y="404"/>
      <point x="538" y="404" type="curve" smooth="yes"/>
      <point x="521" y="404" type="line"/>
      <point x="570" y="353" type="line"/>
      <point x="570" y="410" type="line"/>
      <point x="673" y="546" type="line"/>
      <point x="673" y="729" type="line"/>
      <point x="59" y="729" type="line"/>
    </contour>
  </outline>
</glyph>
<glyph name="endash" format="2">
  <advance width="576"/>
  <unicode hex="2013"/>
  <outline>
    <contour>
      <point x="38" y="192" type="line"/>
      <point x="538" y="192" type="line"/>
      <point x="538" y="352" type="line"/>
      <point x="38" y="352" type="line"/>
    </contour>
  </outline>
</glyph>
<glyph name="emdash" format="2">
  <advance width="752"/>
  <unicode hex="2014"/>
  <outline>
    <contour>
      <point x="38" y="192" type="line"/>
      <point x="714" y="192" type="line"/>
      <point x="714" y="352" type="line"/>
      <point x="38" y="352" type="line"/>
    </contour>
  </outline>
</glyph>
<glyph name="bullet" format="2">
  <advance width="303"/>
  <unicode hex="2022"/>
  <outline>
    <contour>
      <point x="151" y="142" type="curve" smooth="yes"/>
      <point x="233" y="142"/>
      <point x="287" y="200"/>
      <point x="287" y="277" type="curve" smooth="yes"/>
      <point x="287" y="354"/>
      <point x="233" y="412"/>
      <point x="151" y="412" type="curve" smooth="yes"/>
      <point x="73" y="412"/>
      <point x="15" y="354"/>
      <point x="15" y="277" type="curve" smooth="yes"/>
      <point x="15" y="200"/>
      <point x="73" y="142"/>
    </contour>
  </outline>
</glyph>
<glyph name="perthousand" format="2">
  <advance width="1219"/>
  <unicode hex="2030"/>
  <outline>
    <contour>
      <point x="140" y="0" type="line"/>
      <point x="264" y="0" type="line"/>
      <point x="729" y="729" type="line"/>
      <point x="605" y="729" type="line"/>
    </contour>
    <contour>
      <point x="205" y="336" type="curve" smooth="yes"/>
      <point x="300" y="336"/>
      <point x="365" y="398"/>
      <point x="365" y="533" type="curve" smooth="yes"/>
      <point x="365" y="667"/>
      <point x="300" y="729"/>
      <point x="205" y="729" type="curve" smooth="yes"/>
      <point x="110" y="729"/>
      <point x="45" y="667"/>
      <point x="45" y="533" type="curve" smooth="yes"/>
      <point x="45" y="398"/>
      <point x="110" y="336"/>
    </contour>
    <contour>
      <point x="205" y="440" type="curve" smooth="yes"/>
      <point x="175" y="440"/>
      <point x="166" y="476"/>
      <point x="166" y="533" type="curve" smooth="yes"/>
      <point x="166" y="589"/>
      <point x="175" y="625"/>
      <point x="205" y="625" type="curve" smooth="yes"/>
      <point x="235" y="625"/>
      <point x="244" y="589"/>
      <point x="244" y="533" type="curve" smooth="yes"/>
      <point x="244" y="476"/>
      <point x="235" y="440"/>
    </contour>
    <contour>
      <point x="664" y="-10" type="curve" smooth="yes"/>
      <point x="759" y="-10"/>
      <point x="824" y="52"/>
      <point x="824" y="187" type="curve" smooth="yes"/>
      <point x="824" y="321"/>
      <point x="759" y="383"/>
      <point x="664" y="383" type="curve" smooth="yes"/>
      <point x="569" y="383"/>
      <point x="504" y="321"/>
      <point x="504" y="187" type="curve" smooth="yes"/>
      <point x="504" y="52"/>
      <point x="569" y="-10"/>
    </contour>
    <contour>
      <point x="664" y="94" type="curve" smooth="yes"/>
      <point x="634" y="94"/>
      <point x="625" y="130"/>
      <point x="625" y="187" type="curve" smooth="yes"/>
      <point x="625" y="243"/>
      <point x="634" y="279"/>
      <point x="664" y="279" type="curve" smooth="yes"/>
      <point x="694" y="279"/>
      <point x="703" y="243"/>
      <point x="703" y="187" type="curve" smooth="yes"/>
      <point x="703" y="130"/>
      <point x="694" y="94"/>
    </contour>
    <contour>
      <point x="1014" y="-10" type="curve" smooth="yes"/>
      <point x="1109" y="-10"/>
      <point x="1174" y="52"/>
      <point x="1174" y="187" type="curve" smooth="yes"/>
      <point x="1174" y="321"/>
      <point x="1109" y="383"/>
      <point x="1014" y="383" type="curve" smooth="yes"/>
      <point x="919" y="383"/>
      <point x="854" y="321"/>
      <point x="854" y="187" type="curve" smooth="yes"/>
      <point x="854" y="52"/>
      <point x="919" y="-10"/>
    </contour>
    <contour>
      <point x="1014" y="94" type="curve" smooth="yes"/>
      <point x="984" y="94"/>
      <point x="975" y="130"/>
      <point x="975" y="187" type="curve" smooth="yes"/>
      <point x="975" y="243"/>
      <point x="984" y="279"/>
      <point x="1014" y="279" type="curve" smooth="yes"/>
      <point x="1044" y="279"/>
      <point x="1053" y="243"/>
      <point x="1053" y="187" type="curve" smooth="yes"/>
      <point x="1053" y="130"/>
      <point x="1044" y="94"/>
    </contour>
  </outline>
</glyph>
<glyph name="guilsinglleft" format="2">
  <advance width="338"/>
  <unicode hex="2039"/>
  <outline>
    <contour>
      <point x="151" y="64" type="line"/>
      <point x="315" y="64" type="line"/>
      <point x="208" y="305" type="line"/>
      <point x="315" y="544" type="line"/>
      <point x="151" y="544" type="line"/>
      <point x="22" y="305" type="line"/>
    </contour>
  </outline>
</glyph>
<glyph name="zeroinferior" format="2">
  <advance width="405"/>
  <unicode hex="2080"/>
  <anchor x="203" y="174" name="_center"/>
  <outline>
    <contour>
      <point x="202" y="-46" type="curve" smooth="yes"/>
      <point x="304" y="-46"/>
      <point x="373" y="25"/>
      <point x="373" y="175" type="curve" smooth="yes"/>
      <point x="373" y="306"/>
      <point x="320" y="397"/>
      <point x="202" y="397" type="curve" smooth="yes"/>
      <point x="100" y="397"/>
      <point x="32" y="326"/>
      <point x="32" y="175" type="curve" smooth="yes"/>
      <point x="32" y="45"/>
      <point x="85" y="-46"/>
    </contour>
    <contour>
      <point x="202" y="60" type="curve" smooth="yes"/>
      <point x="184" y="60"/>
      <point x="160" y="68"/>
      <point x="160" y="175" type="curve" smooth="yes"/>
      <point x="160" y="283"/>
      <point x="184" y="291"/>
      <point x="202" y="291" type="curve" smooth="yes"/>
      <point x="221" y="291"/>
      <point x="245" y="283"/>
      <point x="245" y="175" type="curve" smooth="yes"/>
      <point x="245" y="69"/>
      <point x="221" y="60"/>
    </contour>
  </outline>
</glyph>
<glyph name="oneinferior" format="2">
  <advance width="315"/>
  <unicode hex="2081"/>
  <anchor x="154" y="174" name="_center"/>
  <outline>
    <contour>
      <point x="134" y="-40" type="line"/>
      <point x="261" y="-40" type="line"/>
      <point x="261" y="393" type="line"/>
      <point x="142" y="393" type="line"/>
      <point x="137" y="345"/>
      <point x="93" y="313"/>
      <point x="38" y="313" type="curve" smooth="yes"/>
      <point x="18" y="313" type="line"/>
      <point x="18" y="216" type="line"/>
      <point x="134" y="216" type="line"/>
    </contour>
  </outline>
</glyph>
<glyph name="twoinferior" format="2">
  <advance width="389"/>
  <unicode hex="2082"/>
  <anchor x="191" y="174" name="_center"/>
  <outline>
    <contour>
      <point x="27" y="-40" type="line"/>
      <point x="352" y="-40" type="line"/>
      <point x="352" y="70" type="line"/>
      <point x="172" y="70" type="line"/>
      <point x="210" y="105"/>
      <point x="355" y="148"/>
      <point x="355" y="265" type="curve" smooth="yes"/>
      <point x="355" y="342"/>
      <point x="294" y="397"/>
      <point x="201" y="397" type="curve" smooth="yes"/>
      <point x="95" y="397"/>
      <point x="34" y="339"/>
      <point x="27" y="250" type="curve"/>
      <point x="153" y="250" type="line"/>
      <point x="154" y="269"/>
      <point x="164" y="290"/>
      <point x="194" y="290" type="curve" smooth="yes"/>
      <point x="211" y="290"/>
      <point x="227" y="279"/>
      <point x="227" y="259" type="curve" smooth="yes"/>
      <point x="227" y="184"/>
      <point x="27" y="158"/>
      <point x="27" y="-18" type="curve" smooth="yes"/>
    </contour>
  </outline>
</glyph>
<glyph name="threeinferior" format="2">
  <advance width="394"/>
  <unicode hex="2083"/>
  <anchor x="195" y="174" name="_center"/>
  <outline>
    <contour>
      <point x="194" y="-46" type="curve" smooth="yes"/>
      <point x="292" y="-46"/>
      <point x="365" y="1"/>
      <point x="365" y="87" type="curve" smooth="yes"/>
      <point x="365" y="131"/>
      <point x="340" y="169"/>
      <point x="295" y="182" type="curve"/>
      <point x="295" y="187" type="line"/>
      <point x="328" y="200"/>
      <point x="354" y="234"/>
      <point x="354" y="276" type="curve" smooth="yes"/>
      <point x="354" y="353"/>
      <point x="290" y="398"/>
      <point x="198" y="398" type="curve" smooth="yes"/>
      <point x="95" y="398"/>
      <point x="30" y="343"/>
      <point x="27" y="256" type="curve"/>
      <point x="151" y="256" type="line"/>
      <point x="152" y="278"/>
      <point x="167" y="292"/>
      <point x="193" y="292" type="curve" smooth="yes"/>
      <point x="216" y="292"/>
      <point x="229" y="281"/>
      <point x="229" y="260" type="curve" smooth="yes"/>
      <point x="229" y="240"/>
      <point x="215" y="225"/>
      <point x="190" y="225" type="curve" smooth="yes"/>
      <point x="142" y="225" type="line"/>
      <point x="142" y="133" type="line"/>
      <point x="194" y="133" type="line" smooth="yes"/>
      <point x="222" y="133"/>
      <point x="236" y="120"/>
      <point x="236" y="98" type="curve" smooth="yes"/>
      <point x="236" y="76"/>
      <point x="221" y="59"/>
      <point x="194" y="59" type="curve" smooth="yes"/>
      <point x="168" y="59"/>
      <point x="148" y="73"/>
      <point x="148" y="98" type="curve"/>
      <point x="24" y="98" type="line"/>
      <point x="28" y="11"/>
      <point x="88" y="-46"/>
    </contour>
  </outline>
</glyph>
<glyph name="fourinferior" format="2">
  <advance width="419"/>
  <unicode hex="2084"/>
  <anchor x="210" y="174" name="_center"/>
  <outline>
    <contour>
      <point x="211" y="-40" type="line"/>
      <point x="338" y="-40" type="line"/>
      <point x="338" y="393" type="line"/>
      <point x="184" y="393" type="line"/>
      <point x="20" y="141" type="line"/>
      <point x="20" y="47" type="line"/>
      <point x="400" y="47" type="line"/>
      <point x="400" y="151" type="line"/>
      <point x="145" y="151" type="line"/>
      <point x="261" y="332" type="line"/>
      <point x="211" y="346" type="line"/>
    </contour>
  </outline>
</glyph>
<glyph name="fiveinferior" format="2">
  <advance width="408"/>
  <unicode hex="2085"/>
  <anchor x="205" y="174" name="_center"/>
  <outline>
    <contour>
      <point x="201" y="-46" type="curve" smooth="yes"/>
      <point x="306" y="-46"/>
      <point x="375" y="16"/>
      <point x="375" y="108" type="curve" smooth="yes"/>
      <point x="375" y="190"/>
      <point x="322" y="244"/>
      <point x="240" y="244" type="curve" smooth="yes"/>
      <point x="213" y="244"/>
      <point x="182" y="235"/>
      <point x="173" y="225" type="curve"/>
      <point x="167" y="227" type="line"/>
      <point x="176" y="282" type="line"/>
      <point x="364" y="282" type="line"/>
      <point x="364" y="393" type="line"/>
      <point x="63" y="393" type="line"/>
      <point x="44" y="118" type="line"/>
      <point x="165" y="118" type="line"/>
      <point x="169" y="133"/>
      <point x="185" y="144"/>
      <point x="205" y="144" type="curve" smooth="yes"/>
      <point x="229" y="144"/>
      <point x="247" y="127"/>
      <point x="247" y="103" type="curve" smooth="yes"/>
      <point x="247" y="82"/>
      <point x="230" y="62"/>
      <point x="204" y="62" type="curve" smooth="yes"/>
      <point x="183" y="62"/>
      <point x="167" y="71"/>
      <point x="162" y="86" type="curve"/>
      <point x="34" y="86" type="line"/>
      <point x="42" y="7"/>
      <point x="101" y="-46"/>
    </contour>
  </outline>
</glyph>
<glyph name="sixinferior" format="2">
  <advance width="420"/>
  <unicode hex="2086"/>
  <anchor x="211" y="174" name="_center"/>
  <outline>
    <contour>
      <point x="210" y="-45" type="curve" smooth="yes"/>
      <point x="317" y="-45"/>
      <point x="386" y="17"/>
      <point x="386" y="109" type="curve" smooth="yes"/>
      <point x="386" y="189"/>
      <point x="332" y="244"/>
      <point x="250" y="244" type="curve" smooth="yes"/>
      <point x="208" y="244"/>
      <point x="177" y="230"/>
      <point x="161" y="213" type="curve"/>
      <point x="156" y="213" type="line"/>
      <point x="156" y="266"/>
      <point x="184" y="291"/>
      <point x="218" y="291" type="curve" smooth="yes"/>
      <point x="237" y="291"/>
      <point x="258" y="283"/>
      <point x="263" y="269" type="curve"/>
      <point x="391" y="269" type="line"/>
      <point x="380" y="348"/>
      <point x="318" y="399"/>
      <point x="220" y="399" type="curve" smooth="yes"/>
      <point x="100" y="399"/>
      <point x="31" y="318"/>
      <point x="31" y="174" type="curve" smooth="yes"/>
      <point x="31" y="17"/>
      <point x="104" y="-45"/>
    </contour>
    <contour>
      <point x="214" y="65" type="curve" smooth="yes"/>
      <point x="187" y="65"/>
      <point x="170" y="83"/>
      <point x="170" y="108" type="curve" smooth="yes"/>
      <point x="170" y="134"/>
      <point x="188" y="150"/>
      <point x="214" y="150" type="curve" smooth="yes"/>
      <point x="241" y="150"/>
      <point x="259" y="132"/>
      <point x="259" y="107" type="curve" smooth="yes"/>
      <point x="259" y="82"/>
      <point x="241" y="65"/>
    </contour>
  </outline>
</glyph>
<glyph name="seveninferior" format="2">
  <advance width="382"/>
  <unicode hex="2087"/>
  <anchor x="196" y="174" name="_center"/>
  <outline>
    <contour>
      <point x="118" y="-40" type="curve"/>
      <point x="255" y="-40" type="line"/>
      <point x="255" y="129"/>
      <point x="300" y="207"/>
      <point x="366" y="299" type="curve"/>
      <point x="366" y="393" type="line"/>
      <point x="25" y="393" type="line"/>
      <point x="25" y="220" type="line"/>
      <point x="126" y="220" type="line"/>
      <point x="126" y="282" type="line"/>
      <point x="215" y="282" type="line"/>
      <point x="169" y="218"/>
      <point x="118" y="116"/>
    </contour>
  </outline>
</glyph>
<glyph name="eightinferior" format="2">
  <advance width="401"/>
  <unicode hex="2088"/>
  <anchor x="201" y="174" name="_center"/>
  <outline>
    <contour>
      <point x="201" y="-46" type="curve" smooth="yes"/>
      <point x="305" y="-46"/>
      <point x="374" y="-1"/>
      <point x="374" y="80" type="curve" smooth="yes"/>
      <point x="374" y="130"/>
      <point x="338" y="170"/>
      <point x="293" y="182" type="curve"/>
      <point x="293" y="187" type="line"/>
      <point x="332" y="200"/>
      <point x="358" y="236"/>
      <point x="358" y="279" type="curve" smooth="yes"/>
      <point x="358" y="350"/>
      <point x="302" y="397"/>
      <point x="201" y="397" type="curve" smooth="yes"/>
      <point x="106" y="397"/>
      <point x="43" y="355"/>
      <point x="43" y="279" type="curve" smooth="yes"/>
      <point x="43" y="236"/>
      <point x="69" y="200"/>
      <point x="108" y="187" type="curve"/>
      <point x="108" y="182" type="line"/>
      <point x="66" y="171"/>
      <point x="27" y="133"/>
      <point x="27" y="80" type="curve" smooth="yes"/>
      <point x="27" y="4"/>
      <point x="89" y="-46"/>
    </contour>
    <contour>
      <point x="201" y="62" type="curve" smooth="yes"/>
      <point x="173" y="62"/>
      <point x="157" y="75"/>
      <point x="157" y="99" type="curve" smooth="yes"/>
      <point x="157" y="122"/>
      <point x="174" y="136"/>
      <point x="201" y="136" type="curve" smooth="yes"/>
      <point x="226" y="136"/>
      <point x="244" y="123"/>
      <point x="244" y="99" type="curve" smooth="yes"/>
      <point x="244" y="75"/>
      <point x="228" y="62"/>
    </contour>
    <contour>
      <point x="201" y="229" type="curve" smooth="yes"/>
      <point x="181" y="229"/>
      <point x="163" y="239"/>
      <point x="163" y="262" type="curve" smooth="yes"/>
      <point x="163" y="283"/>
      <point x="179" y="294"/>
      <point x="201" y="294" type="curve" smooth="yes"/>
      <point x="222" y="294"/>
      <point x="238" y="283"/>
      <point x="238" y="262" type="curve" smooth="yes"/>
      <point x="238" y="239"/>
      <point x="220" y="229"/>
    </contour>
  </outline>
</glyph>
<glyph name="peseta" format="2">
  <advance width="1658"/>
  <unicode hex="20A7"/>
  <outline>
    <contour>
      <point x="70" y="0" type="line"/>
      <point x="273" y="0" type="line"/>
      <point x="273" y="583" type="line"/>
      <point x="251" y="559" type="line"/>
      <point x="345" y="559" type="line" smooth="yes"/>
      <point x="397" y="559"/>
      <point x="432" y="532"/>
      <point x="432" y="474" type="curve" smooth="yes"/>
      <point x="432" y="422"/>
      <point x="404" y="387"/>
      <point x="345" y="387" type="curve" smooth="yes"/>
      <point x="257" y="387" type="line"/>
      <point x="257" y="232" type="line"/>
      <point x="381" y="232" type="line" smooth="yes"/>
      <point x="546" y="232"/>
      <point x="638" y="334"/>
      <point x="638" y="482" type="curve" smooth="yes"/>
      <point x="638" y="639"/>
      <point x="536" y="729"/>
      <point x="381" y="729" type="curve" smooth="yes"/>
      <point x="70" y="729" type="line"/>
    </contour>
    <contour>
      <point x="942" y="0" type="curve" smooth="yes"/>
      <point x="1071" y="0" type="line"/>
      <point x="1071" y="153" type="line"/>
      <point x="1011" y="153" type="line" smooth="yes"/>
      <point x="988" y="153"/>
      <point x="972" y="160"/>
      <point x="972" y="188" type="curve" smooth="yes"/>
      <point x="972" y="391" type="line"/>
      <point x="1071" y="391" type="line"/>
      <point x="1071" y="544" type="line"/>
      <point x="972" y="544" type="line"/>
      <point x="972" y="699" type="line"/>
      <point x="781" y="683" type="line"/>
      <point x="781" y="544" type="line"/>
      <point x="690" y="544" type="line"/>
      <point x="690" y="391" type="line"/>
      <point x="781" y="391" type="line"/>
      <point x="781" y="152" type="line" smooth="yes"/>
      <point x="781" y="61"/>
      <point x="812" y="0"/>
    </contour>
    <contour>
      <point x="1371" y="-10" type="curve" smooth="yes"/>
      <point x="1523" y="-10"/>
      <point x="1624" y="56"/>
      <point x="1624" y="174" type="curve" smooth="yes"/>
      <point x="1624" y="279"/>
      <point x="1569" y="326"/>
      <point x="1427" y="344" type="curve" smooth="yes"/>
      <point x="1352" y="354"/>
      <point x="1326" y="360"/>
      <point x="1326" y="388" type="curve" smooth="yes"/>
      <point x="1326" y="411"/>
      <point x="1345" y="422"/>
      <point x="1373" y="422" type="curve" smooth="yes"/>
      <point x="1405" y="422"/>
      <point x="1424" y="409"/>
      <point x="1425" y="383" type="curve"/>
      <point x="1613" y="383" type="line"/>
      <point x="1607" y="485"/>
      <point x="1514" y="554"/>
      <point x="1379" y="554" type="curve" smooth="yes"/>
      <point x="1233" y="554"/>
      <point x="1135" y="481"/>
      <point x="1135" y="371" type="curve" smooth="yes"/>
      <point x="1135" y="262"/>
      <point x="1201" y="220"/>
      <point x="1347" y="199" type="curve" smooth="yes"/>
      <point x="1409" y="190"/>
      <point x="1430" y="186"/>
      <point x="1430" y="157" type="curve" smooth="yes"/>
      <point x="1430" y="136"/>
      <point x="1413" y="122"/>
      <point x="1376" y="122" type="curve" smooth="yes"/>
      <point x="1339" y="122"/>
      <point x="1313" y="136"/>
      <point x="1310" y="171" type="curve"/>
      <point x="1122" y="171" type="line"/>
      <point x="1123" y="63"/>
      <point x="1220" y="-10"/>
    </contour>
  </outline>
</glyph>
<glyph name="won" format="2">
  <advance width="1010"/>
  <unicode hex="20A9"/>
  <outline>
    <contour>
      <point x="174" y="0" type="line"/>
      <point x="455" y="0" type="line"/>
      <point x="484" y="307" type="line"/>
      <point x="501" y="580" type="line"/>
      <point x="513" y="580" type="line"/>
      <point x="529" y="307" type="line"/>
      <point x="556" y="0" type="line"/>
      <point x="837" y="0" type="line"/>
      <point x="959" y="729" type="line"/>
      <point x="754" y="729" type="line"/>
      <point x="717" y="333" type="line"/>
      <point x="702" y="139" type="line"/>
      <point x="690" y="139" type="line"/>
      <point x="672" y="333" type="line"/>
      <point x="630" y="729" type="line"/>
      <point x="384" y="729" type="line"/>
      <point x="344" y="333" type="line"/>
      <point x="328" y="141" type="line"/>
      <point x="316" y="141" type="line"/>
      <point x="299" y="333" type="line"/>
      <point x="257" y="729" type="line"/>
      <point x="52" y="729" type="line"/>
    </contour>
    <contour>
      <point x="35" y="270" type="line"/>
      <point x="975" y="270" type="line"/>
      <point x="975" y="406" type="line"/>
      <point x="35" y="406" type="line"/>
    </contour>
  </outline>
</glyph>
<glyph name="sheqel" format="2">
  <advance width="835"/>
  <unicode hex="20AA"/>
  <outline>
    <contour>
      <point x="271" y="0" type="line"/>
      <point x="621" y="0" type="line" smooth="yes"/>
      <point x="710" y="0"/>
      <point x="770" y="55"/>
      <point x="770" y="153" type="curve" smooth="yes"/>
      <point x="770" y="729" type="line"/>
      <point x="609" y="729" type="line"/>
      <point x="609" y="151" type="line"/>
      <point x="400" y="151" type="line"/>
      <point x="400" y="540" type="line"/>
      <point x="271" y="540" type="line"/>
    </contour>
    <contour>
      <point x="70" y="0" type="line"/>
      <point x="231" y="0" type="line"/>
      <point x="231" y="579" type="line"/>
      <point x="440" y="579" type="line"/>
      <point x="440" y="190" type="line"/>
      <point x="569" y="190" type="line"/>
      <point x="569" y="576" type="line" smooth="yes"/>
      <point x="569" y="668"/>
      <point x="527" y="729"/>
      <point x="420" y="729" type="curve" smooth="yes"/>
      <point x="70" y="729" type="line"/>
    </contour>
  </outline>
</glyph>
<glyph name="euro" format="2">
  <advance width="851"/>
  <unicode hex="20AC"/>
  <outline>
    <contour>
      <point x="469" y="-10" type="curve" smooth="yes"/>
      <point x="657" y="-10"/>
      <point x="801" y="98"/>
      <point x="818" y="259" type="curve"/>
      <point x="608" y="259" type="line"/>
      <point x="594" y="203"/>
      <point x="536" y="166"/>
      <point x="469" y="166" type="curve" smooth="yes"/>
      <point x="371" y="166"/>
      <point x="307" y="222"/>
      <point x="307" y="365" type="curve" smooth="yes"/>
      <point x="307" y="507"/>
      <point x="371" y="563"/>
      <point x="469" y="563" type="curve" smooth="yes"/>
      <point x="541" y="563"/>
      <point x="592" y="525"/>
      <point x="608" y="471" type="curve"/>
      <point x="818" y="471" type="line"/>
      <point x="801" y="631"/>
      <point x="663" y="739"/>
      <point x="469" y="739" type="curve" smooth="yes"/>
      <point x="244" y="739"/>
      <point x="94" y="608"/>
      <point x="94" y="365" type="curve" smooth="yes"/>
      <point x="94" y="121"/>
      <point x="244" y="-10"/>
    </contour>
    <contour>
      <point x="36" y="245" type="line"/>
      <point x="493" y="245" type="line"/>
      <point x="507" y="341" type="line"/>
      <point x="36" y="341" type="line"/>
    </contour>
    <contour>
      <point x="36" y="388" type="line"/>
      <point x="514" y="388" type="line"/>
      <point x="528" y="482" type="line"/>
      <point x="36" y="482" type="line"/>
    </contour>
  </outline>
</glyph>
<glyph name="tenge" format="2">
  <advance width="639"/>
  <unicode hex="20B8"/>
  <outline>
    <contour>
      <point x="223" y="379" type="line"/>
      <point x="223" y="0" type="line"/>
      <point x="416" y="0" type="line"/>
      <point x="416" y="379" type="line"/>
    </contour>
    <contour>
      <point x="595" y="363" type="line"/>
      <point x="595" y="519" type="line"/>
      <point x="44" y="519" type="line"/>
      <point x="44" y="363" type="line"/>
    </contour>
    <contour>
      <point x="595" y="571" type="line"/>
      <point x="595" y="729" type="line"/>
      <point x="44" y="729" type="line"/>
      <point x="44" y="571" type="line"/>
    </contour>
  </outline>
</glyph>
<glyph name="rupeeIndian" format="2">
  <advance width="635"/>
  <unicode hex="20B9"/>
  <outline>
    <contour>
      <point x="314" y="0" type="line"/>
      <point x="534" y="0" type="line"/>
      <point x="478" y="175" type="line" smooth="yes"/>
      <point x="452" y="255"/>
      <point x="422" y="291"/>
      <point x="364" y="305" type="curve"/>
      <point x="364" y="312" type="line"/>
      <point x="436" y="325"/>
      <point x="490" y="362"/>
      <point x="510" y="423" type="curve"/>
      <point x="597" y="423" type="line"/>
      <point x="597" y="539" type="line"/>
      <point x="512" y="539" type="line"/>
      <point x="506" y="565"/>
      <point x="487" y="592"/>
      <point x="464" y="606" type="curve"/>
      <point x="464" y="613" type="line"/>
      <point x="597" y="613" type="line"/>
      <point x="597" y="729" type="line"/>
      <point x="51" y="729" type="line"/>
      <point x="51" y="587" type="line"/>
      <point x="184" y="587" type="line" smooth="yes"/>
      <point x="261" y="587"/>
      <point x="291" y="568"/>
      <point x="302" y="533" type="curve"/>
      <point x="51" y="533" type="line"/>
      <point x="51" y="438" type="line"/>
      <point x="303" y="438" type="line"/>
      <point x="294" y="404"/>
      <point x="266" y="384"/>
      <point x="191" y="384" type="curve" smooth="yes"/>
      <point x="51" y="384" type="line"/>
      <point x="51" y="244" type="line"/>
      <point x="128" y="244" type="line" smooth="yes"/>
      <point x="217" y="244"/>
      <point x="237" y="230"/>
      <point x="262" y="156" type="curve" smooth="yes"/>
    </contour>
  </outline>
</glyph>
<glyph name="liraTurkish" format="2">
  <advance width="721"/>
  <unicode hex="20BA"/>
  <outline>
    <contour>
      <point x="117" y="0" type="line"/>
      <point x="271" y="0" type="line" smooth="yes"/>
      <point x="516" y="0"/>
      <point x="684" y="128"/>
      <point x="694" y="356" type="curve"/>
      <point x="496" y="356" type="line"/>
      <point x="487" y="254"/>
      <point x="448" y="185"/>
      <point x="307" y="184" type="curve"/>
      <point x="307" y="729" type="line"/>
      <point x="117" y="729" type="line"/>
    </contour>
    <contour>
      <point x="43" y="205" type="line"/>
      <point x="446" y="367" type="line"/>
      <point x="446" y="509" type="line"/>
      <point x="43" y="347" type="line"/>
    </contour>
    <contour>
      <point x="43" y="404" type="line"/>
      <point x="446" y="566" type="line"/>
      <point x="446" y="708" type="line"/>
      <point x="43" y="546" type="line"/>
    </contour>
  </outline>
</glyph>
<glyph name="literSign" format="2">
  <advance width="539"/>
  <unicode hex="2113"/>
  <outline>
    <contour>
      <point x="295" y="-8" type="curve" smooth="yes"/>
      <point x="392" y="-8"/>
      <point x="477" y="49"/>
      <point x="507" y="135" type="curve"/>
      <point x="375" y="192" type="line"/>
      <point x="359" y="147"/>
      <point x="336" y="137"/>
      <point x="315" y="137" type="curve" smooth="yes"/>
      <point x="270" y="137"/>
      <point x="248" y="182"/>
      <point x="248" y="372" type="curve" smooth="yes"/>
      <point x="248" y="534"/>
      <point x="271" y="571"/>
      <point x="305" y="571" type="curve" smooth="yes"/>
      <point x="321" y="571"/>
      <point x="332" y="556"/>
      <point x="332" y="530" type="curve" smooth="yes"/>
      <point x="332" y="463"/>
      <point x="273" y="292"/>
      <point x="31" y="247" type="curve"/>
      <point x="31" y="122" type="line"/>
      <point x="344" y="171"/>
      <point x="493" y="377"/>
      <point x="493" y="549" type="curve" smooth="yes"/>
      <point x="493" y="663"/>
      <point x="429" y="739"/>
      <point x="327" y="739" type="curve" smooth="yes"/>
      <point x="155" y="739"/>
      <point x="74" y="591"/>
      <point x="74" y="384" type="curve" smooth="yes"/>
      <point x="74" y="149"/>
      <point x="127" y="-8"/>
    </contour>
  </outline>
</glyph>
<glyph name="numero" format="2">
  <advance width="1222"/>
  <unicode hex="2116"/>
  <outline>
    <contour>
      <point x="70" y="0" type="line"/>
      <point x="277" y="0" type="line"/>
      <point x="277" y="236" type="line"/>
      <point x="270" y="431" type="line"/>
      <point x="276" y="431" type="line"/>
      <point x="511" y="0" type="line"/>
      <point x="742" y="0" type="line"/>
      <point x="742" y="729" type="line"/>
      <point x="547" y="729" type="line"/>
      <point x="547" y="504" type="line"/>
      <point x="554" y="289" type="line"/>
      <point x="548" y="289" type="line"/>
      <point x="315" y="729" type="line"/>
      <point x="70" y="729" type="line"/>
    </contour>
    <contour>
      <point x="826" y="139" type="line"/>
      <point x="1155" y="139" type="line"/>
      <point x="1155" y="255" type="line"/>
      <point x="826" y="255" type="line"/>
    </contour>
    <contour>
      <point x="990" y="292" type="curve" smooth="yes"/>
      <point x="1105" y="292"/>
      <point x="1184" y="363"/>
      <point x="1184" y="516" type="curve" smooth="yes"/>
      <point x="1184" y="668"/>
      <point x="1105" y="739"/>
      <point x="990" y="739" type="curve" smooth="yes"/>
      <point x="876" y="739"/>
      <point x="797" y="668"/>
      <point x="797" y="516" type="curve" smooth="yes"/>
      <point x="797" y="363"/>
      <point x="876" y="292"/>
    </contour>
    <contour>
      <point x="990" y="411" type="curve" smooth="yes"/>
      <point x="954" y="411"/>
      <point x="943" y="451"/>
      <point x="943" y="516" type="curve" smooth="yes"/>
      <point x="943" y="580"/>
      <point x="954" y="620"/>
      <point x="990" y="620" type="curve" smooth="yes"/>
      <point x="1027" y="620"/>
      <point x="1038" y="580"/>
      <point x="1038" y="516" type="curve" smooth="yes"/>
      <point x="1038" y="451"/>
      <point x="1027" y="411"/>
    </contour>
  </outline>
</glyph>
<glyph name="trademark" format="2">
  <advance width="865"/>
  <unicode hex="2122"/>
  <outline>
    <contour>
      <point x="369" y="415" type="line"/>
      <point x="480" y="415" type="line"/>
      <point x="480" y="507" type="line"/>
      <point x="479" y="590" type="line"/>
      <point x="482" y="590" type="line"/>
      <point x="537" y="415" type="line"/>
      <point x="626" y="415" type="line"/>
      <point x="681" y="590" type="line"/>
      <point x="684" y="590" type="line"/>
      <point x="683" y="507" type="line"/>
      <point x="683" y="415" type="line"/>
      <point x="795" y="415" type="line"/>
      <point x="795" y="729" type="line"/>
      <point x="635" y="729" type="line"/>
      <point x="585" y="562" type="line"/>
      <point x="581" y="562" type="line"/>
      <point x="529" y="729" type="line"/>
      <point x="369" y="729" type="line"/>
    </contour>
    <contour>
      <point x="120" y="415" type="line"/>
      <point x="240" y="415" type="line"/>
      <point x="240" y="627" type="line"/>
      <point x="324" y="627" type="line"/>
      <point x="324" y="729" type="line"/>
      <point x="38" y="729" type="line"/>
      <point x="38" y="627" type="line"/>
      <point x="120" y="627" type="line"/>
    </contour>
  </outline>
</glyph>
<glyph name="leftArrow" format="2">
  <advance width="746"/>
  <unicode hex="2190"/>
  <outline>
    <contour>
      <point x="660" y="447" type="line"/>
      <point x="298" y="447" type="line"/>
      <point x="394" y="595" type="line"/>
      <point x="228" y="595" type="line"/>
      <point x="79" y="365" type="line"/>
      <point x="228" y="135" type="line"/>
      <point x="394" y="135" type="line"/>
      <point x="298" y="283" type="line"/>
      <point x="660" y="283" type="line"/>
    </contour>
  </outline>
</glyph>
<glyph name="upArrow" format="2">
  <advance width="558"/>
  <unicode hex="2191"/>
  <outline>
    <contour>
      <point x="197" y="74" type="line"/>
      <point x="361" y="74" type="line"/>
      <point x="361" y="436" type="line"/>
      <point x="509" y="340" type="line"/>
      <point x="509" y="506" type="line"/>
      <point x="279" y="655" type="line"/>
      <point x="49" y="506" type="line"/>
      <point x="49" y="340" type="line"/>
      <point x="197" y="436" type="line"/>
    </contour>
  </outline>
</glyph>
<glyph name="rightArrow" format="2">
  <advance width="746"/>
  <unicode hex="2192"/>
  <outline>
    <contour>
      <point x="86" y="447" type="line"/>
      <point x="86" y="283" type="line"/>
      <point x="448" y="283" type="line"/>
      <point x="352" y="135" type="line"/>
      <point x="518" y="135" type="line"/>
      <point x="667" y="365" type="line"/>
      <point x="518" y="595" type="line"/>
      <point x="352" y="595" type="line"/>
      <point x="448" y="447" type="line"/>
    </contour>
  </outline>
</glyph>
<glyph name="downArrow" format="2">
  <advance width="569"/>
  <unicode hex="2193"/>
  <outline>
    <contour>
      <point x="201" y="655" type="line"/>
      <point x="201" y="293" type="line"/>
      <point x="53" y="389" type="line"/>
      <point x="53" y="223" type="line"/>
      <point x="283" y="74" type="line"/>
      <point x="513" y="223" type="line"/>
      <point x="513" y="389" type="line"/>
      <point x="365" y="293" type="line"/>
      <point x="365" y="655" type="line"/>
    </contour>
  </outline>
</glyph>
<glyph name="leftRightArrow" format="2">
  <advance width="831"/>
  <unicode hex="2194"/>
  <outline>
    <contour>
      <point x="169" y="135" type="line"/>
      <point x="335" y="135" type="line"/>
      <point x="239" y="283" type="line"/>
      <point x="592" y="283" type="line"/>
      <point x="496" y="135" type="line"/>
      <point x="662" y="135" type="line"/>
      <point x="811" y="365" type="line"/>
      <point x="662" y="595" type="line"/>
      <point x="496" y="595" type="line"/>
      <point x="592" y="447" type="line"/>
      <point x="239" y="447" type="line"/>
      <point x="335" y="595" type="line"/>
      <point x="169" y="595" type="line"/>
      <point x="20" y="365" type="line"/>
    </contour>
  </outline>
</glyph>
<glyph name="emptyset" format="2">
  <advance width="756"/>
  <unicode hex="2205"/>
  <outline>
    <contour>
      <point x="378" y="0" type="curve" smooth="yes"/>
      <point x="582" y="0"/>
      <point x="736" y="149"/>
      <point x="736" y="366" type="curve" smooth="yes"/>
      <point x="736" y="579"/>
      <point x="582" y="729"/>
      <point x="378" y="729" type="curve" smooth="yes"/>
      <point x="174" y="729"/>
      <point x="20" y="580"/>
      <point x="20" y="366" type="curve" smooth="yes"/>
      <point x="20" y="149"/>
      <point x="174" y="0"/>
    </contour>
    <contour>
      <point x="378" y="71" type="curve" smooth="yes"/>
      <point x="283" y="71"/>
      <point x="199" y="116"/>
      <point x="148" y="189" type="curve"/>
      <point x="638" y="488" type="line"/>
      <point x="653" y="451"/>
      <point x="661" y="410"/>
      <point x="661" y="366" type="curve" smooth="yes"/>
      <point x="661" y="193"/>
      <point x="538" y="71"/>
    </contour>
    <contour>
      <point x="116" y="249" type="line"/>
      <point x="103" y="284"/>
      <point x="95" y="324"/>
      <point x="95" y="366" type="curve" smooth="yes"/>
      <point x="95" y="538"/>
      <point x="220" y="658"/>
      <point x="378" y="658" type="curve" smooth="yes"/>
      <point x="472" y="658"/>
      <point x="552" y="617"/>
      <point x="604" y="548" type="curve"/>
    </contour>
  </outline>
</glyph>
<glyph name="product" format="2">
  <advance width="772"/>
  <unicode hex="220F"/>
  <outline>
    <contour>
      <point x="54" y="-151" type="line"/>
      <point x="257" y="-151" type="line"/>
      <point x="257" y="547" type="line"/>
      <point x="515" y="547" type="line"/>
      <point x="515" y="-151" type="line"/>
      <point x="718" y="-151" type="line"/>
      <point x="718" y="729" type="line"/>
      <point x="54" y="729" type="line"/>
    </contour>
  </outline>
</glyph>
<glyph name="summation" format="2">
  <advance width="571"/>
  <unicode hex="2211"/>
  <outline>
    <contour>
      <point x="29" y="-151" type="line"/>
      <point x="544" y="-151" type="line"/>
      <point x="544" y="48" type="line"/>
      <point x="392" y="48" type="line"/>
      <point x="283" y="46" type="line"/>
      <point x="283" y="56" type="line"/>
      <point x="505" y="289" type="line"/>
      <point x="283" y="522" type="line"/>
      <point x="283" y="532" type="line"/>
      <point x="392" y="530" type="line"/>
      <point x="544" y="530" type="line"/>
      <point x="544" y="729" type="line"/>
      <point x="29" y="729" type="line"/>
      <point x="29" y="518" type="line"/>
      <point x="234" y="302" type="line"/>
      <point x="234" y="276" type="line"/>
      <point x="29" y="60" type="line"/>
    </contour>
  </outline>
</glyph>
<glyph name="minus" format="2">
  <advance width="600"/>
  <unicode hex="2212"/>
  <outline>
    <contour>
      <point x="64" y="286" type="line"/>
      <point x="537" y="286" type="line"/>
      <point x="537" y="435" type="line"/>
      <point x="64" y="435" type="line"/>
    </contour>
  </outline>
</glyph>
<glyph name="radical" format="2">
  <advance width="802"/>
  <unicode hex="221A"/>
  <outline>
    <contour>
      <point x="250" y="-151" type="line"/>
      <point x="523" y="-151" type="line"/>
      <point x="797" y="729" type="line"/>
      <point x="582" y="729" type="line"/>
      <point x="391" y="47" type="line"/>
      <point x="383" y="47" type="line"/>
      <point x="269" y="493" type="line"/>
      <point x="14" y="493" type="line"/>
      <point x="14" y="312" type="line"/>
      <point x="111" y="312" type="line"/>
    </contour>
  </outline>
</glyph>
<glyph name="infinity" format="2">
  <advance width="914"/>
  <unicode hex="221E"/>
  <outline>
    <contour>
      <point x="257" y="121" type="curve" smooth="yes"/>
      <point x="344" y="121"/>
      <point x="415" y="166"/>
      <point x="456" y="234" type="curve"/>
      <point x="499" y="166"/>
      <point x="567" y="121"/>
      <point x="656" y="121" type="curve" smooth="yes"/>
      <point x="785" y="121"/>
      <point x="890" y="216"/>
      <point x="890" y="362" type="curve" smooth="yes"/>
      <point x="890" y="504"/>
      <point x="787" y="608"/>
      <point x="655" y="608" type="curve" smooth="yes"/>
      <point x="566" y="608"/>
      <point x="497" y="555"/>
      <point x="456" y="490" type="curve"/>
      <point x="416" y="555"/>
      <point x="346" y="608"/>
      <point x="258" y="608" type="curve" smooth="yes"/>
      <point x="126" y="608"/>
      <point x="24" y="504"/>
      <point x="24" y="362" type="curve" smooth="yes"/>
      <point x="24" y="216"/>
      <point x="128" y="121"/>
    </contour>
    <contour>
      <point x="270" y="297" type="curve" smooth="yes"/>
      <point x="227" y="297"/>
      <point x="203" y="329"/>
      <point x="203" y="366" type="curve" smooth="yes"/>
      <point x="203" y="402"/>
      <point x="228" y="433"/>
      <point x="270" y="433" type="curve" smooth="yes"/>
      <point x="315" y="433"/>
      <point x="351" y="397"/>
      <point x="371" y="366" type="curve"/>
      <point x="350" y="334"/>
      <point x="315" y="297"/>
    </contour>
    <contour>
      <point x="642" y="297" type="curve" smooth="yes"/>
      <point x="599" y="297"/>
      <point x="564" y="332"/>
      <point x="543" y="366" type="curve"/>
      <point x="562" y="397"/>
      <point x="598" y="433"/>
      <point x="642" y="433" type="curve" smooth="yes"/>
      <point x="684" y="433"/>
      <point x="709" y="402"/>
      <point x="709" y="366" type="curve" smooth="yes"/>
      <point x="709" y="329"/>
      <point x="684" y="297"/>
    </contour>
  </outline>
</glyph>
<glyph name="integral" format="2">
  <advance width="479"/>
  <unicode hex="222B"/>
  <outline>
    <contour>
      <point x="10" y="-151" type="line"/>
      <point x="176" y="-151" type="line" smooth="yes"/>
      <point x="271" y="-151"/>
      <point x="335" y="-94"/>
      <point x="335" y="7" type="curve" smooth="yes"/>
      <point x="335" y="577" type="line"/>
      <point x="469" y="577" type="line"/>
      <point x="469" y="729" type="line"/>
      <point x="302" y="729" type="line" smooth="yes"/>
      <point x="207" y="729"/>
      <point x="144" y="672"/>
      <point x="144" y="570" type="curve" smooth="yes"/>
      <point x="144" y="0" type="line"/>
      <point x="10" y="0" type="line"/>
    </contour>
  </outline>
</glyph>
<glyph name="approxequal" format="2">
  <advance width="600"/>
  <unicode hex="2248"/>
  <outline>
    <contour>
      <point x="399" y="143" type="curve" smooth="yes"/>
      <point x="479" y="143"/>
      <point x="546" y="205"/>
      <point x="537" y="346" type="curve"/>
      <point x="447" y="346" type="line"/>
      <point x="446" y="314"/>
      <point x="427" y="286"/>
      <point x="386" y="286" type="curve" smooth="yes"/>
      <point x="320" y="286"/>
      <point x="283" y="350"/>
      <point x="198" y="350" type="curve" smooth="yes"/>
      <point x="129" y="350"/>
      <point x="55" y="299"/>
      <point x="65" y="151" type="curve"/>
      <point x="155" y="151" type="line"/>
      <point x="153" y="173"/>
      <point x="165" y="210"/>
      <point x="204" y="210" type="curve" smooth="yes"/>
      <point x="259" y="210"/>
      <point x="300" y="143"/>
    </contour>
    <contour>
      <point x="399" y="381" type="curve" smooth="yes"/>
      <point x="479" y="381"/>
      <point x="546" y="443"/>
      <point x="537" y="584" type="curve"/>
      <point x="447" y="584" type="line"/>
      <point x="446" y="552"/>
      <point x="427" y="524"/>
      <point x="386" y="524" type="curve" smooth="yes"/>
      <point x="320" y="524"/>
      <point x="283" y="588"/>
      <point x="198" y="588" type="curve" smooth="yes"/>
      <point x="128" y="588"/>
      <point x="55" y="536"/>
      <point x="65" y="389" type="curve"/>
      <point x="155" y="389" type="line"/>
      <point x="153" y="410"/>
      <point x="164" y="448"/>
      <point x="204" y="448" type="curve" smooth="yes"/>
      <point x="259" y="448"/>
      <point x="300" y="381"/>
    </contour>
  </outline>
</glyph>
<glyph name="notequal" format="2">
  <advance width="600"/>
  <unicode hex="2260"/>
  <outline>
    <contour>
      <point x="118" y="101" type="line"/>
      <point x="239" y="101" type="line"/>
      <point x="482" y="630" type="line"/>
      <point x="363" y="630" type="line"/>
    </contour>
    <contour>
      <point x="64" y="166" type="line"/>
      <point x="537" y="166" type="line"/>
      <point x="537" y="315" type="line"/>
      <point x="64" y="315" type="line"/>
    </contour>
    <contour>
      <point x="64" y="406" type="line"/>
      <point x="537" y="406" type="line"/>
      <point x="537" y="555" type="line"/>
      <point x="64" y="555" type="line"/>
    </contour>
  </outline>
</glyph>
<glyph name="lessequal" format="2">
  <advance width="600"/>
  <unicode hex="2264"/>
  <outline>
    <contour>
      <point x="549" y="158" type="line"/>
      <point x="549" y="328" type="line"/>
      <point x="232" y="407" type="line"/>
      <point x="232" y="416" type="line"/>
      <point x="549" y="489" type="line"/>
      <point x="549" y="659" type="line"/>
      <point x="41" y="516" type="line"/>
      <point x="41" y="307" type="line"/>
    </contour>
    <contour>
      <point x="41" y="0" type="line"/>
      <point x="549" y="0" type="line"/>
      <point x="549" y="132" type="line"/>
      <point x="41" y="132" type="line"/>
    </contour>
  </outline>
</glyph>
<glyph name="greaterequal" format="2">
  <advance width="600"/>
  <unicode hex="2265"/>
  <outline>
    <contour>
      <point x="51" y="158" type="line"/>
      <point x="559" y="307" type="line"/>
      <point x="559" y="516" type="line"/>
      <point x="51" y="659" type="line"/>
      <point x="51" y="489" type="line"/>
      <point x="368" y="416" type="line"/>
      <point x="368" y="407" type="line"/>
      <point x="51" y="328" type="line"/>
    </contour>
    <contour>
      <point x="51" y="0" type="line"/>
      <point x="559" y="0" type="line"/>
      <point x="559" y="132" type="line"/>
      <point x="51" y="132" type="line"/>
    </contour>
  </outline>
</glyph>
<glyph name="blackCircle" format="2">
  <advance width="855"/>
  <unicode hex="25CF"/>
  <anchor x="427.5" y="365" name="center"/>
  <outline>
    <contour>
      <point x="428" y="-9" type="curve" smooth="yes"/>
      <point x="204" y="-9"/>
      <point x="40" y="141"/>
      <point x="40" y="365" type="curve" smooth="yes"/>
      <point x="40" y="589"/>
      <point x="204" y="739"/>
      <point x="428" y="739" type="curve" smooth="yes"/>
      <point x="651" y="739"/>
      <point x="815" y="589"/>
      <point x="815" y="365" type="curve" smooth="yes"/>
      <point x="815" y="141"/>
      <point x="651" y="-9"/>
    </contour>
  </outline>
</glyph>
<glyph name="whiteSmilingFace" format="2">
  <advance width="838"/>
  <unicode hex="263A"/>
  <outline>
    <contour>
      <point x="419" y="-10" type="curve" smooth="yes"/>
      <point x="637" y="-10"/>
      <point x="798" y="143"/>
      <point x="798" y="367" type="curve" smooth="yes"/>
      <point x="798" y="585"/>
      <point x="637" y="739"/>
      <point x="419" y="739" type="curve" smooth="yes"/>
      <point x="201" y="739"/>
      <point x="40" y="586"/>
      <point x="40" y="367" type="curve" smooth="yes"/>
      <point x="40" y="143"/>
      <point x="201" y="-10"/>
    </contour>
    <contour>
      <point x="419" y="124" type="curve" smooth="yes"/>
      <point x="536" y="124"/>
      <point x="629" y="195"/>
      <point x="648" y="297" type="curve"/>
      <point x="673" y="297" type="line"/>
      <point x="673" y="332" type="line"/>
      <point x="547" y="332" type="line"/>
      <point x="547" y="297" type="line"/>
      <point x="579" y="297" type="line"/>
      <point x="561" y="232"/>
      <point x="500" y="191"/>
      <point x="419" y="191" type="curve" smooth="yes"/>
      <point x="338" y="191"/>
      <point x="277" y="232"/>
      <point x="259" y="297" type="curve"/>
      <point x="291" y="297" type="line"/>
      <point x="291" y="332" type="line"/>
      <point x="165" y="332" type="line"/>
      <point x="165" y="297" type="line"/>
      <point x="190" y="297" type="line"/>
      <point x="209" y="195"/>
      <point x="302" y="124"/>
    </contour>
    <contour>
      <point x="419" y="63" type="curve" smooth="yes"/>
      <point x="238" y="63"/>
      <point x="117" y="185"/>
      <point x="117" y="367" type="curve" smooth="yes"/>
      <point x="117" y="546"/>
      <point x="238" y="666"/>
      <point x="419" y="666" type="curve" smooth="yes"/>
      <point x="600" y="666"/>
      <point x="721" y="546"/>
      <point x="721" y="367" type="curve" smooth="yes"/>
      <point x="721" y="185"/>
      <point x="600" y="63"/>
    </contour>
    <contour>
      <point x="337" y="403" type="curve" smooth="yes"/>
      <point x="367" y="403"/>
      <point x="390" y="424"/>
      <point x="390" y="454" type="curve" smooth="yes"/>
      <point x="390" y="484"/>
      <point x="367" y="505"/>
      <point x="337" y="505" type="curve" smooth="yes"/>
      <point x="307" y="505"/>
      <point x="283" y="484"/>
      <point x="283" y="454" type="curve" smooth="yes"/>
      <point x="283" y="424"/>
      <point x="307" y="403"/>
    </contour>
    <contour>
      <point x="503" y="403" type="curve" smooth="yes"/>
      <point x="533" y="403"/>
      <point x="556" y="424"/>
      <point x="556" y="454" type="curve" smooth="yes"/>
      <point x="556" y="484"/>
      <point x="533" y="505"/>
      <point x="503" y="505" type="curve" smooth="yes"/>
      <point x="473" y="505"/>
      <point x="449" y="484"/>
      <point x="449" y="454" type="curve" smooth="yes"/>
      <point x="449" y="424"/>
      <point x="473" y="403"/>
    </contour>
  </outline>
</glyph>
<glyph name="checkmark" format="2">
  <advance width="943"/>
  <unicode hex="2713"/>
  <outline>
    <contour>
      <point x="346" y="67" type="line"/>
      <point x="842" y="533" type="line"/>
      <point x="736" y="658" type="line"/>
      <point x="359" y="299" type="line"/>
      <point x="218" y="463" type="line"/>
      <point x="101" y="356" type="line"/>
    </contour>
  </outline>
</glyph>
<glyph name="fi" format="2">
  <advance width="689"/>
  <unicode hex="FB01"/>
  <outline>
    <contour>
      <point x="97" y="0" type="line"/>
      <point x="288" y="0" type="line"/>
      <point x="288" y="391" type="line"/>
      <point x="444" y="391" type="line"/>
      <point x="444" y="0" type="line"/>
      <point x="635" y="0" type="line"/>
      <point x="635" y="544" type="line"/>
      <point x="288" y="544" type="line"/>
      <point x="288" y="571" type="line" smooth="yes"/>
      <point x="288" y="599"/>
      <point x="304" y="606"/>
      <point x="327" y="606" type="curve" smooth="yes"/>
      <point x="398" y="606" type="line"/>
      <point x="398" y="729" type="line"/>
      <point x="275" y="729" type="line" smooth="yes"/>
      <point x="161" y="729"/>
      <point x="97" y="675"/>
      <point x="97" y="580" type="curve" smooth="yes"/>
      <point x="97" y="544" type="line"/>
      <point x="17" y="544" type="line"/>
      <point x="17" y="391" type="line"/>
      <point x="97" y="391" type="line"/>
    </contour>
    <contour>
      <point x="540" y="589" type="curve" smooth="yes"/>
      <point x="596" y="589"/>
      <point x="637" y="619"/>
      <point x="637" y="672" type="curve" smooth="yes"/>
      <point x="637" y="725"/>
      <point x="596" y="755"/>
      <point x="540" y="755" type="curve" smooth="yes"/>
      <point x="484" y="755"/>
      <point x="443" y="725"/>
      <point x="443" y="672" type="curve" smooth="yes"/>
      <point x="443" y="619"/>
      <point x="484" y="589"/>
    </contour>
  </outline>
</glyph>
<glyph name="fl" format="2">
  <advance width="695"/>
  <unicode hex="FB02"/>
  <outline>
    <contour>
      <point x="97" y="0" type="line"/>
      <point x="288" y="0" type="line"/>
      <point x="288" y="391" type="line"/>
      <point x="450" y="391" type="line"/>
      <point x="450" y="0" type="line"/>
      <point x="641" y="0" type="line"/>
      <point x="641" y="729" type="line"/>
      <point x="450" y="729" type="line"/>
      <point x="450" y="544" type="line"/>
      <point x="288" y="544" type="line"/>
      <point x="288" y="571" type="line" smooth="yes"/>
      <point x="288" y="599"/>
      <point x="304" y="606"/>
      <point x="327" y="606" type="curve" smooth="yes"/>
      <point x="398" y="606" type="line"/>
      <point x="398" y="729" type="line"/>
      <point x="275" y="729" type="line" smooth="yes"/>
      <point x="161" y="729"/>
      <point x="97" y="675"/>
      <point x="97" y="580" type="curve" smooth="yes"/>
      <point x="97" y="544" type="line"/>
      <point x="17" y="544" type="line"/>
      <point x="17" y="391" type="line"/>
      <point x="97" y="391" type="line"/>
    </contour>
  </outline>
</glyph>
<glyph name="G.ss06" format="2">
  <advance width="786"/>
  <anchor x="392" y="0" name="bottom"/>
  <anchor x="401" y="729" name="top"/>
  <outline>
    <contour>
      <point x="394" y="-10" type="curve" smooth="yes"/>
      <point x="608" y="-10"/>
      <point x="757" y="115"/>
      <point x="757" y="310" type="curve" smooth="yes"/>
      <point x="757" y="401" type="line"/>
      <point x="384" y="401" type="line"/>
      <point x="384" y="254" type="line"/>
      <point x="604" y="254" type="line"/>
      <point x="553" y="318" type="line"/>
      <point x="553" y="283" type="line" smooth="yes"/>
      <point x="553" y="208"/>
      <point x="496" y="158"/>
      <point x="399" y="158" type="curve" smooth="yes"/>
      <point x="296" y="158"/>
      <point x="235" y="220"/>
      <point x="235" y="365" type="curve" smooth="yes"/>
      <point x="235" y="509"/>
      <point x="301" y="567"/>
      <point x="401" y="567" type="curve" smooth="yes"/>
      <point x="476" y="567"/>
      <point x="526" y="534"/>
      <point x="537" y="480" type="curve"/>
      <point x="746" y="480" type="line"/>
      <point x="729" y="634"/>
      <point x="605" y="739"/>
      <point x="401" y="739" type="curve" smooth="yes"/>
      <point x="176" y="739"/>
      <point x="27" y="607"/>
      <point x="27" y="365" type="curve" smooth="yes"/>
      <point x="27" y="140"/>
      <point x="160" y="-10"/>
    </contour>
  </outline>
</glyph>
<glyph name="I.ss02" format="2">
  <advance width="585"/>
  <anchor x="293" y="0" name="bottom"/>
  <anchor x="550" y="0" name="ogonek"/>
  <anchor x="293" y="729" name="top"/>
  <anchor x="47" y="729" name="topleft"/>
  <outline>
    <contour>
      <point x="188" y="158" type="line"/>
      <point x="391" y="158" type="line"/>
      <point x="391" y="571" type="line"/>
      <point x="188" y="571" type="line"/>
    </contour>
    <contour>
      <point x="35" y="555" type="line"/>
      <point x="550" y="555" type="line"/>
      <point x="550" y="729" type="line"/>
      <point x="35" y="729" type="line"/>
    </contour>
    <contour>
      <point x="35" y="0" type="line"/>
      <point x="550" y="0" type="line"/>
      <point x="550" y="174" type="line"/>
      <point x="35" y="174" type="line"/>
    </contour>
  </outline>
</glyph>
<glyph name="_B.currency" format="2">
  <advance width="719"/>
  <anchor x="376" y="0" name="bottom"/>
  <outline>
    <contour>
      <point x="70" y="0" type="line"/>
      <point x="405" y="0" type="line" smooth="yes"/>
      <point x="593" y="0"/>
      <point x="682" y="85"/>
      <point x="682" y="212" type="curve" smooth="yes"/>
      <point x="682" y="293"/>
      <point x="638" y="359"/>
      <point x="559" y="376" type="curve"/>
      <point x="559" y="385" type="line"/>
      <point x="621" y="405"/>
      <point x="662" y="467"/>
      <point x="662" y="541" type="curve" smooth="yes"/>
      <point x="662" y="654"/>
      <point x="589" y="729"/>
      <point x="434" y="729" type="curve" smooth="yes"/>
      <point x="70" y="729" type="line"/>
    </contour>
    <contour>
      <point x="267" y="153" type="line"/>
      <point x="267" y="299" type="line"/>
      <point x="381" y="299" type="line" smooth="yes"/>
      <point x="440" y="299"/>
      <point x="466" y="273"/>
      <point x="466" y="226" type="curve" smooth="yes"/>
      <point x="466" y="179"/>
      <point x="440" y="153"/>
      <point x="381" y="153" type="curve" smooth="yes"/>
    </contour>
    <contour>
      <point x="267" y="446" type="line"/>
      <point x="267" y="576" type="line"/>
      <point x="372" y="576" type="line" smooth="yes"/>
      <point x="418" y="576"/>
      <point x="448" y="555"/>
      <point x="448" y="511" type="curve" smooth="yes"/>
      <point x="448" y="472"/>
      <point x="424" y="446"/>
      <point x="372" y="446" type="curve" smooth="yes"/>
    </contour>
  </outline>
</glyph>
<glyph name="_Thorn.bowl" format="2">
  <advance width="512"/>
  <anchor x="-15" y="0" name="_bottom"/>
  <outline>
    <contour>
      <point x="40" y="111" type="line"/>
      <point x="195" y="111" type="line" smooth="yes"/>
      <point x="366" y="111"/>
      <point x="472" y="201"/>
      <point x="472" y="362" type="curve" smooth="yes"/>
      <point x="472" y="523"/>
      <point x="366" y="613"/>
      <point x="195" y="613" type="curve" smooth="yes"/>
      <point x="40" y="613" type="line"/>
      <point x="40" y="443" type="line"/>
      <point x="169" y="443" type="line" smooth="yes"/>
      <point x="227" y="443"/>
      <point x="266" y="420"/>
      <point x="266" y="362" type="curve" smooth="yes"/>
      <point x="266" y="304"/>
      <point x="227" y="281"/>
      <point x="169" y="281" type="curve" smooth="yes"/>
      <point x="40" y="281" type="line"/>
    </contour>
  </outline>
</glyph>
<glyph name="_baht.bar" format="2">
  <advance width="190"/>
  <anchor x="127" y="0" name="_bottom"/>
  <outline>
    <contour>
      <point x="40" y="-85" type="line"/>
      <point x="150" y="-85" type="line"/>
      <point x="150" y="90" type="line"/>
      <point x="40" y="90" type="line"/>
    </contour>
    <contour>
      <point x="41" y="689" type="line"/>
      <point x="150" y="689" type="line"/>
      <point x="150" y="815" type="line"/>
      <point x="41" y="815" type="line"/>
    </contour>
  </outline>
</glyph>
<glyph name="_bitcoin.bars" format="2">
  <advance width="369"/>
  <anchor x="227" y="0" name="_bottom"/>
  <outline>
    <contour>
      <point x="40" y="-85" type="line"/>
      <point x="150" y="-85" type="line"/>
      <point x="150" y="90" type="line"/>
      <point x="40" y="90" type="line"/>
    </contour>
    <contour>
      <point x="219" y="-85" type="line"/>
      <point x="329" y="-85" type="line"/>
      <point x="329" y="90" type="line"/>
      <point x="219" y="90" type="line"/>
    </contour>
    <contour>
      <point x="41" y="689" type="line"/>
      <point x="150" y="689" type="line"/>
      <point x="150" y="815" type="line"/>
      <point x="41" y="815" type="line"/>
    </contour>
    <contour>
      <point x="220" y="689" type="line"/>
      <point x="329" y="689" type="line"/>
      <point x="329" y="815" type="line"/>
      <point x="220" y="815" type="line"/>
    </contour>
  </outline>
</glyph>
<glyph name="_circle" format="2">
  <advance width="855"/>
  <outline>
    <contour>
      <point x="428" y="-9" type="curve" smooth="yes"/>
      <point x="651" y="-9"/>
      <point x="815" y="141"/>
      <point x="815" y="365" type="curve" smooth="yes"/>
      <point x="815" y="589"/>
      <point x="651" y="739"/>
      <point x="428" y="739" type="curve" smooth="yes"/>
      <point x="204" y="739"/>
      <point x="40" y="589"/>
      <point x="40" y="365" type="curve" smooth="yes"/>
      <point x="40" y="141"/>
      <point x="204" y="-9"/>
    </contour>
    <contour>
      <point x="428" y="68" type="curve" smooth="yes"/>
      <point x="246" y="68"/>
      <point x="124" y="187"/>
      <point x="124" y="365" type="curve" smooth="yes"/>
      <point x="124" y="544"/>
      <point x="247" y="663"/>
      <point x="428" y="663" type="curve" smooth="yes"/>
      <point x="608" y="663"/>
      <point x="731" y="544"/>
      <point x="731" y="365" type="curve" smooth="yes"/>
      <point x="731" y="187"/>
      <point x="609" y="68"/>
    </contour>
  </outline>
</glyph>
<glyph name="_copyright.C" format="2">
  <advance width="483"/>
  <anchor x="242" y="365" name="_center"/>
  <outline>
    <contour>
      <point x="248" y="163" type="curve" smooth="yes"/>
      <point x="360" y="163"/>
      <point x="440" y="225"/>
      <point x="443" y="319" type="curve"/>
      <point x="310" y="319" type="line"/>
      <point x="306" y="293"/>
      <point x="285" y="274"/>
      <point x="248" y="274" type="curve" smooth="yes"/>
      <point x="207" y="274"/>
      <point x="180" y="301"/>
      <point x="180" y="365" type="curve" smooth="yes"/>
      <point x="180" y="420"/>
      <point x="201" y="455"/>
      <point x="249" y="455" type="curve" smooth="yes"/>
      <point x="279" y="455"/>
      <point x="303" y="441"/>
      <point x="309" y="410" type="curve"/>
      <point x="443" y="410" type="line"/>
      <point x="441" y="499"/>
      <point x="366" y="567"/>
      <point x="252" y="567" type="curve" smooth="yes"/>
      <point x="123" y="567"/>
      <point x="40" y="488"/>
      <point x="40" y="365" type="curve" smooth="yes"/>
      <point x="40" y="243"/>
      <point x="122" y="163"/>
    </contour>
  </outline>
</glyph>
<glyph name="_published.P" format="2">
  <advance width="450"/>
  <anchor x="204" y="365" name="_center"/>
  <outline>
    <contour>
      <point x="40" y="167" type="line"/>
      <point x="179" y="167" type="line"/>
      <point x="179" y="471" type="line"/>
      <point x="209" y="471" type="line" smooth="yes"/>
      <point x="242" y="471"/>
      <point x="271" y="466"/>
      <point x="271" y="426" type="curve" smooth="yes"/>
      <point x="271" y="382"/>
      <point x="242" y="378"/>
      <point x="209" y="378" type="curve" smooth="yes"/>
      <point x="163" y="378" type="line"/>
      <point x="163" y="293" type="line"/>
      <point x="244" y="293" type="line" smooth="yes"/>
      <point x="361" y="293"/>
      <point x="410" y="349"/>
      <point x="410" y="429" type="curve" smooth="yes"/>
      <point x="410" y="515"/>
      <point x="355" y="564"/>
      <point x="244" y="564" type="curve" smooth="yes"/>
      <point x="40" y="564" type="line"/>
    </contour>
  </outline>
</glyph>
<glyph name="_tail.Q" format="2">
  <advance width="499"/>
  <anchor x="71" y="0" name="_bottom"/>
  <outline>
    <contour>
      <point x="69" y="78" type="line"/>
      <point x="71" y="0" type="line"/>
      <point x="498" y="0" type="line"/>
      <point x="498" y="155" type="line"/>
      <point x="448" y="155" type="line"/>
    </contour>
  </outline>
</glyph>
